<?xml version="1.0" encoding="UTF-8"?>
<svg xmlns="http://www.w3.org/2000/svg" width="961" height="579" viewBox="0 0 961 579">
  <defs>
    <style type="text/css">
      <![CDATA[
.dv-node rect.dv-frame { fill: #fff; stroke: #374151; stroke-width: 1; }
.dv-node .dv-title { font: 600 13px sans-serif; fill: #111827; }
.dv-node .dv-sub { font: 400 10px sans-serif; fill: #6b7280; }
.dv-edge { fill: none; stroke: #374151; stroke-width: 1.2; }
.dv-edge.fk { stroke: #334155; }
.dv-edge.inherit { stroke: #16a34a; }
.dv-edge.dep { stroke: #6b7280; stroke-dasharray: 4 3; }
.dv-label { font: 400 10px sans-serif; fill: #334155; }
.dv-cardinality { font: 400 10px sans-serif; fill: #1e293b; }
.dv-cardinality-bg { fill: #ffffff; }

]]>
    </style>
    <marker id="dv-arrow" viewBox="0 0 10 10" refX="9" refY="5" markerWidth="7" markerHeight="7" orient="auto-start-reverse">
      <path d="M0,0 L10,5 L0,10 z" fill="#374151"/>
    </marker>
    <marker id="dv-arrow-fk" viewBox="0 0 10 10" refX="9" refY="5" markerWidth="7" markerHeight="7" orient="auto-start-reverse">
      <path d="M0,0 L10,5 L0,10 z" fill="#334155"/>
    </marker>
    <marker id="dv-tri" viewBox="0 0 12 12" refX="11" refY="6" markerWidth="10" markerHeight="10" orient="auto-start-reverse">
      <path d="M0,0 L12,6 L0,12 z" fill="#fff" stroke="#16a34a"/>
    </marker>
    <marker id="dv-deco-open-arrow" viewBox="0 0 12 12" refX="11" refY="6" markerWidth="10" markerHeight="10" orient="auto-start-reverse">
      <path d="M0,0 L12,6 M0,12 L12,6" fill="none" stroke="#374151" stroke-width="1.40"/>
    </marker>
    <marker id="dv-deco-closed-arrow" viewBox="0 0 12 12" refX="11" refY="6" markerWidth="10" markerHeight="10" orient="auto-start-reverse">
      <path d="M0,0 L12,6 L0,12 z" fill="#374151"/>
    </marker>
    <marker id="dv-deco-triangle-hollow" viewBox="0 0 12 12" refX="12" refY="6" markerWidth="6" markerHeight="6" orient="auto-start-reverse">
      <path d="M0,0 L12,6 L0,12 z" fill="#fff" stroke="#374151" stroke-width="1.40"/>
    </marker>
    <marker id="dv-deco-triangle-filled" viewBox="0 0 12 12" refX="12" refY="6" markerWidth="6" markerHeight="6" orient="auto-start-reverse">
      <path d="M0,0 L12,6 L0,12 z" fill="#374151"/>
    </marker>
    <marker id="dv-deco-diamond-hollow" viewBox="0 0 12 12" refX="11" refY="6" markerWidth="12" markerHeight="12" orient="auto-start-reverse">
      <path d="M0,6 L6,0 L12,6 L6,12 z" fill="#fff" stroke="#374151" stroke-width="1.20"/>
    </marker>
    <marker id="dv-deco-diamond-filled" viewBox="0 0 12 12" refX="11" refY="6" markerWidth="12" markerHeight="12" orient="auto-start-reverse">
      <path d="M0,6 L6,0 L12,6 L6,12 z" fill="#374151"/>
    </marker>
    <marker id="dv-deco-crows-foot-many" viewBox="0 0 12 12" refX="11" refY="6" markerWidth="11" markerHeight="11" orient="auto-start-reverse">
      <path d="M12,6 L0,0 M12,6 L0,12 M12,6 L0,6" fill="none" stroke="#374151" stroke-width="1.30"/>
    </marker>
    <marker id="dv-deco-crows-foot-one" viewBox="0 0 12 12" refX="11" refY="6" markerWidth="8" markerHeight="11" orient="auto-start-reverse">
      <path d="M6,0 L6,12" fill="none" stroke="#374151" stroke-width="1.40"/>
    </marker>
    <marker id="dv-deco-crows-foot-many-opt" viewBox="0 0 12 12" refX="11" refY="6" markerWidth="14" markerHeight="11" orient="auto-start-reverse">
      <g>
        <circle cx="9.50" cy="6" r="2" fill="#fff" stroke="#374151" stroke-width="1.20"/>
        <path d="M7,6 L0,0 M7,6 L0,12 M7,6 L0,6" fill="none" stroke="#374151" stroke-width="1.30"/>
      </g>
    </marker>
    <marker id="dv-deco-crows-foot-one-opt" viewBox="0 0 12 12" refX="11" refY="6" markerWidth="12" markerHeight="11" orient="auto-start-reverse">
      <g>
        <circle cx="9.50" cy="6" r="2" fill="#fff" stroke="#374151" stroke-width="1.20"/>
        <path d="M5,0 L5,12" fill="none" stroke="#374151" stroke-width="1.40"/>
      </g>
    </marker>
  </defs>
  <g class="diagramvis-body" transform="translate(-4.0,-4.0)">
    <g class="dv-node dv-pkg_33822750" transform="translate(20,20)">
      <rect x="0" y="0" width="929" height="547" rx="6" ry="6" style="fill:#fafafa;stroke:#9ca3af;stroke-width:1;stroke-dasharray:5 3"/>
      <rect x="0" y="0" width="333" height="42" rx="6" ry="6" style="fill:#ddd6fe;stroke:#7c3aed;stroke-width:1"/>
      <text x="10" y="12" style="font:400 10px sans-serif;fill:#4c1d95;letter-spacing:0.06em">Package</text>
      <text x="10" y="25" style="font:600 12px sans-serif;fill:#4c1d95">cwm.objectmodel.behavioral</text>
      <text x="10" y="38" style="font:400 9px monospace;fill:#6b21a8">http://www.omg.org/spec/CWM/1.1/objectmodel/behavioral</text>
      <g class="dv-node dv-pkg_enum_286b48ce" transform="translate(22,266)">
        <rect x="0" y="0" width="260" height="182" rx="6" ry="6" style="fill:#fafafa;stroke:#9ca3af;stroke-width:1;stroke-dasharray:5 3"/>
        <rect x="0" y="0" width="150" height="32" rx="6" ry="6" style="fill:#1f2937;stroke:none"/>
        <circle cx="16" cy="16" r="10" style="fill:#ffffff;fill-opacity:0.18;stroke:#ffffff;stroke-opacity:0.6;stroke-width:1"/>
        <g transform="translate(10,10.0)">
          <path d="M1 2h10v8H1zM2 4h8M2 6h8M2 8h8" style="fill:#ffffff;stroke:none"/>
        </g>
        <text x="32" y="13" style="font:600 9px sans-serif;fill:#ffffff;letter-spacing:0.5px;opacity:0.85">ENUMERATIONS</text>
        <text x="32" y="25" style="font:600 13px sans-serif;fill:#f9fafb">enumerations</text>
        <g class="dv-node dv-e_71adea8d" transform="translate(20,50)">
          <rect class="dv-frame" x="0" y="0" width="220" height="116" rx="4" ry="4"/>
          <defs>
            <clipPath id="dv-clip-e_71adea8d">
              <rect x="0" y="0" width="220" height="116" rx="4" ry="4"/>
            </clipPath>
          </defs>
          <g clip-path="url(#dv-clip-e_71adea8d)">
            <rect class="dv-title-bar" x="0" y="0" width="220" height="28" rx="4" ry="4" style="fill:#7c2d12"/>
            <rect x="0" y="24" width="220" height="4" style="fill:#7c2d12"/>
            <g transform="translate(10,8)">
              <path d="M6 0 L1 3 L1 9 L6 12 L11 9 L11 3 Z" style="fill:none;stroke:#f9fafb;stroke-width:1"/>
              <circle cx="6" cy="6" r="2" style="fill:#f9fafb"/>
            </g>
            <text x="28" y="12" style="font:400 10px sans-serif;fill:#e5e7eb">Enumeration</text>
            <text class="dv-title" x="28" y="23" style="font:600 13px sans-serif;fill:#f9fafb">ParameterDirectionKind</text>
            <rect x="1" y="28" width="218" height="16" style="fill:#e9d5ff"/>
            <text x="10" y="39" style="font:600 9.0px sans-serif;fill:#374151;letter-spacing:0.5px">LITERALS</text>
            <rect x="1" y="44" width="218" height="18" style="fill:#faf5ff"/>
            <line x1="1" x2="219" y1="62" y2="62" style="stroke:#e9d5ff;stroke-width:1"/>
            <text x="10" y="57" style="font:400 11px sans-serif">pdk_in</text>
            <text x="210" y="57" text-anchor="end" style="font:400 10px monospace;fill:#6b7280">0</text>
            <rect x="1" y="62" width="218" height="18" style="fill:#faf5ff"/>
            <line x1="1" x2="219" y1="80" y2="80" style="stroke:#e9d5ff;stroke-width:1"/>
            <text x="10" y="75" style="font:400 11px sans-serif">pdk_inout</text>
            <text x="210" y="75" text-anchor="end" style="font:400 10px monospace;fill:#6b7280">1</text>
            <rect x="1" y="80" width="218" height="18" style="fill:#faf5ff"/>
            <line x1="1" x2="219" y1="98" y2="98" style="stroke:#e9d5ff;stroke-width:1"/>
            <text x="10" y="93" style="font:400 11px sans-serif">pdk_out</text>
            <text x="210" y="93" text-anchor="end" style="font:400 10px monospace;fill:#6b7280">2</text>
            <rect x="1" y="98" width="218" height="18" style="fill:#faf5ff"/>
            <line x1="1" x2="219" y1="116" y2="116" style="stroke:#e9d5ff;stroke-width:1"/>
            <text x="10" y="111" style="font:400 11px sans-serif">pdk_return</text>
            <text x="210" y="111" text-anchor="end" style="font:400 10px monospace;fill:#6b7280">3</text>
          </g>
        </g>
      </g>
      <g class="dv-node dv-c_72788282" transform="translate(669,70)">
        <rect class="dv-frame" x="0" y="0" width="234" height="80" rx="4" ry="4"/>
        <defs>
          <clipPath id="dv-clip-c_72788282">
            <rect x="0" y="0" width="234" height="80" rx="4" ry="4"/>
          </clipPath>
        </defs>
        <g clip-path="url(#dv-clip-c_72788282)">
          <rect class="dv-title-bar" x="0" y="0" width="234" height="28" rx="4" ry="4" style="fill:#1e3a8a"/>
          <rect x="0" y="24" width="234" height="4" style="fill:#1e3a8a"/>
          <g transform="translate(10,8)">
            <rect x="1" y="1" width="10" height="10" style="fill:none;stroke:#f9fafb;stroke-width:1"/>
            <line x1="1" y1="5" x2="11" y2="5" style="stroke:#f9fafb;stroke-width:0.8"/>
          </g>
          <text x="28" y="12" style="font:400 10px sans-serif;fill:#e5e7eb">Class</text>
          <text class="dv-title" x="28" y="23" style="font:600 13px sans-serif;fill:#f9fafb">Argument</text>
          <rect x="1" y="28" width="232" height="16" style="fill:#bbf7d0"/>
          <text x="10" y="39" style="font:600 9.0px sans-serif;fill:#374151;letter-spacing:0.5px">REFERENCES</text>
          <rect x="1" y="44" width="232" height="18" style="fill:#f0fdf4"/>
          <line x1="1" x2="233" y1="62" y2="62" style="stroke:#bbf7d0;stroke-width:1"/>
          <text x="18" y="57" style="font:400 11px sans-serif">value</text>
          <text x="164" y="57" text-anchor="end" style="font:400 10px monospace;fill:#6b7280">Expression</text>
          <text x="202" y="57" text-anchor="end" style="font:400 10px monospace;fill:#6b7280">0..1</text>
          <g transform="translate(218,48)" aria-label="containment">
            <path d="M6 1 L11 5 L6 9 L1 5 Z" style="fill:#1f2937;stroke:none"/>
          </g>
          <rect x="1" y="62" width="232" height="18" style="fill:#f0fdf4"/>
          <line x1="1" x2="233" y1="80" y2="80" style="stroke:#bbf7d0;stroke-width:1"/>
          <text x="18" y="75" style="font:400 11px sans-serif">callAction</text>
          <text x="164" y="75" text-anchor="end" style="font:400 10px monospace;fill:#6b7280">CallAction</text>
          <text x="202" y="75" text-anchor="end" style="font:400 10px monospace;fill:#6b7280">0..1</text>
          <g transform="translate(204,66)" aria-label="transient">
            <rect x="0.50" y="0.50" width="9" height="9" rx="1.50" ry="1.50" style="fill:#0891b2;stroke:#374151;stroke-width:0.7"/>
            <text x="5" y="7.50" text-anchor="middle" style="font:700 7px sans-serif;fill:#fff">T</text>
            <title>transient</title>
          </g>
          <g transform="translate(218,66)" aria-label="reference">
            <path d="M3 1 L9 5 L3 9" style="fill:none;stroke:#1f2937;stroke-width:1.4;stroke-linecap:round;stroke-linejoin:round"/>
          </g>
        </g>
      </g>
      <g class="dv-node dv-c_12e33c7b" transform="translate(669,343)">
        <rect class="dv-frame" x="0" y="0" width="220" height="96" rx="4" ry="4"/>
        <defs>
          <clipPath id="dv-clip-c_12e33c7b">
            <rect x="0" y="0" width="220" height="96" rx="4" ry="4"/>
          </clipPath>
        </defs>
        <g clip-path="url(#dv-clip-c_12e33c7b)">
          <rect class="dv-title-bar" x="0" y="0" width="220" height="28" rx="4" ry="4" style="fill:#475569"/>
          <rect x="0" y="24" width="220" height="4" style="fill:#475569"/>
          <g transform="translate(10,8)">
            <rect x="1" y="1" width="10" height="10" style="fill:none;stroke:#f9fafb;stroke-width:1"/>
            <line x1="1" y1="5" x2="11" y2="5" style="stroke:#f9fafb;stroke-width:0.8"/>
          </g>
          <text x="28" y="12" style="font:400 10px sans-serif;fill:#e5e7eb">abstract Class</text>
          <text class="dv-title" x="28" y="23" style="font:600 13px sans-serif;fill:#f9fafb;font-style:italic">BehavioralFeature</text>
          <rect x="1" y="28" width="218" height="16" style="fill:#dbeafe"/>
          <text x="10" y="39" style="font:600 9.0px sans-serif;fill:#374151;letter-spacing:0.5px">ATTRIBUTES</text>
          <rect x="1" y="44" width="218" height="18" style="fill:#eff6ff"/>
          <line x1="1" x2="219" y1="62" y2="62" style="stroke:#dbeafe;stroke-width:1"/>
          <text x="18" y="57" style="font:400 11px sans-serif">isQuery</text>
          <text x="164" y="57" text-anchor="end" style="font:400 10px monospace;fill:#6b7280">Boolean</text>
          <text x="202" y="57" text-anchor="end" style="font:400 10px monospace;fill:#6b7280">0..1</text>
          <rect x="1" y="62" width="218" height="16" style="fill:#bbf7d0"/>
          <text x="10" y="73" style="font:600 9.0px sans-serif;fill:#374151;letter-spacing:0.5px">REFERENCES</text>
          <rect x="1" y="78" width="218" height="18" style="fill:#f0fdf4"/>
          <line x1="1" x2="219" y1="96" y2="96" style="stroke:#bbf7d0;stroke-width:1"/>
          <text x="18" y="91" style="font:400 11px sans-serif">parameter</text>
          <text x="164" y="91" text-anchor="end" style="font:400 10px monospace;fill:#6b7280">Parameter</text>
          <text x="202" y="91" text-anchor="end" style="font:400 10px monospace;fill:#6b7280">0..*</text>
          <g transform="translate(204,82)" aria-label="containment">
            <path d="M6 1 L11 5 L6 9 L1 5 Z" style="fill:#1f2937;stroke:none"/>
          </g>
        </g>
      </g>
      <g class="dv-node dv-c_72e950ef" transform="translate(349,88)">
        <rect class="dv-frame" x="0" y="0" width="259" height="98" rx="4" ry="4"/>
        <defs>
          <clipPath id="dv-clip-c_72e950ef">
            <rect x="0" y="0" width="259" height="98" rx="4" ry="4"/>
          </clipPath>
        </defs>
        <g clip-path="url(#dv-clip-c_72e950ef)">
          <rect class="dv-title-bar" x="0" y="0" width="259" height="28" rx="4" ry="4" style="fill:#1e3a8a"/>
          <rect x="0" y="24" width="259" height="4" style="fill:#1e3a8a"/>
          <g transform="translate(10,8)">
            <rect x="1" y="1" width="10" height="10" style="fill:none;stroke:#f9fafb;stroke-width:1"/>
            <line x1="1" y1="5" x2="11" y2="5" style="stroke:#f9fafb;stroke-width:0.8"/>
          </g>
          <text x="28" y="12" style="font:400 10px sans-serif;fill:#e5e7eb">Class</text>
          <text class="dv-title" x="28" y="23" style="font:600 13px sans-serif;fill:#f9fafb">CallAction</text>
          <rect x="1" y="28" width="257" height="16" style="fill:#bbf7d0"/>
          <text x="10" y="39" style="font:600 9.0px sans-serif;fill:#374151;letter-spacing:0.5px">REFERENCES</text>
          <rect x="1" y="44" width="257" height="18" style="fill:#f0fdf4"/>
          <line x1="1" x2="258" y1="62" y2="62" style="stroke:#bbf7d0;stroke-width:1"/>
          <text x="18" y="57" style="font:400 11px sans-serif">actualArgument</text>
          <text x="203" y="57" text-anchor="end" style="font:400 10px monospace;fill:#6b7280">Argument</text>
          <text x="241" y="57" text-anchor="end" style="font:400 10px monospace;fill:#6b7280">0..*</text>
          <g transform="translate(243,48)" aria-label="containment">
            <path d="M6 1 L11 5 L6 9 L1 5 Z" style="fill:#1f2937;stroke:none"/>
          </g>
          <rect x="1" y="62" width="257" height="18" style="fill:#f0fdf4"/>
          <line x1="1" x2="258" y1="80" y2="80" style="stroke:#bbf7d0;stroke-width:1"/>
          <text x="18" y="75" style="font:400 11px sans-serif">operation</text>
          <text x="203" y="75" text-anchor="end" style="font:400 10px monospace;fill:#6b7280">Operation</text>
          <text x="241" y="75" text-anchor="end" style="font:400 10px monospace;fill:#6b7280">1..1</text>
          <g transform="translate(243,66)" aria-label="reference">
            <path d="M3 1 L9 5 L3 9" style="fill:none;stroke:#1f2937;stroke-width:1.4;stroke-linecap:round;stroke-linejoin:round"/>
          </g>
          <rect x="1" y="80" width="257" height="18" style="fill:#f0fdf4"/>
          <line x1="1" x2="258" y1="98" y2="98" style="stroke:#bbf7d0;stroke-width:1"/>
          <text x="18" y="93" style="font:400 11px sans-serif">stepExecution</text>
          <text x="203" y="93" text-anchor="end" style="font:400 10px monospace;fill:#6b7280">StepExecution</text>
          <text x="241" y="93" text-anchor="end" style="font:400 10px monospace;fill:#6b7280">0..*</text>
          <g transform="translate(243,84)" aria-label="reference">
            <path d="M3 1 L9 5 L3 9" style="fill:none;stroke:#1f2937;stroke-width:1.4;stroke-linecap:round;stroke-linejoin:round"/>
          </g>
        </g>
      </g>
      <g class="dv-node dv-c_19f3c1f7" transform="translate(669,463)">
        <rect class="dv-frame" x="0" y="0" width="220" height="62" rx="4" ry="4"/>
        <defs>
          <clipPath id="dv-clip-c_19f3c1f7">
            <rect x="0" y="0" width="220" height="62" rx="4" ry="4"/>
          </clipPath>
        </defs>
        <g clip-path="url(#dv-clip-c_19f3c1f7)">
          <rect class="dv-title-bar" x="0" y="0" width="220" height="28" rx="4" ry="4" style="fill:#1e3a8a"/>
          <rect x="0" y="24" width="220" height="4" style="fill:#1e3a8a"/>
          <g transform="translate(10,8)">
            <rect x="1" y="1" width="10" height="10" style="fill:none;stroke:#f9fafb;stroke-width:1"/>
            <line x1="1" y1="5" x2="11" y2="5" style="stroke:#f9fafb;stroke-width:0.8"/>
          </g>
          <text x="28" y="12" style="font:400 10px sans-serif;fill:#e5e7eb">Class</text>
          <text class="dv-title" x="28" y="23" style="font:600 13px sans-serif;fill:#f9fafb">Event</text>
          <rect x="1" y="28" width="218" height="16" style="fill:#bbf7d0"/>
          <text x="10" y="39" style="font:600 9.0px sans-serif;fill:#374151;letter-spacing:0.5px">REFERENCES</text>
          <rect x="1" y="44" width="218" height="18" style="fill:#f0fdf4"/>
          <line x1="1" x2="219" y1="62" y2="62" style="stroke:#bbf7d0;stroke-width:1"/>
          <text x="18" y="57" style="font:400 11px sans-serif">parameter</text>
          <text x="164" y="57" text-anchor="end" style="font:400 10px monospace;fill:#6b7280">Parameter</text>
          <text x="202" y="57" text-anchor="end" style="font:400 10px monospace;fill:#6b7280">0..*</text>
          <g transform="translate(204,48)" aria-label="containment">
            <path d="M6 1 L11 5 L6 9 L1 5 Z" style="fill:#1f2937;stroke:none"/>
          </g>
        </g>
      </g>
      <g class="dv-node dv-c_65263248" transform="translate(42,210)">
        <rect class="dv-frame" x="0" y="0" width="220" height="36" rx="4" ry="4"/>
        <defs>
          <clipPath id="dv-clip-c_65263248">
            <rect x="0" y="0" width="220" height="36" rx="4" ry="4"/>
          </clipPath>
        </defs>
        <g clip-path="url(#dv-clip-c_65263248)">
          <rect class="dv-title-bar" x="0" y="0" width="220" height="28" rx="4" ry="4" style="fill:#1e3a8a"/>
          <rect x="0" y="24" width="220" height="4" style="fill:#1e3a8a"/>
          <g transform="translate(10,8)">
            <rect x="1" y="1" width="10" height="10" style="fill:none;stroke:#f9fafb;stroke-width:1"/>
            <line x1="1" y1="5" x2="11" y2="5" style="stroke:#f9fafb;stroke-width:0.8"/>
          </g>
          <text x="28" y="12" style="font:400 10px sans-serif;fill:#e5e7eb">Class</text>
          <text class="dv-title" x="28" y="23" style="font:600 13px sans-serif;fill:#f9fafb">Interface</text>
        </g>
      </g>
      <g class="dv-node dv-c_6816b0cb" transform="translate(316,221)">
        <rect class="dv-frame" x="0" y="0" width="239.50" height="80" rx="4" ry="4"/>
        <defs>
          <clipPath id="dv-clip-c_6816b0cb">
            <rect x="0" y="0" width="239.50" height="80" rx="4" ry="4"/>
          </clipPath>
        </defs>
        <g clip-path="url(#dv-clip-c_6816b0cb)">
          <rect class="dv-title-bar" x="0" y="0" width="239.50" height="28" rx="4" ry="4" style="fill:#1e3a8a"/>
          <rect x="0" y="24" width="239.50" height="4" style="fill:#1e3a8a"/>
          <g transform="translate(10,8)">
            <rect x="1" y="1" width="10" height="10" style="fill:none;stroke:#f9fafb;stroke-width:1"/>
            <line x1="1" y1="5" x2="11" y2="5" style="stroke:#f9fafb;stroke-width:0.8"/>
          </g>
          <text x="28" y="12" style="font:400 10px sans-serif;fill:#e5e7eb">Class</text>
          <text class="dv-title" x="28" y="23" style="font:600 13px sans-serif;fill:#f9fafb">Method</text>
          <rect x="1" y="28" width="237.50" height="16" style="fill:#bbf7d0"/>
          <text x="10" y="39" style="font:600 9.0px sans-serif;fill:#374151;letter-spacing:0.5px">REFERENCES</text>
          <rect x="1" y="44" width="237.50" height="18" style="fill:#f0fdf4"/>
          <line x1="1" x2="238.50" y1="62" y2="62" style="stroke:#bbf7d0;stroke-width:1"/>
          <text x="18" y="57" style="font:400 11px sans-serif">body</text>
          <text x="183.50" y="57" text-anchor="end" style="font:400 10px monospace;fill:#6b7280">ProcedureExpression</text>
          <text x="221.50" y="57" text-anchor="end" style="font:400 10px monospace;fill:#6b7280">0..1</text>
          <g transform="translate(223.50,48)" aria-label="containment">
            <path d="M6 1 L11 5 L6 9 L1 5 Z" style="fill:#1f2937;stroke:none"/>
          </g>
          <rect x="1" y="62" width="237.50" height="18" style="fill:#f0fdf4"/>
          <line x1="1" x2="238.50" y1="80" y2="80" style="stroke:#bbf7d0;stroke-width:1"/>
          <text x="18" y="75" style="font:400 11px sans-serif">specification</text>
          <text x="183.50" y="75" text-anchor="end" style="font:400 10px monospace;fill:#6b7280">Operation</text>
          <text x="221.50" y="75" text-anchor="end" style="font:400 10px monospace;fill:#6b7280">1..1</text>
          <g transform="translate(223.50,66)" aria-label="reference">
            <path d="M3 1 L9 5 L3 9" style="fill:none;stroke:#1f2937;stroke-width:1.4;stroke-linecap:round;stroke-linejoin:round"/>
          </g>
        </g>
      </g>
      <g class="dv-node dv-c_2b284acc" transform="translate(58,72)">
        <rect class="dv-frame" x="0" y="0" width="220" height="114" rx="4" ry="4"/>
        <defs>
          <clipPath id="dv-clip-c_2b284acc">
            <rect x="0" y="0" width="220" height="114" rx="4" ry="4"/>
          </clipPath>
        </defs>
        <g clip-path="url(#dv-clip-c_2b284acc)">
          <rect class="dv-title-bar" x="0" y="0" width="220" height="28" rx="4" ry="4" style="fill:#1e3a8a"/>
          <rect x="0" y="24" width="220" height="4" style="fill:#1e3a8a"/>
          <g transform="translate(10,8)">
            <rect x="1" y="1" width="10" height="10" style="fill:none;stroke:#f9fafb;stroke-width:1"/>
            <line x1="1" y1="5" x2="11" y2="5" style="stroke:#f9fafb;stroke-width:0.8"/>
          </g>
          <text x="28" y="12" style="font:400 10px sans-serif;fill:#e5e7eb">Class</text>
          <text class="dv-title" x="28" y="23" style="font:600 13px sans-serif;fill:#f9fafb">Operation</text>
          <rect x="1" y="28" width="218" height="16" style="fill:#dbeafe"/>
          <text x="10" y="39" style="font:600 9.0px sans-serif;fill:#374151;letter-spacing:0.5px">ATTRIBUTES</text>
          <rect x="1" y="44" width="218" height="18" style="fill:#eff6ff"/>
          <line x1="1" x2="219" y1="62" y2="62" style="stroke:#dbeafe;stroke-width:1"/>
          <text x="18" y="57" style="font:400 11px sans-serif">isAbstract</text>
          <text x="164" y="57" text-anchor="end" style="font:400 10px monospace;fill:#6b7280">Boolean</text>
          <text x="202" y="57" text-anchor="end" style="font:400 10px monospace;fill:#6b7280">0..1</text>
          <rect x="1" y="62" width="218" height="16" style="fill:#bbf7d0"/>
          <text x="10" y="73" style="font:600 9.0px sans-serif;fill:#374151;letter-spacing:0.5px">REFERENCES</text>
          <rect x="1" y="78" width="218" height="18" style="fill:#f0fdf4"/>
          <line x1="1" x2="219" y1="96" y2="96" style="stroke:#bbf7d0;stroke-width:1"/>
          <text x="18" y="91" style="font:400 11px sans-serif">callAction</text>
          <text x="164" y="91" text-anchor="end" style="font:400 10px monospace;fill:#6b7280">CallAction</text>
          <text x="202" y="91" text-anchor="end" style="font:400 10px monospace;fill:#6b7280">0..*</text>
          <g transform="translate(204,82)" aria-label="reference">
            <path d="M3 1 L9 5 L3 9" style="fill:none;stroke:#1f2937;stroke-width:1.4;stroke-linecap:round;stroke-linejoin:round"/>
          </g>
          <rect x="1" y="96" width="218" height="18" style="fill:#f0fdf4"/>
          <line x1="1" x2="219" y1="114" y2="114" style="stroke:#bbf7d0;stroke-width:1"/>
          <text x="18" y="109" style="font:400 11px sans-serif">method</text>
          <text x="164" y="109" text-anchor="end" style="font:400 10px monospace;fill:#6b7280">Method</text>
          <text x="202" y="109" text-anchor="end" style="font:400 10px monospace;fill:#6b7280">0..*</text>
          <g transform="translate(204,100)" aria-label="reference">
            <path d="M3 1 L9 5 L3 9" style="fill:none;stroke:#1f2937;stroke-width:1.4;stroke-linecap:round;stroke-linejoin:round"/>
          </g>
        </g>
      </g>
      <g class="dv-node dv-c_66ee4640" transform="translate(316,325)">
        <rect class="dv-frame" x="0" y="0" width="325" height="150" rx="4" ry="4"/>
        <defs>
          <clipPath id="dv-clip-c_66ee4640">
            <rect x="0" y="0" width="325" height="150" rx="4" ry="4"/>
          </clipPath>
        </defs>
        <g clip-path="url(#dv-clip-c_66ee4640)">
          <rect class="dv-title-bar" x="0" y="0" width="325" height="28" rx="4" ry="4" style="fill:#1e3a8a"/>
          <rect x="0" y="24" width="325" height="4" style="fill:#1e3a8a"/>
          <g transform="translate(10,8)">
            <rect x="1" y="1" width="10" height="10" style="fill:none;stroke:#f9fafb;stroke-width:1"/>
            <line x1="1" y1="5" x2="11" y2="5" style="stroke:#f9fafb;stroke-width:0.8"/>
          </g>
          <text x="28" y="12" style="font:400 10px sans-serif;fill:#e5e7eb">Class</text>
          <text class="dv-title" x="28" y="23" style="font:600 13px sans-serif;fill:#f9fafb">Parameter</text>
          <rect x="1" y="28" width="323" height="16" style="fill:#dbeafe"/>
          <text x="10" y="39" style="font:600 9.0px sans-serif;fill:#374151;letter-spacing:0.5px">ATTRIBUTES</text>
          <rect x="1" y="44" width="323" height="18" style="fill:#eff6ff"/>
          <line x1="1" x2="324" y1="62" y2="62" style="stroke:#dbeafe;stroke-width:1"/>
          <text x="18" y="57" style="font:400 11px sans-serif">kind</text>
          <text x="255" y="57" text-anchor="end" style="font:400 10px monospace;fill:#6b7280">ParameterDirectionKind</text>
          <text x="293" y="57" text-anchor="end" style="font:400 10px monospace;fill:#6b7280">0..1</text>
          <rect x="1" y="62" width="323" height="16" style="fill:#bbf7d0"/>
          <text x="10" y="73" style="font:600 9.0px sans-serif;fill:#374151;letter-spacing:0.5px">REFERENCES</text>
          <rect x="1" y="78" width="323" height="18" style="fill:#f0fdf4"/>
          <line x1="1" x2="324" y1="96" y2="96" style="stroke:#bbf7d0;stroke-width:1"/>
          <text x="18" y="91" style="font:400 11px sans-serif">defaultValue</text>
          <text x="255" y="91" text-anchor="end" style="font:400 10px monospace;fill:#6b7280">Expression</text>
          <text x="293" y="91" text-anchor="end" style="font:400 10px monospace;fill:#6b7280">0..1</text>
          <g transform="translate(309,82)" aria-label="containment">
            <path d="M6 1 L11 5 L6 9 L1 5 Z" style="fill:#1f2937;stroke:none"/>
          </g>
          <rect x="1" y="96" width="323" height="18" style="fill:#f0fdf4"/>
          <line x1="1" x2="324" y1="114" y2="114" style="stroke:#bbf7d0;stroke-width:1"/>
          <text x="18" y="109" style="font:400 11px sans-serif">behavioralFeature</text>
          <text x="255" y="109" text-anchor="end" style="font:400 10px monospace;fill:#6b7280">BehavioralFeature</text>
          <text x="293" y="109" text-anchor="end" style="font:400 10px monospace;fill:#6b7280">0..1</text>
          <g transform="translate(295,100)" aria-label="transient">
            <rect x="0.50" y="0.50" width="9" height="9" rx="1.50" ry="1.50" style="fill:#0891b2;stroke:#374151;stroke-width:0.7"/>
            <text x="5" y="7.50" text-anchor="middle" style="font:700 7px sans-serif;fill:#fff">T</text>
            <title>transient</title>
          </g>
          <g transform="translate(309,100)" aria-label="reference">
            <path d="M3 1 L9 5 L3 9" style="fill:none;stroke:#1f2937;stroke-width:1.4;stroke-linecap:round;stroke-linejoin:round"/>
          </g>
          <rect x="1" y="114" width="323" height="18" style="fill:#f0fdf4"/>
          <line x1="1" x2="324" y1="132" y2="132" style="stroke:#bbf7d0;stroke-width:1"/>
          <text x="18" y="127" style="font:400 11px sans-serif">event</text>
          <text x="255" y="127" text-anchor="end" style="font:400 10px monospace;fill:#6b7280">Event</text>
          <text x="293" y="127" text-anchor="end" style="font:400 10px monospace;fill:#6b7280">0..1</text>
          <g transform="translate(295,118)" aria-label="transient">
            <rect x="0.50" y="0.50" width="9" height="9" rx="1.50" ry="1.50" style="fill:#0891b2;stroke:#374151;stroke-width:0.7"/>
            <text x="5" y="7.50" text-anchor="middle" style="font:700 7px sans-serif;fill:#fff">T</text>
            <title>transient</title>
          </g>
          <g transform="translate(309,118)" aria-label="reference">
            <path d="M3 1 L9 5 L3 9" style="fill:none;stroke:#1f2937;stroke-width:1.4;stroke-linecap:round;stroke-linejoin:round"/>
          </g>
          <rect x="1" y="132" width="323" height="18" style="fill:#f0fdf4"/>
          <line x1="1" x2="324" y1="150" y2="150" style="stroke:#bbf7d0;stroke-width:1"/>
          <text x="18" y="145" style="font:400 11px sans-serif">type</text>
          <text x="255" y="145" text-anchor="end" style="font:400 10px monospace;fill:#6b7280">Classifier</text>
          <text x="293" y="145" text-anchor="end" style="font:400 10px monospace;fill:#6b7280">1..1</text>
          <g transform="translate(309,136)" aria-label="reference">
            <path d="M3 1 L9 5 L3 9" style="fill:none;stroke:#1f2937;stroke-width:1.4;stroke-linecap:round;stroke-linejoin:round"/>
          </g>
        </g>
      </g>
    </g>
    <path class="dv-edge" d="M632,161 L685,161" style="stroke:#374151;"/>
    <path class="dv-edge" d="M455.75,237 L455.75,227 L675,227 L675,216 L799,216 L799,359" style="stroke:#374151;" marker-end="url(#dv-deco-triangle-hollow)"/>
    <path class="dv-edge" d="M188,88 L188,78 L322,78 L322,216 L799,216 L799,359" style="stroke:#374151;" marker-end="url(#dv-deco-triangle-hollow)"/>
    <path class="dv-edge" d="M302,179 L365,179" style="stroke:#374151;"/>
    <path class="dv-edge" d="M302,197 L312,197 L312,312 L332,312" style="stroke:#374151;"/>
    <path class="dv-edge" d="M665,450 L685,450" style="stroke:#374151;"/>
    <path class="dv-edge" d="M665,468 L675,468 L675,536 L685,536" style="stroke:#374151;"/>
  </g>
</svg>
