<?xml version="1.0" encoding="UTF-8"?>
<svg xmlns="http://www.w3.org/2000/svg" width="1029" height="464" viewBox="0 0 1029 464">
  <defs>
    <style type="text/css">
      <![CDATA[
.dv-node rect.dv-frame { fill: #fff; stroke: #374151; stroke-width: 1; }
.dv-node .dv-title { font: 600 13px sans-serif; fill: #111827; }
.dv-node .dv-sub { font: 400 10px sans-serif; fill: #6b7280; }
.dv-edge { fill: none; stroke: #374151; stroke-width: 1.2; }
.dv-edge.fk { stroke: #334155; }
.dv-edge.inherit { stroke: #16a34a; }
.dv-edge.dep { stroke: #6b7280; stroke-dasharray: 4 3; }
.dv-label { font: 400 10px sans-serif; fill: #334155; }
.dv-cardinality { font: 400 10px sans-serif; fill: #1e293b; }
.dv-cardinality-bg { fill: #ffffff; }

]]>
    </style>
    <marker id="dv-arrow" viewBox="0 0 10 10" refX="9" refY="5" markerWidth="7" markerHeight="7" orient="auto-start-reverse">
      <path d="M0,0 L10,5 L0,10 z" fill="#374151"/>
    </marker>
    <marker id="dv-arrow-fk" viewBox="0 0 10 10" refX="9" refY="5" markerWidth="7" markerHeight="7" orient="auto-start-reverse">
      <path d="M0,0 L10,5 L0,10 z" fill="#334155"/>
    </marker>
    <marker id="dv-tri" viewBox="0 0 12 12" refX="11" refY="6" markerWidth="10" markerHeight="10" orient="auto-start-reverse">
      <path d="M0,0 L12,6 L0,12 z" fill="#fff" stroke="#16a34a"/>
    </marker>
    <marker id="dv-deco-open-arrow" viewBox="0 0 12 12" refX="11" refY="6" markerWidth="10" markerHeight="10" orient="auto-start-reverse">
      <path d="M0,0 L12,6 M0,12 L12,6" fill="none" stroke="#374151" stroke-width="1.40"/>
    </marker>
    <marker id="dv-deco-closed-arrow" viewBox="0 0 12 12" refX="11" refY="6" markerWidth="10" markerHeight="10" orient="auto-start-reverse">
      <path d="M0,0 L12,6 L0,12 z" fill="#374151"/>
    </marker>
    <marker id="dv-deco-triangle-hollow" viewBox="0 0 12 12" refX="12" refY="6" markerWidth="6" markerHeight="6" orient="auto-start-reverse">
      <path d="M0,0 L12,6 L0,12 z" fill="#fff" stroke="#374151" stroke-width="1.40"/>
    </marker>
    <marker id="dv-deco-triangle-filled" viewBox="0 0 12 12" refX="12" refY="6" markerWidth="6" markerHeight="6" orient="auto-start-reverse">
      <path d="M0,0 L12,6 L0,12 z" fill="#374151"/>
    </marker>
    <marker id="dv-deco-diamond-hollow" viewBox="0 0 12 12" refX="11" refY="6" markerWidth="12" markerHeight="12" orient="auto-start-reverse">
      <path d="M0,6 L6,0 L12,6 L6,12 z" fill="#fff" stroke="#374151" stroke-width="1.20"/>
    </marker>
    <marker id="dv-deco-diamond-filled" viewBox="0 0 12 12" refX="11" refY="6" markerWidth="12" markerHeight="12" orient="auto-start-reverse">
      <path d="M0,6 L6,0 L12,6 L6,12 z" fill="#374151"/>
    </marker>
    <marker id="dv-deco-crows-foot-many" viewBox="0 0 12 12" refX="11" refY="6" markerWidth="11" markerHeight="11" orient="auto-start-reverse">
      <path d="M12,6 L0,0 M12,6 L0,12 M12,6 L0,6" fill="none" stroke="#374151" stroke-width="1.30"/>
    </marker>
    <marker id="dv-deco-crows-foot-one" viewBox="0 0 12 12" refX="11" refY="6" markerWidth="8" markerHeight="11" orient="auto-start-reverse">
      <path d="M6,0 L6,12" fill="none" stroke="#374151" stroke-width="1.40"/>
    </marker>
    <marker id="dv-deco-crows-foot-many-opt" viewBox="0 0 12 12" refX="11" refY="6" markerWidth="14" markerHeight="11" orient="auto-start-reverse">
      <g>
        <circle cx="9.50" cy="6" r="2" fill="#fff" stroke="#374151" stroke-width="1.20"/>
        <path d="M7,6 L0,0 M7,6 L0,12 M7,6 L0,6" fill="none" stroke="#374151" stroke-width="1.30"/>
      </g>
    </marker>
    <marker id="dv-deco-crows-foot-one-opt" viewBox="0 0 12 12" refX="11" refY="6" markerWidth="12" markerHeight="11" orient="auto-start-reverse">
      <g>
        <circle cx="9.50" cy="6" r="2" fill="#fff" stroke="#374151" stroke-width="1.20"/>
        <path d="M5,0 L5,12" fill="none" stroke="#374151" stroke-width="1.40"/>
      </g>
    </marker>
  </defs>
  <g class="diagramvis-body" transform="translate(-4.0,-4.0)">
    <g class="dv-node dv-pkg_39a809db" transform="translate(20,20)">
      <rect x="0" y="0" width="997" height="432" rx="6" ry="6" style="fill:#fafafa;stroke:#9ca3af;stroke-width:1;stroke-dasharray:5 3"/>
      <rect x="0" y="0" width="393.50" height="42" rx="6" ry="6" style="fill:#ddd6fe;stroke:#7c3aed;stroke-width:1"/>
      <text x="10" y="12" style="font:400 10px sans-serif;fill:#4c1d95;letter-spacing:0.06em">Package</text>
      <text x="10" y="25" style="font:600 12px sans-serif;fill:#4c1d95">cwm.analysis.informationvisualization</text>
      <text x="10" y="38" style="font:400 9px monospace;fill:#6b21a8">http://www.omg.org/spec/CWM/1.1/analysis/informationvisualization</text>
      <g class="dv-node dv-c_51a6af38" transform="translate(36,142)">
        <rect class="dv-frame" x="0" y="0" width="304.50" height="258" rx="4" ry="4"/>
        <defs>
          <clipPath id="dv-clip-c_51a6af38">
            <rect x="0" y="0" width="304.50" height="258" rx="4" ry="4"/>
          </clipPath>
        </defs>
        <g clip-path="url(#dv-clip-c_51a6af38)">
          <rect class="dv-title-bar" x="0" y="0" width="304.50" height="28" rx="4" ry="4" style="fill:#1e3a8a"/>
          <rect x="0" y="24" width="304.50" height="4" style="fill:#1e3a8a"/>
          <g transform="translate(10,8)">
            <rect x="1" y="1" width="10" height="10" style="fill:none;stroke:#f9fafb;stroke-width:1"/>
            <line x1="1" y1="5" x2="11" y2="5" style="stroke:#f9fafb;stroke-width:0.8"/>
          </g>
          <text x="28" y="12" style="font:400 10px sans-serif;fill:#e5e7eb">Class</text>
          <text class="dv-title" x="28" y="23" style="font:600 13px sans-serif;fill:#f9fafb">RenderedObject</text>
          <rect x="1" y="28" width="302.50" height="16" style="fill:#dbeafe"/>
          <text x="10" y="39" style="font:600 9.0px sans-serif;fill:#374151;letter-spacing:0.5px">ATTRIBUTES</text>
          <rect x="1" y="44" width="302.50" height="18" style="fill:#eff6ff"/>
          <line x1="1" x2="303.50" y1="62" y2="62" style="stroke:#dbeafe;stroke-width:1"/>
          <text x="18" y="57" style="font:400 11px sans-serif">action</text>
          <text x="248.50" y="57" text-anchor="end" style="font:400 10px monospace;fill:#6b7280">String</text>
          <text x="286.50" y="57" text-anchor="end" style="font:400 10px monospace;fill:#6b7280">0..1</text>
          <rect x="1" y="62" width="302.50" height="18" style="fill:#eff6ff"/>
          <line x1="1" x2="303.50" y1="80" y2="80" style="stroke:#dbeafe;stroke-width:1"/>
          <text x="18" y="75" style="font:400 11px sans-serif">fileName</text>
          <text x="248.50" y="75" text-anchor="end" style="font:400 10px monospace;fill:#6b7280">String</text>
          <text x="286.50" y="75" text-anchor="end" style="font:400 10px monospace;fill:#6b7280">0..1</text>
          <rect x="1" y="80" width="302.50" height="18" style="fill:#eff6ff"/>
          <line x1="1" x2="303.50" y1="98" y2="98" style="stroke:#dbeafe;stroke-width:1"/>
          <text x="18" y="93" style="font:400 11px sans-serif">type</text>
          <text x="248.50" y="93" text-anchor="end" style="font:400 10px monospace;fill:#6b7280">String</text>
          <text x="286.50" y="93" text-anchor="end" style="font:400 10px monospace;fill:#6b7280">0..1</text>
          <rect x="1" y="98" width="302.50" height="18" style="fill:#eff6ff"/>
          <line x1="1" x2="303.50" y1="116" y2="116" style="stroke:#dbeafe;stroke-width:1"/>
          <text x="18" y="111" style="font:400 11px sans-serif">url</text>
          <text x="248.50" y="111" text-anchor="end" style="font:400 10px monospace;fill:#6b7280">String</text>
          <text x="286.50" y="111" text-anchor="end" style="font:400 10px monospace;fill:#6b7280">0..1</text>
          <rect x="1" y="116" width="302.50" height="16" style="fill:#bbf7d0"/>
          <text x="10" y="127" style="font:600 9.0px sans-serif;fill:#374151;letter-spacing:0.5px">REFERENCES</text>
          <rect x="1" y="132" width="302.50" height="18" style="fill:#f0fdf4"/>
          <line x1="1" x2="303.50" y1="150" y2="150" style="stroke:#bbf7d0;stroke-width:1"/>
          <text x="18" y="145" style="font:400 11px sans-serif">formula</text>
          <text x="248.50" y="145" text-anchor="end" style="font:400 10px monospace;fill:#6b7280">ExpressionNode</text>
          <text x="286.50" y="145" text-anchor="end" style="font:400 10px monospace;fill:#6b7280">0..1</text>
          <g transform="translate(288.50,136)" aria-label="containment">
            <path d="M6 1 L11 5 L6 9 L1 5 Z" style="fill:#1f2937;stroke:none"/>
          </g>
          <rect x="1" y="150" width="302.50" height="18" style="fill:#f0fdf4"/>
          <line x1="1" x2="303.50" y1="168" y2="168" style="stroke:#bbf7d0;stroke-width:1"/>
          <text x="18" y="163" style="font:400 11px sans-serif">composite</text>
          <text x="248.50" y="163" text-anchor="end" style="font:400 10px monospace;fill:#6b7280">RenderedObject</text>
          <text x="286.50" y="163" text-anchor="end" style="font:400 10px monospace;fill:#6b7280">0..*</text>
          <g transform="translate(288.50,154)" aria-label="reference">
            <path d="M3 1 L9 5 L3 9" style="fill:none;stroke:#1f2937;stroke-width:1.4;stroke-linecap:round;stroke-linejoin:round"/>
          </g>
          <rect x="1" y="168" width="302.50" height="18" style="fill:#f0fdf4"/>
          <line x1="1" x2="303.50" y1="186" y2="186" style="stroke:#bbf7d0;stroke-width:1"/>
          <text x="18" y="181" style="font:400 11px sans-serif">component</text>
          <text x="248.50" y="181" text-anchor="end" style="font:400 10px monospace;fill:#6b7280">RenderedObject</text>
          <text x="286.50" y="181" text-anchor="end" style="font:400 10px monospace;fill:#6b7280">0..*</text>
          <g transform="translate(288.50,172)" aria-label="reference">
            <path d="M3 1 L9 5 L3 9" style="fill:none;stroke:#1f2937;stroke-width:1.4;stroke-linecap:round;stroke-linejoin:round"/>
          </g>
          <rect x="1" y="186" width="302.50" height="18" style="fill:#f0fdf4"/>
          <line x1="1" x2="303.50" y1="204" y2="204" style="stroke:#bbf7d0;stroke-width:1"/>
          <text x="18" y="199" style="font:400 11px sans-serif">defaultRendering</text>
          <text x="248.50" y="199" text-anchor="end" style="font:400 10px monospace;fill:#6b7280">Rendering</text>
          <text x="286.50" y="199" text-anchor="end" style="font:400 10px monospace;fill:#6b7280">0..1</text>
          <g transform="translate(288.50,190)" aria-label="reference">
            <path d="M3 1 L9 5 L3 9" style="fill:none;stroke:#1f2937;stroke-width:1.4;stroke-linecap:round;stroke-linejoin:round"/>
          </g>
          <rect x="1" y="204" width="302.50" height="18" style="fill:#f0fdf4"/>
          <line x1="1" x2="303.50" y1="222" y2="222" style="stroke:#bbf7d0;stroke-width:1"/>
          <text x="18" y="217" style="font:400 11px sans-serif">modelElement</text>
          <text x="248.50" y="217" text-anchor="end" style="font:400 10px monospace;fill:#6b7280">ModelElement</text>
          <text x="286.50" y="217" text-anchor="end" style="font:400 10px monospace;fill:#6b7280">0..1</text>
          <g transform="translate(288.50,208)" aria-label="reference">
            <path d="M3 1 L9 5 L3 9" style="fill:none;stroke:#1f2937;stroke-width:1.4;stroke-linecap:round;stroke-linejoin:round"/>
          </g>
          <rect x="1" y="222" width="302.50" height="18" style="fill:#f0fdf4"/>
          <line x1="1" x2="303.50" y1="240" y2="240" style="stroke:#bbf7d0;stroke-width:1"/>
          <text x="18" y="235" style="font:400 11px sans-serif">neighbor</text>
          <text x="248.50" y="235" text-anchor="end" style="font:400 10px monospace;fill:#6b7280">RenderedObject</text>
          <text x="286.50" y="235" text-anchor="end" style="font:400 10px monospace;fill:#6b7280">0..*</text>
          <g transform="translate(288.50,226)" aria-label="reference">
            <path d="M3 1 L9 5 L3 9" style="fill:none;stroke:#1f2937;stroke-width:1.4;stroke-linecap:round;stroke-linejoin:round"/>
          </g>
          <rect x="1" y="240" width="302.50" height="18" style="fill:#f0fdf4"/>
          <line x1="1" x2="303.50" y1="258" y2="258" style="stroke:#bbf7d0;stroke-width:1"/>
          <text x="18" y="253" style="font:400 11px sans-serif">referencingNeighbor</text>
          <text x="248.50" y="253" text-anchor="end" style="font:400 10px monospace;fill:#6b7280">RenderedObject</text>
          <text x="286.50" y="253" text-anchor="end" style="font:400 10px monospace;fill:#6b7280">0..*</text>
          <g transform="translate(288.50,244)" aria-label="reference">
            <path d="M3 1 L9 5 L3 9" style="fill:none;stroke:#1f2937;stroke-width:1.4;stroke-linecap:round;stroke-linejoin:round"/>
          </g>
        </g>
      </g>
      <g class="dv-node dv-c_d866565" transform="translate(751,302)">
        <rect class="dv-frame" x="0" y="0" width="220" height="62" rx="4" ry="4"/>
        <defs>
          <clipPath id="dv-clip-c_d866565">
            <rect x="0" y="0" width="220" height="62" rx="4" ry="4"/>
          </clipPath>
        </defs>
        <g clip-path="url(#dv-clip-c_d866565)">
          <rect class="dv-title-bar" x="0" y="0" width="220" height="28" rx="4" ry="4" style="fill:#1e3a8a"/>
          <rect x="0" y="24" width="220" height="4" style="fill:#1e3a8a"/>
          <g transform="translate(10,8)">
            <rect x="1" y="1" width="10" height="10" style="fill:none;stroke:#f9fafb;stroke-width:1"/>
            <line x1="1" y1="5" x2="11" y2="5" style="stroke:#f9fafb;stroke-width:0.8"/>
          </g>
          <text x="28" y="12" style="font:400 10px sans-serif;fill:#e5e7eb">Class</text>
          <text class="dv-title" x="28" y="23" style="font:600 13px sans-serif;fill:#f9fafb">RenderedObjectSet</text>
          <rect x="1" y="28" width="218" height="16" style="fill:#bbf7d0"/>
          <text x="10" y="39" style="font:600 9.0px sans-serif;fill:#374151;letter-spacing:0.5px">REFERENCES</text>
          <rect x="1" y="44" width="218" height="18" style="fill:#f0fdf4"/>
          <line x1="1" x2="219" y1="62" y2="62" style="stroke:#bbf7d0;stroke-width:1"/>
          <text x="18" y="57" style="font:400 11px sans-serif">rendering</text>
          <text x="164" y="57" text-anchor="end" style="font:400 10px monospace;fill:#6b7280">Rendering</text>
          <text x="202" y="57" text-anchor="end" style="font:400 10px monospace;fill:#6b7280">0..*</text>
          <g transform="translate(204,48)" aria-label="containment">
            <path d="M6 1 L11 5 L6 9 L1 5 Z" style="fill:#1f2937;stroke:none"/>
          </g>
        </g>
      </g>
      <g class="dv-node dv-c_4db11495" transform="translate(378.50,178)">
        <rect class="dv-frame" x="0" y="0" width="344.50" height="186" rx="4" ry="4"/>
        <defs>
          <clipPath id="dv-clip-c_4db11495">
            <rect x="0" y="0" width="344.50" height="186" rx="4" ry="4"/>
          </clipPath>
        </defs>
        <g clip-path="url(#dv-clip-c_4db11495)">
          <rect class="dv-title-bar" x="0" y="0" width="344.50" height="28" rx="4" ry="4" style="fill:#1e3a8a"/>
          <rect x="0" y="24" width="344.50" height="4" style="fill:#1e3a8a"/>
          <g transform="translate(10,8)">
            <rect x="1" y="1" width="10" height="10" style="fill:none;stroke:#f9fafb;stroke-width:1"/>
            <line x1="1" y1="5" x2="11" y2="5" style="stroke:#f9fafb;stroke-width:0.8"/>
          </g>
          <text x="28" y="12" style="font:400 10px sans-serif;fill:#e5e7eb">Class</text>
          <text class="dv-title" x="28" y="23" style="font:600 13px sans-serif;fill:#f9fafb">Rendering</text>
          <rect x="1" y="28" width="342.50" height="16" style="fill:#dbeafe"/>
          <text x="10" y="39" style="font:600 9.0px sans-serif;fill:#374151;letter-spacing:0.5px">ATTRIBUTES</text>
          <rect x="1" y="44" width="342.50" height="18" style="fill:#eff6ff"/>
          <line x1="1" x2="343.50" y1="62" y2="62" style="stroke:#dbeafe;stroke-width:1"/>
          <text x="18" y="57" style="font:400 11px sans-serif">action</text>
          <text x="274.50" y="57" text-anchor="end" style="font:400 10px monospace;fill:#6b7280">String</text>
          <text x="312.50" y="57" text-anchor="end" style="font:400 10px monospace;fill:#6b7280">0..1</text>
          <rect x="1" y="62" width="342.50" height="18" style="fill:#eff6ff"/>
          <line x1="1" x2="343.50" y1="80" y2="80" style="stroke:#dbeafe;stroke-width:1"/>
          <text x="18" y="75" style="font:400 11px sans-serif">fileName</text>
          <text x="274.50" y="75" text-anchor="end" style="font:400 10px monospace;fill:#6b7280">String</text>
          <text x="312.50" y="75" text-anchor="end" style="font:400 10px monospace;fill:#6b7280">0..1</text>
          <rect x="1" y="80" width="342.50" height="18" style="fill:#eff6ff"/>
          <line x1="1" x2="343.50" y1="98" y2="98" style="stroke:#dbeafe;stroke-width:1"/>
          <text x="18" y="93" style="font:400 11px sans-serif">type</text>
          <text x="274.50" y="93" text-anchor="end" style="font:400 10px monospace;fill:#6b7280">String</text>
          <text x="312.50" y="93" text-anchor="end" style="font:400 10px monospace;fill:#6b7280">0..1</text>
          <rect x="1" y="98" width="342.50" height="18" style="fill:#eff6ff"/>
          <line x1="1" x2="343.50" y1="116" y2="116" style="stroke:#dbeafe;stroke-width:1"/>
          <text x="18" y="111" style="font:400 11px sans-serif">url</text>
          <text x="274.50" y="111" text-anchor="end" style="font:400 10px monospace;fill:#6b7280">String</text>
          <text x="312.50" y="111" text-anchor="end" style="font:400 10px monospace;fill:#6b7280">0..1</text>
          <rect x="1" y="116" width="342.50" height="16" style="fill:#bbf7d0"/>
          <text x="10" y="127" style="font:600 9.0px sans-serif;fill:#374151;letter-spacing:0.5px">REFERENCES</text>
          <rect x="1" y="132" width="342.50" height="18" style="fill:#f0fdf4"/>
          <line x1="1" x2="343.50" y1="150" y2="150" style="stroke:#bbf7d0;stroke-width:1"/>
          <text x="18" y="145" style="font:400 11px sans-serif">formula</text>
          <text x="274.50" y="145" text-anchor="end" style="font:400 10px monospace;fill:#6b7280">ExpressionNode</text>
          <text x="312.50" y="145" text-anchor="end" style="font:400 10px monospace;fill:#6b7280">0..1</text>
          <g transform="translate(328.50,136)" aria-label="containment">
            <path d="M6 1 L11 5 L6 9 L1 5 Z" style="fill:#1f2937;stroke:none"/>
          </g>
          <rect x="1" y="150" width="342.50" height="18" style="fill:#f0fdf4"/>
          <line x1="1" x2="343.50" y1="168" y2="168" style="stroke:#bbf7d0;stroke-width:1"/>
          <text x="18" y="163" style="font:400 11px sans-serif">defaultedRenderedObject</text>
          <text x="274.50" y="163" text-anchor="end" style="font:400 10px monospace;fill:#6b7280">RenderedObject</text>
          <text x="312.50" y="163" text-anchor="end" style="font:400 10px monospace;fill:#6b7280">0..*</text>
          <g transform="translate(328.50,154)" aria-label="reference">
            <path d="M3 1 L9 5 L3 9" style="fill:none;stroke:#1f2937;stroke-width:1.4;stroke-linecap:round;stroke-linejoin:round"/>
          </g>
          <rect x="1" y="168" width="342.50" height="18" style="fill:#f0fdf4"/>
          <line x1="1" x2="343.50" y1="186" y2="186" style="stroke:#bbf7d0;stroke-width:1"/>
          <text x="18" y="181" style="font:400 11px sans-serif">renderedObjectSet</text>
          <text x="274.50" y="181" text-anchor="end" style="font:400 10px monospace;fill:#6b7280">RenderedObjectSet</text>
          <text x="312.50" y="181" text-anchor="end" style="font:400 10px monospace;fill:#6b7280">1..1</text>
          <g transform="translate(314.50,172)" aria-label="transient">
            <rect x="0.50" y="0.50" width="9" height="9" rx="1.50" ry="1.50" style="fill:#0891b2;stroke:#374151;stroke-width:0.7"/>
            <text x="5" y="7.50" text-anchor="middle" style="font:700 7px sans-serif;fill:#fff">T</text>
            <title>transient</title>
          </g>
          <g transform="translate(328.50,172)" aria-label="reference">
            <path d="M3 1 L9 5 L3 9" style="fill:none;stroke:#1f2937;stroke-width:1.4;stroke-linecap:round;stroke-linejoin:round"/>
          </g>
        </g>
      </g>
      <g class="dv-node dv-c_349e6ca8" transform="translate(78.25,72)">
        <rect class="dv-frame" x="0" y="0" width="220" height="36" rx="4" ry="4"/>
        <defs>
          <clipPath id="dv-clip-c_349e6ca8">
            <rect x="0" y="0" width="220" height="36" rx="4" ry="4"/>
          </clipPath>
        </defs>
        <g clip-path="url(#dv-clip-c_349e6ca8)">
          <rect class="dv-title-bar" x="0" y="0" width="220" height="28" rx="4" ry="4" style="fill:#1e3a8a"/>
          <rect x="0" y="24" width="220" height="4" style="fill:#1e3a8a"/>
          <g transform="translate(10,8)">
            <rect x="1" y="1" width="10" height="10" style="fill:none;stroke:#f9fafb;stroke-width:1"/>
            <line x1="1" y1="5" x2="11" y2="5" style="stroke:#f9fafb;stroke-width:0.8"/>
          </g>
          <text x="28" y="12" style="font:400 10px sans-serif;fill:#e5e7eb">Class</text>
          <text class="dv-title" x="28" y="23" style="font:600 13px sans-serif;fill:#f9fafb">XSLRendering</text>
        </g>
      </g>
    </g>
    <path class="dv-edge" d="M364.50,339 L374.50,339 L374.50,148 L42,148 L42,321 L52,321" style="stroke:#374151;"/>
    <path class="dv-edge" d="M364.50,357 L394.50,357" style="stroke:#374151;"/>
    <path class="dv-edge" d="M364.50,393 L374.50,393 L374.50,430 L42,430 L42,411 L52,411" style="stroke:#374151;"/>
    <path class="dv-edge" d="M747,375 L767,375" style="stroke:#374151;"/>
    <path class="dv-edge" d="M208.25,88 L208.25,78 L570.75,78 L570.75,194" style="stroke:#374151;" marker-end="url(#dv-deco-triangle-hollow)"/>
  </g>
</svg>
