<?xml version="1.0" encoding="UTF-8"?>
<svg xmlns="http://www.w3.org/2000/svg" width="601.40" height="390" viewBox="0 0 601.40 390">
  <defs>
    <style type="text/css">
      <![CDATA[
.dv-node rect.dv-frame { fill: #fff; stroke: #374151; stroke-width: 1; }
.dv-node .dv-title { font: 600 13px sans-serif; fill: #111827; }
.dv-node .dv-sub { font: 400 10px sans-serif; fill: #6b7280; }
.dv-edge { fill: none; stroke: #374151; stroke-width: 1.2; }
.dv-edge.fk { stroke: #334155; }
.dv-edge.inherit { stroke: #16a34a; }
.dv-edge.dep { stroke: #6b7280; stroke-dasharray: 4 3; }
.dv-label { font: 400 10px sans-serif; fill: #334155; }
.dv-cardinality { font: 400 10px sans-serif; fill: #1e293b; }
.dv-cardinality-bg { fill: #ffffff; }

]]>
    </style>
    <marker id="dv-arrow" viewBox="0 0 10 10" refX="9" refY="5" markerWidth="7" markerHeight="7" orient="auto-start-reverse">
      <path d="M0,0 L10,5 L0,10 z" fill="#374151"/>
    </marker>
    <marker id="dv-arrow-fk" viewBox="0 0 10 10" refX="9" refY="5" markerWidth="7" markerHeight="7" orient="auto-start-reverse">
      <path d="M0,0 L10,5 L0,10 z" fill="#334155"/>
    </marker>
    <marker id="dv-tri" viewBox="0 0 12 12" refX="11" refY="6" markerWidth="10" markerHeight="10" orient="auto-start-reverse">
      <path d="M0,0 L12,6 L0,12 z" fill="#fff" stroke="#16a34a"/>
    </marker>
    <marker id="dv-deco-open-arrow" viewBox="0 0 12 12" refX="11" refY="6" markerWidth="10" markerHeight="10" orient="auto-start-reverse">
      <path d="M0,0 L12,6 M0,12 L12,6" fill="none" stroke="#374151" stroke-width="1.40"/>
    </marker>
    <marker id="dv-deco-closed-arrow" viewBox="0 0 12 12" refX="11" refY="6" markerWidth="10" markerHeight="10" orient="auto-start-reverse">
      <path d="M0,0 L12,6 L0,12 z" fill="#374151"/>
    </marker>
    <marker id="dv-deco-triangle-hollow" viewBox="0 0 12 12" refX="12" refY="6" markerWidth="6" markerHeight="6" orient="auto-start-reverse">
      <path d="M0,0 L12,6 L0,12 z" fill="#fff" stroke="#374151" stroke-width="1.40"/>
    </marker>
    <marker id="dv-deco-triangle-filled" viewBox="0 0 12 12" refX="12" refY="6" markerWidth="6" markerHeight="6" orient="auto-start-reverse">
      <path d="M0,0 L12,6 L0,12 z" fill="#374151"/>
    </marker>
    <marker id="dv-deco-diamond-hollow" viewBox="0 0 12 12" refX="11" refY="6" markerWidth="12" markerHeight="12" orient="auto-start-reverse">
      <path d="M0,6 L6,0 L12,6 L6,12 z" fill="#fff" stroke="#374151" stroke-width="1.20"/>
    </marker>
    <marker id="dv-deco-diamond-filled" viewBox="0 0 12 12" refX="11" refY="6" markerWidth="12" markerHeight="12" orient="auto-start-reverse">
      <path d="M0,6 L6,0 L12,6 L6,12 z" fill="#374151"/>
    </marker>
    <marker id="dv-deco-crows-foot-many" viewBox="0 0 12 12" refX="11" refY="6" markerWidth="11" markerHeight="11" orient="auto-start-reverse">
      <path d="M12,6 L0,0 M12,6 L0,12 M12,6 L0,6" fill="none" stroke="#374151" stroke-width="1.30"/>
    </marker>
    <marker id="dv-deco-crows-foot-one" viewBox="0 0 12 12" refX="11" refY="6" markerWidth="8" markerHeight="11" orient="auto-start-reverse">
      <path d="M6,0 L6,12" fill="none" stroke="#374151" stroke-width="1.40"/>
    </marker>
    <marker id="dv-deco-crows-foot-many-opt" viewBox="0 0 12 12" refX="11" refY="6" markerWidth="14" markerHeight="11" orient="auto-start-reverse">
      <g>
        <circle cx="9.50" cy="6" r="2" fill="#fff" stroke="#374151" stroke-width="1.20"/>
        <path d="M7,6 L0,0 M7,6 L0,12 M7,6 L0,6" fill="none" stroke="#374151" stroke-width="1.30"/>
      </g>
    </marker>
    <marker id="dv-deco-crows-foot-one-opt" viewBox="0 0 12 12" refX="11" refY="6" markerWidth="12" markerHeight="11" orient="auto-start-reverse">
      <g>
        <circle cx="9.50" cy="6" r="2" fill="#fff" stroke="#374151" stroke-width="1.20"/>
        <path d="M5,0 L5,12" fill="none" stroke="#374151" stroke-width="1.40"/>
      </g>
    </marker>
  </defs>
  <g class="diagramvis-body" transform="translate(-4.0,-4.0)">
    <g class="dv-node dv-schema_2a32fb6" transform="translate(20,20)">
      <rect x="0" y="0" width="569.40" height="358" rx="6" ry="6" style="fill:#fafafa;stroke:#9ca3af;stroke-width:1;stroke-dasharray:5 3"/>
      <rect x="0" y="0" width="120" height="32" rx="6" ry="6" style="fill:#1f2937;stroke:none"/>
      <circle cx="16" cy="16" r="10" style="fill:#ffffff;fill-opacity:0.18;stroke:#ffffff;stroke-opacity:0.6;stroke-width:1"/>
      <g transform="translate(10,10.0)">
        <path d="M1 3h4l1 1h5v6H1zM1 5h10" style="fill:#ffffff;stroke:none"/>
      </g>
      <text x="32" y="13" style="font:600 9px sans-serif;fill:#ffffff;letter-spacing:0.5px;opacity:0.85">SCHEMA</text>
      <text x="32" y="25" style="font:600 13px sans-serif;fill:#f9fafb">payments</text>
      <g class="dv-node dv-dt_6107165" transform="translate(353.40,188)">
        <rect class="dv-frame" x="0" y="0" width="200" height="48" rx="4" ry="4"/>
        <rect x="0" y="0" width="200" height="28" rx="4" ry="4" style="fill:#0e7490"/>
        <rect x="0" y="24" width="200" height="4" style="fill:#0e7490"/>
        <circle cx="14" cy="14" r="9" style="fill:#ffffff;fill-opacity:0.18;stroke:#ffffff;stroke-opacity:0.6;stroke-width:1"/>
        <g transform="translate(8,8.0)">
          <path d="M1 2h10v8H1zM2 4h8M2 6h8M2 8h8" style="fill:#ffffff;stroke:none"/>
        </g>
        <text x="28" y="12" style="font:600 9px sans-serif;fill:#ffffff;letter-spacing:0.5px;opacity:0.85">DISTINCT TYPE</text>
        <text x="28" y="23" style="font:600 13px sans-serif;fill:#ffffff">USD</text>
        <text x="10" y="43" style="font:400 11px sans-serif;fill:#111827">DECIMAL(12,2)</text>
      </g>
      <g class="dv-node dv-dt_164a62bf" transform="translate(353.40,92)">
        <rect class="dv-frame" x="0" y="0" width="200" height="48" rx="4" ry="4"/>
        <rect x="0" y="0" width="200" height="28" rx="4" ry="4" style="fill:#0e7490"/>
        <rect x="0" y="24" width="200" height="4" style="fill:#0e7490"/>
        <circle cx="14" cy="14" r="9" style="fill:#ffffff;fill-opacity:0.18;stroke:#ffffff;stroke-opacity:0.6;stroke-width:1"/>
        <g transform="translate(8,8.0)">
          <path d="M1 2h10v8H1zM2 4h8M2 6h8M2 8h8" style="fill:#ffffff;stroke:none"/>
        </g>
        <text x="28" y="12" style="font:600 9px sans-serif;fill:#ffffff;letter-spacing:0.5px;opacity:0.85">DISTINCT TYPE</text>
        <text x="28" y="23" style="font:600 13px sans-serif;fill:#ffffff">Email</text>
        <text x="10" y="43" style="font:400 11px sans-serif;fill:#111827">VARCHAR(255)</text>
      </g>
      <g class="dv-node dv-t_11ebb1b6" transform="translate(20,230)">
        <rect class="dv-frame" x="0" y="0" width="200" height="112" rx="4" ry="4"/>
        <defs>
          <clipPath id="dv-clip-t_11ebb1b6">
            <rect x="0" y="0" width="200" height="112" rx="4" ry="4"/>
          </clipPath>
        </defs>
        <g clip-path="url(#dv-clip-t_11ebb1b6)">
          <rect class="dv-title-bar" x="0" y="0" width="200" height="32" rx="4" ry="4" style="fill:#1e3a8a"/>
          <rect x="0" y="28" width="200" height="4" style="fill:#1e3a8a"/>
          <circle cx="14" cy="16" r="10" style="fill:#ffffff;fill-opacity:0.18;stroke:#ffffff;stroke-opacity:0.6;stroke-width:1"/>
          <g class="dv-header-icon" transform="translate(8,10)" aria-label="TABLE">
            <rect x="0.50" y="0.50" width="11" height="11" style="fill:none;stroke:#f9fafb;stroke-width:1"/>
            <line x1="0.50" y1="4.50" x2="11.50" y2="4.50" style="stroke:#f9fafb;stroke-width:0.8"/>
            <line x1="0.50" y1="8" x2="11.50" y2="8" style="stroke:#f9fafb;stroke-width:0.8"/>
            <line x1="4" y1="0.50" x2="4" y2="11.50" style="stroke:#f9fafb;stroke-width:0.8"/>
            <line x1="8" y1="0.50" x2="8" y2="11.50" style="stroke:#f9fafb;stroke-width:0.8"/>
          </g>
          <text class="dv-kind" x="28" y="13" style="font:600 9px sans-serif;fill:#ffffff;letter-spacing:0.5px;opacity:0.85">COLUMN SET ▸ TABLE</text>
          <text class="dv-title" x="28" y="25" style="fill:#f9fafb">invoice</text>
          <text class="dv-col-name" x="12" y="46" style="font:11px sans-serif">id</text>
          <text class="dv-col-type" x="186" y="46" text-anchor="end" style="font:400 10px monospace;fill:#6b7280">BIGINT</text>
          <line x1="0" x2="200" y1="52" y2="52" style="stroke:#e5e7eb;stroke-width:1"/>
          <text class="dv-col-name" x="12" y="66" style="font:11px sans-serif">billed_to</text>
          <text class="dv-col-type" x="186" y="66" text-anchor="end" style="font:400 10px monospace;fill:#6b7280">Email</text>
          <line x1="0" x2="200" y1="72" y2="72" style="stroke:#e5e7eb;stroke-width:1"/>
          <text class="dv-col-name" x="12" y="86" style="font:11px sans-serif">total</text>
          <text class="dv-col-type" x="186" y="86" text-anchor="end" style="font:400 10px monospace;fill:#6b7280">USD</text>
          <line x1="0" x2="200" y1="92" y2="92" style="stroke:#e5e7eb;stroke-width:1"/>
          <text class="dv-col-name" x="12" y="106" style="font:11px sans-serif">tax</text>
          <text class="dv-col-type" x="186" y="106" text-anchor="end" style="font:400 10px monospace;fill:#6b7280">USD</text>
          <line x1="0" x2="200" y1="112" y2="112" style="stroke:#e5e7eb;stroke-width:1"/>
        </g>
      </g>
      <g class="dv-node dv-t_aaee2a2" transform="translate(20,138)">
        <rect class="dv-frame" x="0" y="0" width="200" height="72" rx="4" ry="4"/>
        <defs>
          <clipPath id="dv-clip-t_aaee2a2">
            <rect x="0" y="0" width="200" height="72" rx="4" ry="4"/>
          </clipPath>
        </defs>
        <g clip-path="url(#dv-clip-t_aaee2a2)">
          <rect class="dv-title-bar" x="0" y="0" width="200" height="32" rx="4" ry="4" style="fill:#1e3a8a"/>
          <rect x="0" y="28" width="200" height="4" style="fill:#1e3a8a"/>
          <circle cx="14" cy="16" r="10" style="fill:#ffffff;fill-opacity:0.18;stroke:#ffffff;stroke-opacity:0.6;stroke-width:1"/>
          <g class="dv-header-icon" transform="translate(8,10)" aria-label="TABLE">
            <rect x="0.50" y="0.50" width="11" height="11" style="fill:none;stroke:#f9fafb;stroke-width:1"/>
            <line x1="0.50" y1="4.50" x2="11.50" y2="4.50" style="stroke:#f9fafb;stroke-width:0.8"/>
            <line x1="0.50" y1="8" x2="11.50" y2="8" style="stroke:#f9fafb;stroke-width:0.8"/>
            <line x1="4" y1="0.50" x2="4" y2="11.50" style="stroke:#f9fafb;stroke-width:0.8"/>
            <line x1="8" y1="0.50" x2="8" y2="11.50" style="stroke:#f9fafb;stroke-width:0.8"/>
          </g>
          <text class="dv-kind" x="28" y="13" style="font:600 9px sans-serif;fill:#ffffff;letter-spacing:0.5px;opacity:0.85">COLUMN SET ▸ TABLE</text>
          <text class="dv-title" x="28" y="25" style="fill:#f9fafb">refund</text>
          <text class="dv-col-name" x="12" y="46" style="font:11px sans-serif">id</text>
          <text class="dv-col-type" x="186" y="46" text-anchor="end" style="font:400 10px monospace;fill:#6b7280">BIGINT</text>
          <line x1="0" x2="200" y1="52" y2="52" style="stroke:#e5e7eb;stroke-width:1"/>
          <text class="dv-col-name" x="12" y="66" style="font:11px sans-serif">amount</text>
          <text class="dv-col-type" x="186" y="66" text-anchor="end" style="font:400 10px monospace;fill:#6b7280">USD</text>
          <line x1="0" x2="200" y1="72" y2="72" style="stroke:#e5e7eb;stroke-width:1"/>
        </g>
      </g>
      <g class="dv-node dv-t_f3021cb" transform="translate(20,46)">
        <rect class="dv-frame" x="0" y="0" width="200" height="72" rx="4" ry="4"/>
        <defs>
          <clipPath id="dv-clip-t_f3021cb">
            <rect x="0" y="0" width="200" height="72" rx="4" ry="4"/>
          </clipPath>
        </defs>
        <g clip-path="url(#dv-clip-t_f3021cb)">
          <rect class="dv-title-bar" x="0" y="0" width="200" height="32" rx="4" ry="4" style="fill:#1e3a8a"/>
          <rect x="0" y="28" width="200" height="4" style="fill:#1e3a8a"/>
          <circle cx="14" cy="16" r="10" style="fill:#ffffff;fill-opacity:0.18;stroke:#ffffff;stroke-opacity:0.6;stroke-width:1"/>
          <g class="dv-header-icon" transform="translate(8,10)" aria-label="TABLE">
            <rect x="0.50" y="0.50" width="11" height="11" style="fill:none;stroke:#f9fafb;stroke-width:1"/>
            <line x1="0.50" y1="4.50" x2="11.50" y2="4.50" style="stroke:#f9fafb;stroke-width:0.8"/>
            <line x1="0.50" y1="8" x2="11.50" y2="8" style="stroke:#f9fafb;stroke-width:0.8"/>
            <line x1="4" y1="0.50" x2="4" y2="11.50" style="stroke:#f9fafb;stroke-width:0.8"/>
            <line x1="8" y1="0.50" x2="8" y2="11.50" style="stroke:#f9fafb;stroke-width:0.8"/>
          </g>
          <text class="dv-kind" x="28" y="13" style="font:600 9px sans-serif;fill:#ffffff;letter-spacing:0.5px;opacity:0.85">COLUMN SET ▸ TABLE</text>
          <text class="dv-title" x="28" y="25" style="fill:#f9fafb">customer</text>
          <text class="dv-col-name" x="12" y="46" style="font:11px sans-serif">id</text>
          <text class="dv-col-type" x="186" y="46" text-anchor="end" style="font:400 10px monospace;fill:#6b7280">BIGINT</text>
          <line x1="0" x2="200" y1="52" y2="52" style="stroke:#e5e7eb;stroke-width:1"/>
          <text class="dv-col-name" x="12" y="66" style="font:11px sans-serif">primary_email</text>
          <text class="dv-col-type" x="186" y="66" text-anchor="end" style="font:400 10px monospace;fill:#6b7280">Email</text>
          <line x1="0" x2="200" y1="72" y2="72" style="stroke:#e5e7eb;stroke-width:1"/>
        </g>
      </g>
    </g>
    <path class="dv-edge" d="M244,312 L254,312 L254,154 L353.40,154 L353.40,144 L373.40,144" style="stroke-dasharray:4 3;" marker-end="url(#dv-deco-closed-arrow)"/>
    <text class="dv-label" x="277.60" y="167" style="fill:#6b7280">billed_to</text>
    <path class="dv-edge" d="M244,332 L353.40,332 L353.40,232 L373.40,232" style="stroke-dasharray:4 3;" marker-end="url(#dv-deco-closed-arrow)"/>
    <text class="dv-label" x="289.20" y="327" style="fill:#6b7280">total</text>
    <path class="dv-edge" d="M244,352 L254,352 L254,343 L363.40,343 L363.40,244 L373.40,244" style="stroke-dasharray:4 3;" marker-end="url(#dv-deco-closed-arrow)"/>
    <text class="dv-label" x="295" y="356" style="fill:#6b7280">tax</text>
    <path class="dv-edge" d="M244,220 L373.40,220" style="stroke-dasharray:4 3;" marker-end="url(#dv-deco-closed-arrow)"/>
    <text class="dv-label" x="286.30" y="233" style="fill:#6b7280">amount</text>
    <path class="dv-edge" d="M244,128 L373.40,128" style="stroke-dasharray:4 3;" marker-end="url(#dv-deco-closed-arrow)"/>
    <text class="dv-label" x="266" y="141" style="fill:#6b7280">primary_email</text>
  </g>
</svg>
