<?xml version="1.0" encoding="UTF-8"?>
<svg xmlns="http://www.w3.org/2000/svg" width="525" height="976" viewBox="0 0 525 976">
  <defs>
    <style type="text/css">
      <![CDATA[
.dv-node rect.dv-frame { fill: #fff; stroke: #374151; stroke-width: 1; }
.dv-node .dv-title { font: 600 13px sans-serif; fill: #111827; }
.dv-node .dv-sub { font: 400 10px sans-serif; fill: #6b7280; }
.dv-edge { fill: none; stroke: #374151; stroke-width: 1.2; }
.dv-edge.fk { stroke: #334155; }
.dv-edge.inherit { stroke: #16a34a; }
.dv-edge.dep { stroke: #6b7280; stroke-dasharray: 4 3; }
.dv-label { font: 400 10px sans-serif; fill: #334155; }
.dv-cardinality { font: 400 10px sans-serif; fill: #1e293b; }
.dv-cardinality-bg { fill: #ffffff; }

]]>
    </style>
    <marker id="dv-arrow" viewBox="0 0 10 10" refX="9" refY="5" markerWidth="7" markerHeight="7" orient="auto-start-reverse">
      <path d="M0,0 L10,5 L0,10 z" fill="#374151"/>
    </marker>
    <marker id="dv-arrow-fk" viewBox="0 0 10 10" refX="9" refY="5" markerWidth="7" markerHeight="7" orient="auto-start-reverse">
      <path d="M0,0 L10,5 L0,10 z" fill="#334155"/>
    </marker>
    <marker id="dv-tri" viewBox="0 0 12 12" refX="11" refY="6" markerWidth="10" markerHeight="10" orient="auto-start-reverse">
      <path d="M0,0 L12,6 L0,12 z" fill="#fff" stroke="#16a34a"/>
    </marker>
    <marker id="dv-deco-open-arrow" viewBox="0 0 12 12" refX="11" refY="6" markerWidth="10" markerHeight="10" orient="auto-start-reverse">
      <path d="M0,0 L12,6 M0,12 L12,6" fill="none" stroke="#374151" stroke-width="1.40"/>
    </marker>
    <marker id="dv-deco-closed-arrow" viewBox="0 0 12 12" refX="11" refY="6" markerWidth="10" markerHeight="10" orient="auto-start-reverse">
      <path d="M0,0 L12,6 L0,12 z" fill="#374151"/>
    </marker>
    <marker id="dv-deco-triangle-hollow" viewBox="0 0 12 12" refX="12" refY="6" markerWidth="6" markerHeight="6" orient="auto-start-reverse">
      <path d="M0,0 L12,6 L0,12 z" fill="#fff" stroke="#374151" stroke-width="1.40"/>
    </marker>
    <marker id="dv-deco-triangle-filled" viewBox="0 0 12 12" refX="12" refY="6" markerWidth="6" markerHeight="6" orient="auto-start-reverse">
      <path d="M0,0 L12,6 L0,12 z" fill="#374151"/>
    </marker>
    <marker id="dv-deco-diamond-hollow" viewBox="0 0 12 12" refX="11" refY="6" markerWidth="12" markerHeight="12" orient="auto-start-reverse">
      <path d="M0,6 L6,0 L12,6 L6,12 z" fill="#fff" stroke="#374151" stroke-width="1.20"/>
    </marker>
    <marker id="dv-deco-diamond-filled" viewBox="0 0 12 12" refX="11" refY="6" markerWidth="12" markerHeight="12" orient="auto-start-reverse">
      <path d="M0,6 L6,0 L12,6 L6,12 z" fill="#374151"/>
    </marker>
    <marker id="dv-deco-crows-foot-many" viewBox="0 0 12 12" refX="11" refY="6" markerWidth="11" markerHeight="11" orient="auto-start-reverse">
      <path d="M12,6 L0,0 M12,6 L0,12 M12,6 L0,6" fill="none" stroke="#374151" stroke-width="1.30"/>
    </marker>
    <marker id="dv-deco-crows-foot-one" viewBox="0 0 12 12" refX="11" refY="6" markerWidth="8" markerHeight="11" orient="auto-start-reverse">
      <path d="M6,0 L6,12" fill="none" stroke="#374151" stroke-width="1.40"/>
    </marker>
    <marker id="dv-deco-crows-foot-many-opt" viewBox="0 0 12 12" refX="11" refY="6" markerWidth="14" markerHeight="11" orient="auto-start-reverse">
      <g>
        <circle cx="9.50" cy="6" r="2" fill="#fff" stroke="#374151" stroke-width="1.20"/>
        <path d="M7,6 L0,0 M7,6 L0,12 M7,6 L0,6" fill="none" stroke="#374151" stroke-width="1.30"/>
      </g>
    </marker>
    <marker id="dv-deco-crows-foot-one-opt" viewBox="0 0 12 12" refX="11" refY="6" markerWidth="12" markerHeight="11" orient="auto-start-reverse">
      <g>
        <circle cx="9.50" cy="6" r="2" fill="#fff" stroke="#374151" stroke-width="1.20"/>
        <path d="M5,0 L5,12" fill="none" stroke="#374151" stroke-width="1.40"/>
      </g>
    </marker>
  </defs>
  <g class="diagramvis-body" transform="translate(-4.0,-4.0)">
    <g class="dv-node dv-pkg_105c253a" transform="translate(20,20)">
      <rect x="0" y="0" width="493" height="944" rx="6" ry="6" style="fill:#fafafa;stroke:#9ca3af;stroke-width:1;stroke-dasharray:5 3"/>
      <rect x="0" y="0" width="377" height="42" rx="6" ry="6" style="fill:#ddd6fe;stroke:#7c3aed;stroke-width:1"/>
      <text x="10" y="12" style="font:400 10px sans-serif;fill:#4c1d95;letter-spacing:0.06em">Package</text>
      <text x="10" y="25" style="font:600 12px sans-serif;fill:#4c1d95">cwm.analysis.datamining.clustering</text>
      <text x="10" y="38" style="font:400 9px monospace;fill:#6b21a8">http://www.omg.org/spec/CWM/1.1/analysis/datamining/clustering</text>
      <g class="dv-node dv-pkg_enum_1de3a67e" transform="translate(108.75,214)">
        <rect x="0" y="0" width="275.50" height="570" rx="6" ry="6" style="fill:#fafafa;stroke:#9ca3af;stroke-width:1;stroke-dasharray:5 3"/>
        <rect x="0" y="0" width="150" height="32" rx="6" ry="6" style="fill:#1f2937;stroke:none"/>
        <circle cx="16" cy="16" r="10" style="fill:#ffffff;fill-opacity:0.18;stroke:#ffffff;stroke-opacity:0.6;stroke-width:1"/>
        <g transform="translate(10,10.0)">
          <path d="M1 2h10v8H1zM2 4h8M2 6h8M2 8h8" style="fill:#ffffff;stroke:none"/>
        </g>
        <text x="32" y="13" style="font:600 9px sans-serif;fill:#ffffff;letter-spacing:0.5px;opacity:0.85">ENUMERATIONS</text>
        <text x="32" y="25" style="font:600 13px sans-serif;fill:#f9fafb">enumerations</text>
        <g class="dv-node dv-e_38648de6" transform="translate(27.75,190)">
          <rect class="dv-frame" x="0" y="0" width="220" height="206" rx="4" ry="4"/>
          <defs>
            <clipPath id="dv-clip-e_38648de6">
              <rect x="0" y="0" width="220" height="206" rx="4" ry="4"/>
            </clipPath>
          </defs>
          <g clip-path="url(#dv-clip-e_38648de6)">
            <rect class="dv-title-bar" x="0" y="0" width="220" height="28" rx="4" ry="4" style="fill:#7c2d12"/>
            <rect x="0" y="24" width="220" height="4" style="fill:#7c2d12"/>
            <g transform="translate(10,8)">
              <path d="M6 0 L1 3 L1 9 L6 12 L11 9 L11 3 Z" style="fill:none;stroke:#f9fafb;stroke-width:1"/>
              <circle cx="6" cy="6" r="2" style="fill:#f9fafb"/>
            </g>
            <text x="28" y="12" style="font:400 10px sans-serif;fill:#e5e7eb">Enumeration</text>
            <text class="dv-title" x="28" y="23" style="font:600 13px sans-serif;fill:#f9fafb">AggregationFunction</text>
            <rect x="1" y="28" width="218" height="16" style="fill:#e9d5ff"/>
            <text x="10" y="39" style="font:600 9.0px sans-serif;fill:#374151;letter-spacing:0.5px">LITERALS</text>
            <rect x="1" y="44" width="218" height="18" style="fill:#faf5ff"/>
            <line x1="1" x2="219" y1="62" y2="62" style="stroke:#e9d5ff;stroke-width:1"/>
            <text x="10" y="57" style="font:400 11px sans-serif">euclidean</text>
            <text x="210" y="57" text-anchor="end" style="font:400 10px monospace;fill:#6b7280">0</text>
            <rect x="1" y="62" width="218" height="18" style="fill:#faf5ff"/>
            <line x1="1" x2="219" y1="80" y2="80" style="stroke:#e9d5ff;stroke-width:1"/>
            <text x="10" y="75" style="font:400 11px sans-serif">squaredEuclidean</text>
            <text x="210" y="75" text-anchor="end" style="font:400 10px monospace;fill:#6b7280">1</text>
            <rect x="1" y="80" width="218" height="18" style="fill:#faf5ff"/>
            <line x1="1" x2="219" y1="98" y2="98" style="stroke:#e9d5ff;stroke-width:1"/>
            <text x="10" y="93" style="font:400 11px sans-serif">chebychev</text>
            <text x="210" y="93" text-anchor="end" style="font:400 10px monospace;fill:#6b7280">2</text>
            <rect x="1" y="98" width="218" height="18" style="fill:#faf5ff"/>
            <line x1="1" x2="219" y1="116" y2="116" style="stroke:#e9d5ff;stroke-width:1"/>
            <text x="10" y="111" style="font:400 11px sans-serif">cityBlock</text>
            <text x="210" y="111" text-anchor="end" style="font:400 10px monospace;fill:#6b7280">3</text>
            <rect x="1" y="116" width="218" height="18" style="fill:#faf5ff"/>
            <line x1="1" x2="219" y1="134" y2="134" style="stroke:#e9d5ff;stroke-width:1"/>
            <text x="10" y="129" style="font:400 11px sans-serif">minkovski</text>
            <text x="210" y="129" text-anchor="end" style="font:400 10px monospace;fill:#6b7280">4</text>
            <rect x="1" y="134" width="218" height="18" style="fill:#faf5ff"/>
            <line x1="1" x2="219" y1="152" y2="152" style="stroke:#e9d5ff;stroke-width:1"/>
            <text x="10" y="147" style="font:400 11px sans-serif">simpleMatching</text>
            <text x="210" y="147" text-anchor="end" style="font:400 10px monospace;fill:#6b7280">5</text>
            <rect x="1" y="152" width="218" height="18" style="fill:#faf5ff"/>
            <line x1="1" x2="219" y1="170" y2="170" style="stroke:#e9d5ff;stroke-width:1"/>
            <text x="10" y="165" style="font:400 11px sans-serif">jaccard</text>
            <text x="210" y="165" text-anchor="end" style="font:400 10px monospace;fill:#6b7280">6</text>
            <rect x="1" y="170" width="218" height="18" style="fill:#faf5ff"/>
            <line x1="1" x2="219" y1="188" y2="188" style="stroke:#e9d5ff;stroke-width:1"/>
            <text x="10" y="183" style="font:400 11px sans-serif">tanimoto</text>
            <text x="210" y="183" text-anchor="end" style="font:400 10px monospace;fill:#6b7280">7</text>
            <rect x="1" y="188" width="218" height="18" style="fill:#faf5ff"/>
            <line x1="1" x2="219" y1="206" y2="206" style="stroke:#e9d5ff;stroke-width:1"/>
            <text x="10" y="201" style="font:400 11px sans-serif">binarySimilarity</text>
            <text x="210" y="201" text-anchor="end" style="font:400 10px monospace;fill:#6b7280">8</text>
          </g>
        </g>
        <g class="dv-node dv-e_27ee8493" transform="translate(20,420)">
          <rect class="dv-frame" x="0" y="0" width="235.50" height="134" rx="4" ry="4"/>
          <defs>
            <clipPath id="dv-clip-e_27ee8493">
              <rect x="0" y="0" width="235.50" height="134" rx="4" ry="4"/>
            </clipPath>
          </defs>
          <g clip-path="url(#dv-clip-e_27ee8493)">
            <rect class="dv-title-bar" x="0" y="0" width="235.50" height="28" rx="4" ry="4" style="fill:#7c2d12"/>
            <rect x="0" y="24" width="235.50" height="4" style="fill:#7c2d12"/>
            <g transform="translate(10,8)">
              <path d="M6 0 L1 3 L1 9 L6 12 L11 9 L11 3 Z" style="fill:none;stroke:#f9fafb;stroke-width:1"/>
              <circle cx="6" cy="6" r="2" style="fill:#f9fafb"/>
            </g>
            <text x="28" y="12" style="font:400 10px sans-serif;fill:#e5e7eb">Enumeration</text>
            <text class="dv-title" x="28" y="23" style="font:600 13px sans-serif;fill:#f9fafb">AttributeComparisonFunction</text>
            <rect x="1" y="28" width="233.50" height="16" style="fill:#e9d5ff"/>
            <text x="10" y="39" style="font:600 9.0px sans-serif;fill:#374151;letter-spacing:0.5px">LITERALS</text>
            <rect x="1" y="44" width="233.50" height="18" style="fill:#faf5ff"/>
            <line x1="1" x2="234.50" y1="62" y2="62" style="stroke:#e9d5ff;stroke-width:1"/>
            <text x="10" y="57" style="font:400 11px sans-serif">absDiff</text>
            <text x="225.50" y="57" text-anchor="end" style="font:400 10px monospace;fill:#6b7280">0</text>
            <rect x="1" y="62" width="233.50" height="18" style="fill:#faf5ff"/>
            <line x1="1" x2="234.50" y1="80" y2="80" style="stroke:#e9d5ff;stroke-width:1"/>
            <text x="10" y="75" style="font:400 11px sans-serif">gaussSim</text>
            <text x="225.50" y="75" text-anchor="end" style="font:400 10px monospace;fill:#6b7280">1</text>
            <rect x="1" y="80" width="233.50" height="18" style="fill:#faf5ff"/>
            <line x1="1" x2="234.50" y1="98" y2="98" style="stroke:#e9d5ff;stroke-width:1"/>
            <text x="10" y="93" style="font:400 11px sans-serif">delta</text>
            <text x="225.50" y="93" text-anchor="end" style="font:400 10px monospace;fill:#6b7280">2</text>
            <rect x="1" y="98" width="233.50" height="18" style="fill:#faf5ff"/>
            <line x1="1" x2="234.50" y1="116" y2="116" style="stroke:#e9d5ff;stroke-width:1"/>
            <text x="10" y="111" style="font:400 11px sans-serif">equal</text>
            <text x="225.50" y="111" text-anchor="end" style="font:400 10px monospace;fill:#6b7280">3</text>
            <rect x="1" y="116" width="233.50" height="18" style="fill:#faf5ff"/>
            <line x1="1" x2="234.50" y1="134" y2="134" style="stroke:#e9d5ff;stroke-width:1"/>
            <text x="10" y="129" style="font:400 11px sans-serif">table</text>
            <text x="225.50" y="129" text-anchor="end" style="font:400 10px monospace;fill:#6b7280">4</text>
          </g>
        </g>
        <g class="dv-node dv-e_ae8aade" transform="translate(27.75,50)">
          <rect class="dv-frame" x="0" y="0" width="220" height="116" rx="4" ry="4"/>
          <defs>
            <clipPath id="dv-clip-e_ae8aade">
              <rect x="0" y="0" width="220" height="116" rx="4" ry="4"/>
            </clipPath>
          </defs>
          <g clip-path="url(#dv-clip-e_ae8aade)">
            <rect class="dv-title-bar" x="0" y="0" width="220" height="28" rx="4" ry="4" style="fill:#7c2d12"/>
            <rect x="0" y="24" width="220" height="4" style="fill:#7c2d12"/>
            <g transform="translate(10,8)">
              <path d="M6 0 L1 3 L1 9 L6 12 L11 9 L11 3 Z" style="fill:none;stroke:#f9fafb;stroke-width:1"/>
              <circle cx="6" cy="6" r="2" style="fill:#f9fafb"/>
            </g>
            <text x="28" y="12" style="font:400 10px sans-serif;fill:#e5e7eb">Enumeration</text>
            <text class="dv-title" x="28" y="23" style="font:600 13px sans-serif;fill:#f9fafb">ClusteringModelCBasis</text>
            <rect x="1" y="28" width="218" height="16" style="fill:#e9d5ff"/>
            <text x="10" y="39" style="font:600 9.0px sans-serif;fill:#374151;letter-spacing:0.5px">LITERALS</text>
            <rect x="1" y="44" width="218" height="18" style="fill:#faf5ff"/>
            <line x1="1" x2="219" y1="62" y2="62" style="stroke:#e9d5ff;stroke-width:1"/>
            <text x="10" y="57" style="font:400 11px sans-serif">centerBased</text>
            <text x="210" y="57" text-anchor="end" style="font:400 10px monospace;fill:#6b7280">0</text>
            <rect x="1" y="62" width="218" height="18" style="fill:#faf5ff"/>
            <line x1="1" x2="219" y1="80" y2="80" style="stroke:#e9d5ff;stroke-width:1"/>
            <text x="10" y="75" style="font:400 11px sans-serif">probabilityBased</text>
            <text x="210" y="75" text-anchor="end" style="font:400 10px monospace;fill:#6b7280">1</text>
            <rect x="1" y="80" width="218" height="18" style="fill:#faf5ff"/>
            <line x1="1" x2="219" y1="98" y2="98" style="stroke:#e9d5ff;stroke-width:1"/>
            <text x="10" y="93" style="font:400 11px sans-serif">partitionBased</text>
            <text x="210" y="93" text-anchor="end" style="font:400 10px monospace;fill:#6b7280">2</text>
            <rect x="1" y="98" width="218" height="18" style="fill:#faf5ff"/>
            <line x1="1" x2="219" y1="116" y2="116" style="stroke:#e9d5ff;stroke-width:1"/>
            <text x="10" y="111" style="font:400 11px sans-serif">aggregationBased</text>
            <text x="210" y="111" text-anchor="end" style="font:400 10px monospace;fill:#6b7280">3</text>
          </g>
        </g>
      </g>
      <g class="dv-node dv-c_350a0ff6" transform="translate(26,808)">
        <rect class="dv-frame" x="0" y="0" width="441" height="114" rx="4" ry="4"/>
        <defs>
          <clipPath id="dv-clip-c_350a0ff6">
            <rect x="0" y="0" width="441" height="114" rx="4" ry="4"/>
          </clipPath>
        </defs>
        <g clip-path="url(#dv-clip-c_350a0ff6)">
          <rect class="dv-title-bar" x="0" y="0" width="441" height="28" rx="4" ry="4" style="fill:#1e3a8a"/>
          <rect x="0" y="24" width="441" height="4" style="fill:#1e3a8a"/>
          <g transform="translate(10,8)">
            <rect x="1" y="1" width="10" height="10" style="fill:none;stroke:#f9fafb;stroke-width:1"/>
            <line x1="1" y1="5" x2="11" y2="5" style="stroke:#f9fafb;stroke-width:0.8"/>
          </g>
          <text x="28" y="12" style="font:400 10px sans-serif;fill:#e5e7eb">Class</text>
          <text class="dv-title" x="28" y="23" style="font:600 13px sans-serif;fill:#f9fafb">ClusteringAttributeUsage</text>
          <rect x="1" y="28" width="439" height="16" style="fill:#dbeafe"/>
          <text x="10" y="39" style="font:600 9.0px sans-serif;fill:#374151;letter-spacing:0.5px">ATTRIBUTES</text>
          <rect x="1" y="44" width="439" height="18" style="fill:#eff6ff"/>
          <line x1="1" x2="440" y1="62" y2="62" style="stroke:#dbeafe;stroke-width:1"/>
          <text x="18" y="57" style="font:400 11px sans-serif">attributeComparisonFunction</text>
          <text x="385" y="57" text-anchor="end" style="font:400 10px monospace;fill:#6b7280">AttributeComparisonFunction</text>
          <text x="423" y="57" text-anchor="end" style="font:400 10px monospace;fill:#6b7280">0..1</text>
          <rect x="1" y="62" width="439" height="18" style="fill:#eff6ff"/>
          <line x1="1" x2="440" y1="80" y2="80" style="stroke:#dbeafe;stroke-width:1"/>
          <text x="18" y="75" style="font:400 11px sans-serif">similarityScale</text>
          <text x="385" y="75" text-anchor="end" style="font:400 10px monospace;fill:#6b7280">Double</text>
          <text x="423" y="75" text-anchor="end" style="font:400 10px monospace;fill:#6b7280">0..1</text>
          <rect x="1" y="80" width="439" height="16" style="fill:#bbf7d0"/>
          <text x="10" y="91" style="font:600 9.0px sans-serif;fill:#374151;letter-spacing:0.5px">REFERENCES</text>
          <rect x="1" y="96" width="439" height="18" style="fill:#f0fdf4"/>
          <line x1="1" x2="440" y1="114" y2="114" style="stroke:#bbf7d0;stroke-width:1"/>
          <text x="18" y="109" style="font:400 11px sans-serif">comparisonMatrix</text>
          <text x="385" y="109" text-anchor="end" style="font:400 10px monospace;fill:#6b7280">CategoryMatrix</text>
          <text x="423" y="109" text-anchor="end" style="font:400 10px monospace;fill:#6b7280">0..1</text>
          <g transform="translate(425,100)" aria-label="reference">
            <path d="M3 1 L9 5 L3 9" style="fill:none;stroke:#1f2937;stroke-width:1.4;stroke-linecap:round;stroke-linejoin:round"/>
          </g>
        </g>
      </g>
      <g class="dv-node dv-c_125ce4b7" transform="translate(72.50,62)">
        <rect class="dv-frame" x="0" y="0" width="348" height="132" rx="4" ry="4"/>
        <defs>
          <clipPath id="dv-clip-c_125ce4b7">
            <rect x="0" y="0" width="348" height="132" rx="4" ry="4"/>
          </clipPath>
        </defs>
        <g clip-path="url(#dv-clip-c_125ce4b7)">
          <rect class="dv-title-bar" x="0" y="0" width="348" height="28" rx="4" ry="4" style="fill:#1e3a8a"/>
          <rect x="0" y="24" width="348" height="4" style="fill:#1e3a8a"/>
          <g transform="translate(10,8)">
            <rect x="1" y="1" width="10" height="10" style="fill:none;stroke:#f9fafb;stroke-width:1"/>
            <line x1="1" y1="5" x2="11" y2="5" style="stroke:#f9fafb;stroke-width:0.8"/>
          </g>
          <text x="28" y="12" style="font:400 10px sans-serif;fill:#e5e7eb">Class</text>
          <text class="dv-title" x="28" y="23" style="font:600 13px sans-serif;fill:#f9fafb">ClusteringFunctionSettings</text>
          <rect x="1" y="28" width="346" height="16" style="fill:#dbeafe"/>
          <text x="10" y="39" style="font:600 9.0px sans-serif;fill:#374151;letter-spacing:0.5px">ATTRIBUTES</text>
          <rect x="1" y="44" width="346" height="18" style="fill:#eff6ff"/>
          <line x1="1" x2="347" y1="62" y2="62" style="stroke:#dbeafe;stroke-width:1"/>
          <text x="18" y="57" style="font:400 11px sans-serif">maxNumberOfClusters</text>
          <text x="281" y="57" text-anchor="end" style="font:400 10px monospace;fill:#6b7280">Integer</text>
          <text x="319" y="57" text-anchor="end" style="font:400 10px monospace;fill:#6b7280">0..1</text>
          <rect x="1" y="62" width="346" height="18" style="fill:#eff6ff"/>
          <line x1="1" x2="347" y1="80" y2="80" style="stroke:#dbeafe;stroke-width:1"/>
          <text x="18" y="75" style="font:400 11px sans-serif">minClusterSize</text>
          <text x="281" y="75" text-anchor="end" style="font:400 10px monospace;fill:#6b7280">Integer</text>
          <text x="319" y="75" text-anchor="end" style="font:400 10px monospace;fill:#6b7280">0..1</text>
          <g transform="translate(326,66)" aria-label="DEFAULT 1">
            <rect x="0.50" y="0.50" width="9" height="9" rx="1.50" ry="1.50" style="fill:#6b7280;stroke:#374151;stroke-width:0.7"/>
            <text x="5" y="7.50" text-anchor="middle" style="font:700 7px sans-serif;fill:#fff">D</text>
            <title>DEFAULT 1</title>
          </g>
          <rect x="1" y="80" width="346" height="18" style="fill:#eff6ff"/>
          <line x1="1" x2="347" y1="98" y2="98" style="stroke:#dbeafe;stroke-width:1"/>
          <text x="18" y="93" style="font:400 11px sans-serif">aggregationFunction</text>
          <text x="281" y="93" text-anchor="end" style="font:400 10px monospace;fill:#6b7280">AggregationFunction</text>
          <text x="319" y="93" text-anchor="end" style="font:400 10px monospace;fill:#6b7280">0..1</text>
          <rect x="1" y="98" width="346" height="16" style="fill:#f3f4f6"/>
          <text x="10" y="109" style="font:600 9.0px sans-serif;fill:#374151;letter-spacing:0.5px">DEFAULTS</text>
          <rect x="1" y="114" width="346" height="18" style="fill:#f9fafb"/>
          <line x1="1" x2="347" y1="132" y2="132" style="stroke:#f3f4f6;stroke-width:1"/>
          <g transform="translate(3,118)" aria-label="DEFAULT 1">
            <rect x="0.50" y="0.50" width="9" height="9" rx="1.50" ry="1.50" style="fill:#6b7280;stroke:#374151;stroke-width:0.7"/>
            <text x="5" y="7.50" text-anchor="middle" style="font:700 7px sans-serif;fill:#fff">D</text>
            <title>DEFAULT 1</title>
          </g>
          <text x="18" y="127" style="font:400 10px monospace;fill:#6b7280">1</text>
          <path d="M339,71 L343,71 L343,123 L339,123" style="fill:none;stroke:#6b7280;stroke-width:1.4;stroke-linecap:round"/>
          <circle cx="339" cy="71" r="1.60" style="fill:#6b7280"/>
          <circle cx="339" cy="123" r="1.60" style="fill:#6b7280"/>
        </g>
      </g>
    </g>
  </g>
</svg>
