<?xml version="1.0" encoding="UTF-8"?>
<svg xmlns="http://www.w3.org/2000/svg" width="1039.50" height="581" viewBox="0 0 1039.50 581">
  <defs>
    <style type="text/css">
      <![CDATA[
.dv-node rect.dv-frame { fill: #fff; stroke: #374151; stroke-width: 1; }
.dv-node .dv-title { font: 600 13px sans-serif; fill: #111827; }
.dv-node .dv-sub { font: 400 10px sans-serif; fill: #6b7280; }
.dv-edge { fill: none; stroke: #374151; stroke-width: 1.2; }
.dv-edge.fk { stroke: #334155; }
.dv-edge.inherit { stroke: #16a34a; }
.dv-edge.dep { stroke: #6b7280; stroke-dasharray: 4 3; }
.dv-label { font: 400 10px sans-serif; fill: #334155; }
.dv-cardinality { font: 400 10px sans-serif; fill: #1e293b; }
.dv-cardinality-bg { fill: #ffffff; }

]]>
    </style>
    <marker id="dv-arrow" viewBox="0 0 10 10" refX="9" refY="5" markerWidth="7" markerHeight="7" orient="auto-start-reverse">
      <path d="M0,0 L10,5 L0,10 z" fill="#374151"/>
    </marker>
    <marker id="dv-arrow-fk" viewBox="0 0 10 10" refX="9" refY="5" markerWidth="7" markerHeight="7" orient="auto-start-reverse">
      <path d="M0,0 L10,5 L0,10 z" fill="#334155"/>
    </marker>
    <marker id="dv-tri" viewBox="0 0 12 12" refX="11" refY="6" markerWidth="10" markerHeight="10" orient="auto-start-reverse">
      <path d="M0,0 L12,6 L0,12 z" fill="#fff" stroke="#16a34a"/>
    </marker>
    <marker id="dv-deco-open-arrow" viewBox="0 0 12 12" refX="11" refY="6" markerWidth="10" markerHeight="10" orient="auto-start-reverse">
      <path d="M0,0 L12,6 M0,12 L12,6" fill="none" stroke="#374151" stroke-width="1.40"/>
    </marker>
    <marker id="dv-deco-closed-arrow" viewBox="0 0 12 12" refX="11" refY="6" markerWidth="10" markerHeight="10" orient="auto-start-reverse">
      <path d="M0,0 L12,6 L0,12 z" fill="#374151"/>
    </marker>
    <marker id="dv-deco-triangle-hollow" viewBox="0 0 12 12" refX="12" refY="6" markerWidth="6" markerHeight="6" orient="auto-start-reverse">
      <path d="M0,0 L12,6 L0,12 z" fill="#fff" stroke="#374151" stroke-width="1.40"/>
    </marker>
    <marker id="dv-deco-triangle-filled" viewBox="0 0 12 12" refX="12" refY="6" markerWidth="6" markerHeight="6" orient="auto-start-reverse">
      <path d="M0,0 L12,6 L0,12 z" fill="#374151"/>
    </marker>
    <marker id="dv-deco-diamond-hollow" viewBox="0 0 12 12" refX="11" refY="6" markerWidth="12" markerHeight="12" orient="auto-start-reverse">
      <path d="M0,6 L6,0 L12,6 L6,12 z" fill="#fff" stroke="#374151" stroke-width="1.20"/>
    </marker>
    <marker id="dv-deco-diamond-filled" viewBox="0 0 12 12" refX="11" refY="6" markerWidth="12" markerHeight="12" orient="auto-start-reverse">
      <path d="M0,6 L6,0 L12,6 L6,12 z" fill="#374151"/>
    </marker>
    <marker id="dv-deco-crows-foot-many" viewBox="0 0 12 12" refX="11" refY="6" markerWidth="11" markerHeight="11" orient="auto-start-reverse">
      <path d="M12,6 L0,0 M12,6 L0,12 M12,6 L0,6" fill="none" stroke="#374151" stroke-width="1.30"/>
    </marker>
    <marker id="dv-deco-crows-foot-one" viewBox="0 0 12 12" refX="11" refY="6" markerWidth="8" markerHeight="11" orient="auto-start-reverse">
      <path d="M6,0 L6,12" fill="none" stroke="#374151" stroke-width="1.40"/>
    </marker>
    <marker id="dv-deco-crows-foot-many-opt" viewBox="0 0 12 12" refX="11" refY="6" markerWidth="14" markerHeight="11" orient="auto-start-reverse">
      <g>
        <circle cx="9.50" cy="6" r="2" fill="#fff" stroke="#374151" stroke-width="1.20"/>
        <path d="M7,6 L0,0 M7,6 L0,12 M7,6 L0,6" fill="none" stroke="#374151" stroke-width="1.30"/>
      </g>
    </marker>
    <marker id="dv-deco-crows-foot-one-opt" viewBox="0 0 12 12" refX="11" refY="6" markerWidth="12" markerHeight="11" orient="auto-start-reverse">
      <g>
        <circle cx="9.50" cy="6" r="2" fill="#fff" stroke="#374151" stroke-width="1.20"/>
        <path d="M5,0 L5,12" fill="none" stroke="#374151" stroke-width="1.40"/>
      </g>
    </marker>
  </defs>
  <g class="diagramvis-body" transform="translate(-4.0,-4.0)">
    <g class="dv-node dv-pkg_44d5a0a8" transform="translate(20,20)">
      <rect x="0" y="0" width="1007.50" height="549" rx="6" ry="6" style="fill:#fafafa;stroke:#9ca3af;stroke-width:1;stroke-dasharray:5 3"/>
      <rect x="0" y="0" width="399" height="42" rx="6" ry="6" style="fill:#ddd6fe;stroke:#7c3aed;stroke-width:1"/>
      <text x="10" y="12" style="font:400 10px sans-serif;fill:#4c1d95;letter-spacing:0.06em">Package</text>
      <text x="10" y="25" style="font:600 12px sans-serif;fill:#4c1d95">cwm.analysis.datamining.classification</text>
      <text x="10" y="38" style="font:400 9px monospace;fill:#6b21a8">http://www.omg.org/spec/CWM/1.1/analysis/datamining/classification</text>
      <g class="dv-node dv-c_3408c95b" transform="translate(81.50,62)">
        <rect class="dv-frame" x="0" y="0" width="220" height="62" rx="4" ry="4"/>
        <defs>
          <clipPath id="dv-clip-c_3408c95b">
            <rect x="0" y="0" width="220" height="62" rx="4" ry="4"/>
          </clipPath>
        </defs>
        <g clip-path="url(#dv-clip-c_3408c95b)">
          <rect class="dv-title-bar" x="0" y="0" width="220" height="28" rx="4" ry="4" style="fill:#1e3a8a"/>
          <rect x="0" y="24" width="220" height="4" style="fill:#1e3a8a"/>
          <g transform="translate(10,8)">
            <rect x="1" y="1" width="10" height="10" style="fill:none;stroke:#f9fafb;stroke-width:1"/>
            <line x1="1" y1="5" x2="11" y2="5" style="stroke:#f9fafb;stroke-width:0.8"/>
          </g>
          <text x="28" y="12" style="font:400 10px sans-serif;fill:#e5e7eb">Class</text>
          <text class="dv-title" x="28" y="23" style="font:600 13px sans-serif;fill:#f9fafb">ApplyTargetValueItem</text>
          <rect x="1" y="28" width="218" height="16" style="fill:#bbf7d0"/>
          <text x="10" y="39" style="font:600 9.0px sans-serif;fill:#374151;letter-spacing:0.5px">REFERENCES</text>
          <rect x="1" y="44" width="218" height="18" style="fill:#f0fdf4"/>
          <line x1="1" x2="219" y1="62" y2="62" style="stroke:#bbf7d0;stroke-width:1"/>
          <text x="18" y="57" style="font:400 11px sans-serif">targetValue</text>
          <text x="164" y="57" text-anchor="end" style="font:400 10px monospace;fill:#6b7280">Category</text>
          <text x="202" y="57" text-anchor="end" style="font:400 10px monospace;fill:#6b7280">1..1</text>
          <g transform="translate(204,48)" aria-label="reference">
            <path d="M3 1 L9 5 L3 9" style="fill:none;stroke:#1f2937;stroke-width:1.4;stroke-linecap:round;stroke-linejoin:round"/>
          </g>
        </g>
      </g>
      <g class="dv-node dv-c_396ea7ab" transform="translate(101,411)">
        <rect class="dv-frame" x="0" y="0" width="246" height="80" rx="4" ry="4"/>
        <defs>
          <clipPath id="dv-clip-c_396ea7ab">
            <rect x="0" y="0" width="246" height="80" rx="4" ry="4"/>
          </clipPath>
        </defs>
        <g clip-path="url(#dv-clip-c_396ea7ab)">
          <rect class="dv-title-bar" x="0" y="0" width="246" height="28" rx="4" ry="4" style="fill:#1e3a8a"/>
          <rect x="0" y="24" width="246" height="4" style="fill:#1e3a8a"/>
          <g transform="translate(10,8)">
            <rect x="1" y="1" width="10" height="10" style="fill:none;stroke:#f9fafb;stroke-width:1"/>
            <line x1="1" y1="5" x2="11" y2="5" style="stroke:#f9fafb;stroke-width:0.8"/>
          </g>
          <text x="28" y="12" style="font:400 10px sans-serif;fill:#e5e7eb">Class</text>
          <text class="dv-title" x="28" y="23" style="font:600 13px sans-serif;fill:#f9fafb">ClassificationAttributeUsage</text>
          <rect x="1" y="28" width="244" height="16" style="fill:#bbf7d0"/>
          <text x="10" y="39" style="font:600 9.0px sans-serif;fill:#374151;letter-spacing:0.5px">REFERENCES</text>
          <rect x="1" y="44" width="244" height="18" style="fill:#f0fdf4"/>
          <line x1="1" x2="245" y1="62" y2="62" style="stroke:#bbf7d0;stroke-width:1"/>
          <text x="18" y="57" style="font:400 11px sans-serif">positiveCategory</text>
          <text x="190" y="57" text-anchor="end" style="font:400 10px monospace;fill:#6b7280">Category</text>
          <text x="228" y="57" text-anchor="end" style="font:400 10px monospace;fill:#6b7280">1..*</text>
          <g transform="translate(230,48)" aria-label="reference">
            <path d="M3 1 L9 5 L3 9" style="fill:none;stroke:#1f2937;stroke-width:1.4;stroke-linecap:round;stroke-linejoin:round"/>
          </g>
          <rect x="1" y="62" width="244" height="18" style="fill:#f0fdf4"/>
          <line x1="1" x2="245" y1="80" y2="80" style="stroke:#bbf7d0;stroke-width:1"/>
          <text x="18" y="75" style="font:400 11px sans-serif">priors</text>
          <text x="190" y="75" text-anchor="end" style="font:400 10px monospace;fill:#6b7280">PriorProbabilities</text>
          <text x="228" y="75" text-anchor="end" style="font:400 10px monospace;fill:#6b7280">0..1</text>
          <g transform="translate(230,66)" aria-label="containment">
            <path d="M6 1 L11 5 L6 9 L1 5 Z" style="fill:#1f2937;stroke:none"/>
          </g>
        </g>
      </g>
      <g class="dv-node dv-c_315f5ffb" transform="translate(64,148)">
        <rect class="dv-frame" x="0" y="0" width="255" height="62" rx="4" ry="4"/>
        <defs>
          <clipPath id="dv-clip-c_315f5ffb">
            <rect x="0" y="0" width="255" height="62" rx="4" ry="4"/>
          </clipPath>
        </defs>
        <g clip-path="url(#dv-clip-c_315f5ffb)">
          <rect class="dv-title-bar" x="0" y="0" width="255" height="28" rx="4" ry="4" style="fill:#1e3a8a"/>
          <rect x="0" y="24" width="255" height="4" style="fill:#1e3a8a"/>
          <g transform="translate(10,8)">
            <rect x="1" y="1" width="10" height="10" style="fill:none;stroke:#f9fafb;stroke-width:1"/>
            <line x1="1" y1="5" x2="11" y2="5" style="stroke:#f9fafb;stroke-width:0.8"/>
          </g>
          <text x="28" y="12" style="font:400 10px sans-serif;fill:#e5e7eb">Class</text>
          <text class="dv-title" x="28" y="23" style="font:600 13px sans-serif;fill:#f9fafb">ClassificationFunctionSettings</text>
          <rect x="1" y="28" width="253" height="16" style="fill:#bbf7d0"/>
          <text x="10" y="39" style="font:600 9.0px sans-serif;fill:#374151;letter-spacing:0.5px">REFERENCES</text>
          <rect x="1" y="44" width="253" height="18" style="fill:#f0fdf4"/>
          <line x1="1" x2="254" y1="62" y2="62" style="stroke:#bbf7d0;stroke-width:1"/>
          <text x="18" y="57" style="font:400 11px sans-serif">costMatrix</text>
          <text x="199" y="57" text-anchor="end" style="font:400 10px monospace;fill:#6b7280">CategoryMatrix</text>
          <text x="237" y="57" text-anchor="end" style="font:400 10px monospace;fill:#6b7280">0..1</text>
          <g transform="translate(239,48)" aria-label="reference">
            <path d="M3 1 L9 5 L3 9" style="fill:none;stroke:#1f2937;stroke-width:1.4;stroke-linecap:round;stroke-linejoin:round"/>
          </g>
        </g>
      </g>
      <g class="dv-node dv-c_72f6cd2e" transform="translate(375,273)">
        <rect class="dv-frame" x="0" y="0" width="299" height="114" rx="4" ry="4"/>
        <defs>
          <clipPath id="dv-clip-c_72f6cd2e">
            <rect x="0" y="0" width="299" height="114" rx="4" ry="4"/>
          </clipPath>
        </defs>
        <g clip-path="url(#dv-clip-c_72f6cd2e)">
          <rect class="dv-title-bar" x="0" y="0" width="299" height="28" rx="4" ry="4" style="fill:#1e3a8a"/>
          <rect x="0" y="24" width="299" height="4" style="fill:#1e3a8a"/>
          <g transform="translate(10,8)">
            <rect x="1" y="1" width="10" height="10" style="fill:none;stroke:#f9fafb;stroke-width:1"/>
            <line x1="1" y1="5" x2="11" y2="5" style="stroke:#f9fafb;stroke-width:0.8"/>
          </g>
          <text x="28" y="12" style="font:400 10px sans-serif;fill:#e5e7eb">Class</text>
          <text class="dv-title" x="28" y="23" style="font:600 13px sans-serif;fill:#f9fafb">ClassificationTestResult</text>
          <rect x="1" y="28" width="297" height="16" style="fill:#dbeafe"/>
          <text x="10" y="39" style="font:600 9.0px sans-serif;fill:#374151;letter-spacing:0.5px">ATTRIBUTES</text>
          <rect x="1" y="44" width="297" height="18" style="fill:#eff6ff"/>
          <line x1="1" x2="298" y1="62" y2="62" style="stroke:#dbeafe;stroke-width:1"/>
          <text x="18" y="57" style="font:400 11px sans-serif">accuracy</text>
          <text x="229" y="57" text-anchor="end" style="font:400 10px monospace;fill:#6b7280">Double</text>
          <text x="267" y="57" text-anchor="end" style="font:400 10px monospace;fill:#6b7280">0..1</text>
          <rect x="1" y="62" width="297" height="16" style="fill:#bbf7d0"/>
          <text x="10" y="73" style="font:600 9.0px sans-serif;fill:#374151;letter-spacing:0.5px">REFERENCES</text>
          <rect x="1" y="78" width="297" height="18" style="fill:#f0fdf4"/>
          <line x1="1" x2="298" y1="96" y2="96" style="stroke:#bbf7d0;stroke-width:1"/>
          <text x="18" y="91" style="font:400 11px sans-serif">confusionMatrix</text>
          <text x="229" y="91" text-anchor="end" style="font:400 10px monospace;fill:#6b7280">CategoryMatrix</text>
          <text x="267" y="91" text-anchor="end" style="font:400 10px monospace;fill:#6b7280">0..1</text>
          <g transform="translate(283,82)" aria-label="containment">
            <path d="M6 1 L11 5 L6 9 L1 5 Z" style="fill:#1f2937;stroke:none"/>
          </g>
          <rect x="1" y="96" width="297" height="18" style="fill:#f0fdf4"/>
          <line x1="1" x2="298" y1="114" y2="114" style="stroke:#bbf7d0;stroke-width:1"/>
          <text x="18" y="109" style="font:400 11px sans-serif">testTask</text>
          <text x="229" y="109" text-anchor="end" style="font:400 10px monospace;fill:#6b7280">ClassificationTestTask</text>
          <text x="267" y="109" text-anchor="end" style="font:400 10px monospace;fill:#6b7280">1..1</text>
          <g transform="translate(269,100)" aria-label="transient">
            <rect x="0.50" y="0.50" width="9" height="9" rx="1.50" ry="1.50" style="fill:#0891b2;stroke:#374151;stroke-width:0.7"/>
            <text x="5" y="7.50" text-anchor="middle" style="font:700 7px sans-serif;fill:#fff">T</text>
            <title>transient</title>
          </g>
          <g transform="translate(283,100)" aria-label="reference">
            <path d="M3 1 L9 5 L3 9" style="fill:none;stroke:#1f2937;stroke-width:1.4;stroke-linecap:round;stroke-linejoin:round"/>
          </g>
        </g>
      </g>
      <g class="dv-node dv-c_4b330722" transform="translate(36,234)">
        <rect class="dv-frame" x="0" y="0" width="311" height="62" rx="4" ry="4"/>
        <defs>
          <clipPath id="dv-clip-c_4b330722">
            <rect x="0" y="0" width="311" height="62" rx="4" ry="4"/>
          </clipPath>
        </defs>
        <g clip-path="url(#dv-clip-c_4b330722)">
          <rect class="dv-title-bar" x="0" y="0" width="311" height="28" rx="4" ry="4" style="fill:#1e3a8a"/>
          <rect x="0" y="24" width="311" height="4" style="fill:#1e3a8a"/>
          <g transform="translate(10,8)">
            <rect x="1" y="1" width="10" height="10" style="fill:none;stroke:#f9fafb;stroke-width:1"/>
            <line x1="1" y1="5" x2="11" y2="5" style="stroke:#f9fafb;stroke-width:0.8"/>
          </g>
          <text x="28" y="12" style="font:400 10px sans-serif;fill:#e5e7eb">Class</text>
          <text class="dv-title" x="28" y="23" style="font:600 13px sans-serif;fill:#f9fafb">ClassificationTestTask</text>
          <rect x="1" y="28" width="309" height="16" style="fill:#bbf7d0"/>
          <text x="10" y="39" style="font:600 9.0px sans-serif;fill:#374151;letter-spacing:0.5px">REFERENCES</text>
          <rect x="1" y="44" width="309" height="18" style="fill:#f0fdf4"/>
          <line x1="1" x2="310" y1="62" y2="62" style="stroke:#bbf7d0;stroke-width:1"/>
          <text x="18" y="57" style="font:400 11px sans-serif">testResult</text>
          <text x="255" y="57" text-anchor="end" style="font:400 10px monospace;fill:#6b7280">ClassificationTestResult</text>
          <text x="293" y="57" text-anchor="end" style="font:400 10px monospace;fill:#6b7280">1..1</text>
          <g transform="translate(295,48)" aria-label="reference">
            <path d="M3 1 L9 5 L3 9" style="fill:none;stroke:#1f2937;stroke-width:1.4;stroke-linecap:round;stroke-linejoin:round"/>
          </g>
        </g>
      </g>
      <g class="dv-node dv-c_59cfabaf" transform="translate(375,429)">
        <rect class="dv-frame" x="0" y="0" width="318.50" height="80" rx="4" ry="4"/>
        <defs>
          <clipPath id="dv-clip-c_59cfabaf">
            <rect x="0" y="0" width="318.50" height="80" rx="4" ry="4"/>
          </clipPath>
        </defs>
        <g clip-path="url(#dv-clip-c_59cfabaf)">
          <rect class="dv-title-bar" x="0" y="0" width="318.50" height="28" rx="4" ry="4" style="fill:#1e3a8a"/>
          <rect x="0" y="24" width="318.50" height="4" style="fill:#1e3a8a"/>
          <g transform="translate(10,8)">
            <rect x="1" y="1" width="10" height="10" style="fill:none;stroke:#f9fafb;stroke-width:1"/>
            <line x1="1" y1="5" x2="11" y2="5" style="stroke:#f9fafb;stroke-width:0.8"/>
          </g>
          <text x="28" y="12" style="font:400 10px sans-serif;fill:#e5e7eb">Class</text>
          <text class="dv-title" x="28" y="23" style="font:600 13px sans-serif;fill:#f9fafb">PriorProbabilities</text>
          <rect x="1" y="28" width="316.50" height="16" style="fill:#bbf7d0"/>
          <text x="10" y="39" style="font:600 9.0px sans-serif;fill:#374151;letter-spacing:0.5px">REFERENCES</text>
          <rect x="1" y="44" width="316.50" height="18" style="fill:#f0fdf4"/>
          <line x1="1" x2="317.50" y1="62" y2="62" style="stroke:#bbf7d0;stroke-width:1"/>
          <text x="18" y="57" style="font:400 11px sans-serif">usage</text>
          <text x="248.50" y="57" text-anchor="end" style="font:400 10px monospace;fill:#6b7280">ClassificationAttributeUsage</text>
          <text x="286.50" y="57" text-anchor="end" style="font:400 10px monospace;fill:#6b7280">1..1</text>
          <g transform="translate(288.50,48)" aria-label="transient">
            <rect x="0.50" y="0.50" width="9" height="9" rx="1.50" ry="1.50" style="fill:#0891b2;stroke:#374151;stroke-width:0.7"/>
            <text x="5" y="7.50" text-anchor="middle" style="font:700 7px sans-serif;fill:#fff">T</text>
            <title>transient</title>
          </g>
          <g transform="translate(302.50,48)" aria-label="reference">
            <path d="M3 1 L9 5 L3 9" style="fill:none;stroke:#1f2937;stroke-width:1.4;stroke-linecap:round;stroke-linejoin:round"/>
          </g>
          <rect x="1" y="62" width="316.50" height="18" style="fill:#f0fdf4"/>
          <line x1="1" x2="317.50" y1="80" y2="80" style="stroke:#bbf7d0;stroke-width:1"/>
          <text x="18" y="75" style="font:400 11px sans-serif">prior</text>
          <text x="248.50" y="75" text-anchor="end" style="font:400 10px monospace;fill:#6b7280">PriorProbabilitiesEntry</text>
          <text x="286.50" y="75" text-anchor="end" style="font:400 10px monospace;fill:#6b7280">0..*</text>
          <g transform="translate(302.50,66)" aria-label="containment">
            <path d="M6 1 L11 5 L6 9 L1 5 Z" style="fill:#1f2937;stroke:none"/>
          </g>
        </g>
      </g>
      <g class="dv-node dv-c_562998d3" transform="translate(721.50,413)">
        <rect class="dv-frame" x="0" y="0" width="260" height="114" rx="4" ry="4"/>
        <defs>
          <clipPath id="dv-clip-c_562998d3">
            <rect x="0" y="0" width="260" height="114" rx="4" ry="4"/>
          </clipPath>
        </defs>
        <g clip-path="url(#dv-clip-c_562998d3)">
          <rect class="dv-title-bar" x="0" y="0" width="260" height="28" rx="4" ry="4" style="fill:#1e3a8a"/>
          <rect x="0" y="24" width="260" height="4" style="fill:#1e3a8a"/>
          <g transform="translate(10,8)">
            <rect x="1" y="1" width="10" height="10" style="fill:none;stroke:#f9fafb;stroke-width:1"/>
            <line x1="1" y1="5" x2="11" y2="5" style="stroke:#f9fafb;stroke-width:0.8"/>
          </g>
          <text x="28" y="12" style="font:400 10px sans-serif;fill:#e5e7eb">Class</text>
          <text class="dv-title" x="28" y="23" style="font:600 13px sans-serif;fill:#f9fafb">PriorProbabilitiesEntry</text>
          <rect x="1" y="28" width="258" height="16" style="fill:#dbeafe"/>
          <text x="10" y="39" style="font:600 9.0px sans-serif;fill:#374151;letter-spacing:0.5px">ATTRIBUTES</text>
          <rect x="1" y="44" width="258" height="18" style="fill:#eff6ff"/>
          <line x1="1" x2="259" y1="62" y2="62" style="stroke:#dbeafe;stroke-width:1"/>
          <text x="18" y="57" style="font:400 11px sans-serif">priorProbability</text>
          <text x="190" y="57" text-anchor="end" style="font:400 10px monospace;fill:#6b7280">Double</text>
          <text x="228" y="57" text-anchor="end" style="font:400 10px monospace;fill:#6b7280">0..1</text>
          <rect x="1" y="62" width="258" height="16" style="fill:#bbf7d0"/>
          <text x="10" y="73" style="font:600 9.0px sans-serif;fill:#374151;letter-spacing:0.5px">REFERENCES</text>
          <rect x="1" y="78" width="258" height="18" style="fill:#f0fdf4"/>
          <line x1="1" x2="259" y1="96" y2="96" style="stroke:#bbf7d0;stroke-width:1"/>
          <text x="18" y="91" style="font:400 11px sans-serif">priors</text>
          <text x="190" y="91" text-anchor="end" style="font:400 10px monospace;fill:#6b7280">PriorProbabilities</text>
          <text x="228" y="91" text-anchor="end" style="font:400 10px monospace;fill:#6b7280">1..1</text>
          <g transform="translate(230,82)" aria-label="transient">
            <rect x="0.50" y="0.50" width="9" height="9" rx="1.50" ry="1.50" style="fill:#0891b2;stroke:#374151;stroke-width:0.7"/>
            <text x="5" y="7.50" text-anchor="middle" style="font:700 7px sans-serif;fill:#fff">T</text>
            <title>transient</title>
          </g>
          <g transform="translate(244,82)" aria-label="reference">
            <path d="M3 1 L9 5 L3 9" style="fill:none;stroke:#1f2937;stroke-width:1.4;stroke-linecap:round;stroke-linejoin:round"/>
          </g>
          <rect x="1" y="96" width="258" height="18" style="fill:#f0fdf4"/>
          <line x1="1" x2="259" y1="114" y2="114" style="stroke:#bbf7d0;stroke-width:1"/>
          <text x="18" y="109" style="font:400 11px sans-serif">targetValue</text>
          <text x="190" y="109" text-anchor="end" style="font:400 10px monospace;fill:#6b7280">Category</text>
          <text x="228" y="109" text-anchor="end" style="font:400 10px monospace;fill:#6b7280">1..1</text>
          <g transform="translate(244,100)" aria-label="reference">
            <path d="M3 1 L9 5 L3 9" style="fill:none;stroke:#1f2937;stroke-width:1.4;stroke-linecap:round;stroke-linejoin:round"/>
          </g>
        </g>
      </g>
    </g>
    <path class="dv-edge" d="M371,502 L391,502" style="stroke:#374151;"/>
    <path class="dv-edge" d="M698,398 L727.50,398 L727.50,417 L42,417 L42,268 L52,268" style="stroke:#374151;"/>
    <path class="dv-edge" d="M371,307 L391,307" style="stroke:#374151;"/>
    <path class="dv-edge" d="M717.50,520 L737.50,520" style="stroke:#374151;"/>
  </g>
</svg>
