<?xml version="1.0" encoding="UTF-8"?>
<svg xmlns="http://www.w3.org/2000/svg" width="1314.50" height="938" viewBox="0 0 1314.50 938">
  <defs>
    <style type="text/css">
      <![CDATA[
.dv-node rect.dv-frame { fill: #fff; stroke: #374151; stroke-width: 1; }
.dv-node .dv-title { font: 600 13px sans-serif; fill: #111827; }
.dv-node .dv-sub { font: 400 10px sans-serif; fill: #6b7280; }
.dv-edge { fill: none; stroke: #374151; stroke-width: 1.2; }
.dv-edge.fk { stroke: #334155; }
.dv-edge.inherit { stroke: #16a34a; }
.dv-edge.dep { stroke: #6b7280; stroke-dasharray: 4 3; }
.dv-label { font: 400 10px sans-serif; fill: #334155; }
.dv-cardinality { font: 400 10px sans-serif; fill: #1e293b; }
.dv-cardinality-bg { fill: #ffffff; }

]]>
    </style>
    <marker id="dv-arrow" viewBox="0 0 10 10" refX="9" refY="5" markerWidth="7" markerHeight="7" orient="auto-start-reverse">
      <path d="M0,0 L10,5 L0,10 z" fill="#374151"/>
    </marker>
    <marker id="dv-arrow-fk" viewBox="0 0 10 10" refX="9" refY="5" markerWidth="7" markerHeight="7" orient="auto-start-reverse">
      <path d="M0,0 L10,5 L0,10 z" fill="#334155"/>
    </marker>
    <marker id="dv-tri" viewBox="0 0 12 12" refX="11" refY="6" markerWidth="10" markerHeight="10" orient="auto-start-reverse">
      <path d="M0,0 L12,6 L0,12 z" fill="#fff" stroke="#16a34a"/>
    </marker>
    <marker id="dv-deco-open-arrow" viewBox="0 0 12 12" refX="11" refY="6" markerWidth="10" markerHeight="10" orient="auto-start-reverse">
      <path d="M0,0 L12,6 M0,12 L12,6" fill="none" stroke="#374151" stroke-width="1.40"/>
    </marker>
    <marker id="dv-deco-closed-arrow" viewBox="0 0 12 12" refX="11" refY="6" markerWidth="10" markerHeight="10" orient="auto-start-reverse">
      <path d="M0,0 L12,6 L0,12 z" fill="#374151"/>
    </marker>
    <marker id="dv-deco-triangle-hollow" viewBox="0 0 12 12" refX="12" refY="6" markerWidth="6" markerHeight="6" orient="auto-start-reverse">
      <path d="M0,0 L12,6 L0,12 z" fill="#fff" stroke="#374151" stroke-width="1.40"/>
    </marker>
    <marker id="dv-deco-triangle-filled" viewBox="0 0 12 12" refX="12" refY="6" markerWidth="6" markerHeight="6" orient="auto-start-reverse">
      <path d="M0,0 L12,6 L0,12 z" fill="#374151"/>
    </marker>
    <marker id="dv-deco-diamond-hollow" viewBox="0 0 12 12" refX="11" refY="6" markerWidth="12" markerHeight="12" orient="auto-start-reverse">
      <path d="M0,6 L6,0 L12,6 L6,12 z" fill="#fff" stroke="#374151" stroke-width="1.20"/>
    </marker>
    <marker id="dv-deco-diamond-filled" viewBox="0 0 12 12" refX="11" refY="6" markerWidth="12" markerHeight="12" orient="auto-start-reverse">
      <path d="M0,6 L6,0 L12,6 L6,12 z" fill="#374151"/>
    </marker>
    <marker id="dv-deco-crows-foot-many" viewBox="0 0 12 12" refX="11" refY="6" markerWidth="11" markerHeight="11" orient="auto-start-reverse">
      <path d="M12,6 L0,0 M12,6 L0,12 M12,6 L0,6" fill="none" stroke="#374151" stroke-width="1.30"/>
    </marker>
    <marker id="dv-deco-crows-foot-one" viewBox="0 0 12 12" refX="11" refY="6" markerWidth="8" markerHeight="11" orient="auto-start-reverse">
      <path d="M6,0 L6,12" fill="none" stroke="#374151" stroke-width="1.40"/>
    </marker>
    <marker id="dv-deco-crows-foot-many-opt" viewBox="0 0 12 12" refX="11" refY="6" markerWidth="14" markerHeight="11" orient="auto-start-reverse">
      <g>
        <circle cx="9.50" cy="6" r="2" fill="#fff" stroke="#374151" stroke-width="1.20"/>
        <path d="M7,6 L0,0 M7,6 L0,12 M7,6 L0,6" fill="none" stroke="#374151" stroke-width="1.30"/>
      </g>
    </marker>
    <marker id="dv-deco-crows-foot-one-opt" viewBox="0 0 12 12" refX="11" refY="6" markerWidth="12" markerHeight="11" orient="auto-start-reverse">
      <g>
        <circle cx="9.50" cy="6" r="2" fill="#fff" stroke="#374151" stroke-width="1.20"/>
        <path d="M5,0 L5,12" fill="none" stroke="#374151" stroke-width="1.40"/>
      </g>
    </marker>
  </defs>
  <g class="diagramvis-body" transform="translate(-4.0,-4.0)">
    <g class="dv-node dv-pkg_627b5e5b" transform="translate(20,20)">
      <rect x="0" y="0" width="1282.50" height="906" rx="6" ry="6" style="fill:#fafafa;stroke:#9ca3af;stroke-width:1;stroke-dasharray:5 3"/>
      <rect x="0" y="0" width="338.50" height="42" rx="6" ry="6" style="fill:#ddd6fe;stroke:#7c3aed;stroke-width:1"/>
      <text x="10" y="12" style="font:400 10px sans-serif;fill:#4c1d95;letter-spacing:0.06em">Package</text>
      <text x="10" y="25" style="font:600 12px sans-serif;fill:#4c1d95">cwm.analysis.transformation</text>
      <text x="10" y="38" style="font:400 9px monospace;fill:#6b21a8">http://www.omg.org/spec/CWM/1.1/analysis/transformation</text>
      <g class="dv-node dv-pkg_enum_5af410a1" transform="translate(51.50,678)">
        <rect x="0" y="0" width="260" height="146" rx="6" ry="6" style="fill:#fafafa;stroke:#9ca3af;stroke-width:1;stroke-dasharray:5 3"/>
        <rect x="0" y="0" width="150" height="32" rx="6" ry="6" style="fill:#1f2937;stroke:none"/>
        <circle cx="16" cy="16" r="10" style="fill:#ffffff;fill-opacity:0.18;stroke:#ffffff;stroke-opacity:0.6;stroke-width:1"/>
        <g transform="translate(10,10.0)">
          <path d="M1 2h10v8H1zM2 4h8M2 6h8M2 8h8" style="fill:#ffffff;stroke:none"/>
        </g>
        <text x="32" y="13" style="font:600 9px sans-serif;fill:#ffffff;letter-spacing:0.5px;opacity:0.85">ENUMERATIONS</text>
        <text x="32" y="25" style="font:600 13px sans-serif;fill:#f9fafb">enumerations</text>
        <g class="dv-node dv-e_4d78dd9d" transform="translate(20,50)">
          <rect class="dv-frame" x="0" y="0" width="220" height="80" rx="4" ry="4"/>
          <defs>
            <clipPath id="dv-clip-e_4d78dd9d">
              <rect x="0" y="0" width="220" height="80" rx="4" ry="4"/>
            </clipPath>
          </defs>
          <g clip-path="url(#dv-clip-e_4d78dd9d)">
            <rect class="dv-title-bar" x="0" y="0" width="220" height="28" rx="4" ry="4" style="fill:#7c2d12"/>
            <rect x="0" y="24" width="220" height="4" style="fill:#7c2d12"/>
            <g transform="translate(10,8)">
              <path d="M6 0 L1 3 L1 9 L6 12 L11 9 L11 3 Z" style="fill:none;stroke:#f9fafb;stroke-width:1"/>
              <circle cx="6" cy="6" r="2" style="fill:#f9fafb"/>
            </g>
            <text x="28" y="12" style="font:400 10px sans-serif;fill:#e5e7eb">Enumeration</text>
            <text class="dv-title" x="28" y="23" style="font:600 13px sans-serif;fill:#f9fafb">TreeType</text>
            <rect x="1" y="28" width="218" height="16" style="fill:#e9d5ff"/>
            <text x="10" y="39" style="font:600 9.0px sans-serif;fill:#374151;letter-spacing:0.5px">LITERALS</text>
            <rect x="1" y="44" width="218" height="18" style="fill:#faf5ff"/>
            <line x1="1" x2="219" y1="62" y2="62" style="stroke:#e9d5ff;stroke-width:1"/>
            <text x="10" y="57" style="font:400 11px sans-serif">tfm_unary</text>
            <text x="210" y="57" text-anchor="end" style="font:400 10px monospace;fill:#6b7280">0</text>
            <rect x="1" y="62" width="218" height="18" style="fill:#faf5ff"/>
            <line x1="1" x2="219" y1="80" y2="80" style="stroke:#e9d5ff;stroke-width:1"/>
            <text x="10" y="75" style="font:400 11px sans-serif">tfm_binary</text>
            <text x="210" y="75" text-anchor="end" style="font:400 10px monospace;fill:#6b7280">1</text>
          </g>
        </g>
      </g>
      <g class="dv-node dv-c_4c12e25d" transform="translate(365,356)">
        <rect class="dv-frame" x="0" y="0" width="265.50" height="168" rx="4" ry="4"/>
        <defs>
          <clipPath id="dv-clip-c_4c12e25d">
            <rect x="0" y="0" width="265.50" height="168" rx="4" ry="4"/>
          </clipPath>
        </defs>
        <g clip-path="url(#dv-clip-c_4c12e25d)">
          <rect class="dv-title-bar" x="0" y="0" width="265.50" height="28" rx="4" ry="4" style="fill:#1e3a8a"/>
          <rect x="0" y="24" width="265.50" height="4" style="fill:#1e3a8a"/>
          <g transform="translate(10,8)">
            <rect x="1" y="1" width="10" height="10" style="fill:none;stroke:#f9fafb;stroke-width:1"/>
            <line x1="1" y1="5" x2="11" y2="5" style="stroke:#f9fafb;stroke-width:0.8"/>
          </g>
          <text x="28" y="12" style="font:400 10px sans-serif;fill:#e5e7eb">Class</text>
          <text class="dv-title" x="28" y="23" style="font:600 13px sans-serif;fill:#f9fafb">Transformation</text>
          <rect x="1" y="28" width="263.50" height="16" style="fill:#dbeafe"/>
          <text x="10" y="39" style="font:600 9.0px sans-serif;fill:#374151;letter-spacing:0.5px">ATTRIBUTES</text>
          <rect x="1" y="44" width="263.50" height="18" style="fill:#eff6ff"/>
          <line x1="1" x2="264.50" y1="62" y2="62" style="stroke:#dbeafe;stroke-width:1"/>
          <text x="18" y="57" style="font:400 11px sans-serif">functionDescription</text>
          <text x="209.50" y="57" text-anchor="end" style="font:400 10px monospace;fill:#6b7280">String</text>
          <text x="247.50" y="57" text-anchor="end" style="font:400 10px monospace;fill:#6b7280">0..1</text>
          <rect x="1" y="62" width="263.50" height="18" style="fill:#eff6ff"/>
          <line x1="1" x2="264.50" y1="80" y2="80" style="stroke:#dbeafe;stroke-width:1"/>
          <text x="18" y="75" style="font:400 11px sans-serif">isPrimary</text>
          <text x="209.50" y="75" text-anchor="end" style="font:400 10px monospace;fill:#6b7280">Boolean</text>
          <text x="247.50" y="75" text-anchor="end" style="font:400 10px monospace;fill:#6b7280">0..1</text>
          <rect x="1" y="80" width="263.50" height="16" style="fill:#bbf7d0"/>
          <text x="10" y="91" style="font:600 9.0px sans-serif;fill:#374151;letter-spacing:0.5px">REFERENCES</text>
          <rect x="1" y="96" width="263.50" height="18" style="fill:#f0fdf4"/>
          <line x1="1" x2="264.50" y1="114" y2="114" style="stroke:#bbf7d0;stroke-width:1"/>
          <text x="18" y="109" style="font:400 11px sans-serif">function</text>
          <text x="209.50" y="109" text-anchor="end" style="font:400 10px monospace;fill:#6b7280">ProcedureExpression</text>
          <text x="247.50" y="109" text-anchor="end" style="font:400 10px monospace;fill:#6b7280">0..1</text>
          <g transform="translate(249.50,100)" aria-label="containment">
            <path d="M6 1 L11 5 L6 9 L1 5 Z" style="fill:#1f2937;stroke:none"/>
          </g>
          <rect x="1" y="114" width="263.50" height="18" style="fill:#f0fdf4"/>
          <line x1="1" x2="264.50" y1="132" y2="132" style="stroke:#bbf7d0;stroke-width:1"/>
          <text x="18" y="127" style="font:400 11px sans-serif">source</text>
          <text x="209.50" y="127" text-anchor="end" style="font:400 10px monospace;fill:#6b7280">DataObjectSet</text>
          <text x="247.50" y="127" text-anchor="end" style="font:400 10px monospace;fill:#6b7280">0..*</text>
          <g transform="translate(249.50,118)" aria-label="reference">
            <path d="M3 1 L9 5 L3 9" style="fill:none;stroke:#1f2937;stroke-width:1.4;stroke-linecap:round;stroke-linejoin:round"/>
          </g>
          <rect x="1" y="132" width="263.50" height="18" style="fill:#f0fdf4"/>
          <line x1="1" x2="264.50" y1="150" y2="150" style="stroke:#bbf7d0;stroke-width:1"/>
          <text x="18" y="145" style="font:400 11px sans-serif">target</text>
          <text x="209.50" y="145" text-anchor="end" style="font:400 10px monospace;fill:#6b7280">DataObjectSet</text>
          <text x="247.50" y="145" text-anchor="end" style="font:400 10px monospace;fill:#6b7280">0..*</text>
          <g transform="translate(249.50,136)" aria-label="reference">
            <path d="M3 1 L9 5 L3 9" style="fill:none;stroke:#1f2937;stroke-width:1.4;stroke-linecap:round;stroke-linejoin:round"/>
          </g>
          <rect x="1" y="150" width="263.50" height="18" style="fill:#f0fdf4"/>
          <line x1="1" x2="264.50" y1="168" y2="168" style="stroke:#bbf7d0;stroke-width:1"/>
          <text x="18" y="163" style="font:400 11px sans-serif">task</text>
          <text x="209.50" y="163" text-anchor="end" style="font:400 10px monospace;fill:#6b7280">TransformationTask</text>
          <text x="247.50" y="163" text-anchor="end" style="font:400 10px monospace;fill:#6b7280">0..*</text>
          <g transform="translate(249.50,154)" aria-label="reference">
            <path d="M3 1 L9 5 L3 9" style="fill:none;stroke:#1f2937;stroke-width:1.4;stroke-linecap:round;stroke-linejoin:round"/>
          </g>
        </g>
      </g>
      <g class="dv-node dv-c_7e753fd6" transform="translate(658.50,426)">
        <rect class="dv-frame" x="0" y="0" width="311" height="98" rx="4" ry="4"/>
        <defs>
          <clipPath id="dv-clip-c_7e753fd6">
            <rect x="0" y="0" width="311" height="98" rx="4" ry="4"/>
          </clipPath>
        </defs>
        <g clip-path="url(#dv-clip-c_7e753fd6)">
          <rect class="dv-title-bar" x="0" y="0" width="311" height="28" rx="4" ry="4" style="fill:#1e3a8a"/>
          <rect x="0" y="24" width="311" height="4" style="fill:#1e3a8a"/>
          <g transform="translate(10,8)">
            <rect x="1" y="1" width="10" height="10" style="fill:none;stroke:#f9fafb;stroke-width:1"/>
            <line x1="1" y1="5" x2="11" y2="5" style="stroke:#f9fafb;stroke-width:0.8"/>
          </g>
          <text x="28" y="12" style="font:400 10px sans-serif;fill:#e5e7eb">Class</text>
          <text class="dv-title" x="28" y="23" style="font:600 13px sans-serif;fill:#f9fafb">DataObjectSet</text>
          <rect x="1" y="28" width="309" height="16" style="fill:#bbf7d0"/>
          <text x="10" y="39" style="font:600 9.0px sans-serif;fill:#374151;letter-spacing:0.5px">REFERENCES</text>
          <rect x="1" y="44" width="309" height="18" style="fill:#f0fdf4"/>
          <line x1="1" x2="310" y1="62" y2="62" style="stroke:#bbf7d0;stroke-width:1"/>
          <text x="18" y="57" style="font:400 11px sans-serif">sourceTransformation</text>
          <text x="255" y="57" text-anchor="end" style="font:400 10px monospace;fill:#6b7280">Transformation</text>
          <text x="293" y="57" text-anchor="end" style="font:400 10px monospace;fill:#6b7280">0..*</text>
          <g transform="translate(295,48)" aria-label="reference">
            <path d="M3 1 L9 5 L3 9" style="fill:none;stroke:#1f2937;stroke-width:1.4;stroke-linecap:round;stroke-linejoin:round"/>
          </g>
          <rect x="1" y="62" width="309" height="18" style="fill:#f0fdf4"/>
          <line x1="1" x2="310" y1="80" y2="80" style="stroke:#bbf7d0;stroke-width:1"/>
          <text x="18" y="75" style="font:400 11px sans-serif">targetTransformation</text>
          <text x="255" y="75" text-anchor="end" style="font:400 10px monospace;fill:#6b7280">Transformation</text>
          <text x="293" y="75" text-anchor="end" style="font:400 10px monospace;fill:#6b7280">0..*</text>
          <g transform="translate(295,66)" aria-label="reference">
            <path d="M3 1 L9 5 L3 9" style="fill:none;stroke:#1f2937;stroke-width:1.4;stroke-linecap:round;stroke-linejoin:round"/>
          </g>
          <rect x="1" y="80" width="309" height="18" style="fill:#f0fdf4"/>
          <line x1="1" x2="310" y1="98" y2="98" style="stroke:#bbf7d0;stroke-width:1"/>
          <text x="18" y="93" style="font:400 11px sans-serif">element</text>
          <text x="255" y="93" text-anchor="end" style="font:400 10px monospace;fill:#6b7280">ModelElement</text>
          <text x="293" y="93" text-anchor="end" style="font:400 10px monospace;fill:#6b7280">1..*</text>
          <g transform="translate(295,84)" aria-label="reference">
            <path d="M3 1 L9 5 L3 9" style="fill:none;stroke:#1f2937;stroke-width:1.4;stroke-linecap:round;stroke-linejoin:round"/>
          </g>
        </g>
      </g>
      <g class="dv-node dv-c_e76aa" transform="translate(671.50,548)">
        <rect class="dv-frame" x="0" y="0" width="285" height="116" rx="4" ry="4"/>
        <defs>
          <clipPath id="dv-clip-c_e76aa">
            <rect x="0" y="0" width="285" height="116" rx="4" ry="4"/>
          </clipPath>
        </defs>
        <g clip-path="url(#dv-clip-c_e76aa)">
          <rect class="dv-title-bar" x="0" y="0" width="285" height="28" rx="4" ry="4" style="fill:#1e3a8a"/>
          <rect x="0" y="24" width="285" height="4" style="fill:#1e3a8a"/>
          <g transform="translate(10,8)">
            <rect x="1" y="1" width="10" height="10" style="fill:none;stroke:#f9fafb;stroke-width:1"/>
            <line x1="1" y1="5" x2="11" y2="5" style="stroke:#f9fafb;stroke-width:0.8"/>
          </g>
          <text x="28" y="12" style="font:400 10px sans-serif;fill:#e5e7eb">Class</text>
          <text class="dv-title" x="28" y="23" style="font:600 13px sans-serif;fill:#f9fafb">TransformationTask</text>
          <rect x="1" y="28" width="283" height="16" style="fill:#bbf7d0"/>
          <text x="10" y="39" style="font:600 9.0px sans-serif;fill:#374151;letter-spacing:0.5px">REFERENCES</text>
          <rect x="1" y="44" width="283" height="18" style="fill:#f0fdf4"/>
          <line x1="1" x2="284" y1="62" y2="62" style="stroke:#bbf7d0;stroke-width:1"/>
          <text x="18" y="57" style="font:400 11px sans-serif">step</text>
          <text x="229" y="57" text-anchor="end" style="font:400 10px monospace;fill:#6b7280">TransformationStep</text>
          <text x="267" y="57" text-anchor="end" style="font:400 10px monospace;fill:#6b7280">0..*</text>
          <g transform="translate(269,48)" aria-label="reference">
            <path d="M3 1 L9 5 L3 9" style="fill:none;stroke:#1f2937;stroke-width:1.4;stroke-linecap:round;stroke-linejoin:round"/>
          </g>
          <rect x="1" y="62" width="283" height="18" style="fill:#f0fdf4"/>
          <line x1="1" x2="284" y1="80" y2="80" style="stroke:#bbf7d0;stroke-width:1"/>
          <text x="18" y="75" style="font:400 11px sans-serif">originalTask</text>
          <text x="229" y="75" text-anchor="end" style="font:400 10px monospace;fill:#6b7280">TransformationTask</text>
          <text x="267" y="75" text-anchor="end" style="font:400 10px monospace;fill:#6b7280">0..*</text>
          <g transform="translate(269,66)" aria-label="reference">
            <path d="M3 1 L9 5 L3 9" style="fill:none;stroke:#1f2937;stroke-width:1.4;stroke-linecap:round;stroke-linejoin:round"/>
          </g>
          <rect x="1" y="80" width="283" height="18" style="fill:#f0fdf4"/>
          <line x1="1" x2="284" y1="98" y2="98" style="stroke:#bbf7d0;stroke-width:1"/>
          <text x="18" y="93" style="font:400 11px sans-serif">inverseTask</text>
          <text x="229" y="93" text-anchor="end" style="font:400 10px monospace;fill:#6b7280">TransformationTask</text>
          <text x="267" y="93" text-anchor="end" style="font:400 10px monospace;fill:#6b7280">0..*</text>
          <g transform="translate(269,84)" aria-label="reference">
            <path d="M3 1 L9 5 L3 9" style="fill:none;stroke:#1f2937;stroke-width:1.4;stroke-linecap:round;stroke-linejoin:round"/>
          </g>
          <rect x="1" y="98" width="283" height="18" style="fill:#f0fdf4"/>
          <line x1="1" x2="284" y1="116" y2="116" style="stroke:#bbf7d0;stroke-width:1"/>
          <text x="18" y="111" style="font:400 11px sans-serif">transformation</text>
          <text x="229" y="111" text-anchor="end" style="font:400 10px monospace;fill:#6b7280">Transformation</text>
          <text x="267" y="111" text-anchor="end" style="font:400 10px monospace;fill:#6b7280">1..*</text>
          <g transform="translate(269,102)" aria-label="reference">
            <path d="M3 1 L9 5 L3 9" style="fill:none;stroke:#1f2937;stroke-width:1.4;stroke-linecap:round;stroke-linejoin:round"/>
          </g>
        </g>
      </g>
      <g class="dv-node dv-c_1be7b7de" transform="translate(997.50,548)">
        <rect class="dv-frame" x="0" y="0" width="259" height="98" rx="4" ry="4"/>
        <defs>
          <clipPath id="dv-clip-c_1be7b7de">
            <rect x="0" y="0" width="259" height="98" rx="4" ry="4"/>
          </clipPath>
        </defs>
        <g clip-path="url(#dv-clip-c_1be7b7de)">
          <rect class="dv-title-bar" x="0" y="0" width="259" height="28" rx="4" ry="4" style="fill:#1e3a8a"/>
          <rect x="0" y="24" width="259" height="4" style="fill:#1e3a8a"/>
          <g transform="translate(10,8)">
            <rect x="1" y="1" width="10" height="10" style="fill:none;stroke:#f9fafb;stroke-width:1"/>
            <line x1="1" y1="5" x2="11" y2="5" style="stroke:#f9fafb;stroke-width:0.8"/>
          </g>
          <text x="28" y="12" style="font:400 10px sans-serif;fill:#e5e7eb">Class</text>
          <text class="dv-title" x="28" y="23" style="font:600 13px sans-serif;fill:#f9fafb">TransformationStep</text>
          <rect x="1" y="28" width="257" height="16" style="fill:#bbf7d0"/>
          <text x="10" y="39" style="font:600 9.0px sans-serif;fill:#374151;letter-spacing:0.5px">REFERENCES</text>
          <rect x="1" y="44" width="257" height="18" style="fill:#f0fdf4"/>
          <line x1="1" x2="258" y1="62" y2="62" style="stroke:#bbf7d0;stroke-width:1"/>
          <text x="18" y="57" style="font:400 11px sans-serif">task</text>
          <text x="203" y="57" text-anchor="end" style="font:400 10px monospace;fill:#6b7280">TransformationTask</text>
          <text x="241" y="57" text-anchor="end" style="font:400 10px monospace;fill:#6b7280">1..1</text>
          <g transform="translate(243,48)" aria-label="reference">
            <path d="M3 1 L9 5 L3 9" style="fill:none;stroke:#1f2937;stroke-width:1.4;stroke-linecap:round;stroke-linejoin:round"/>
          </g>
          <rect x="1" y="62" width="257" height="18" style="fill:#f0fdf4"/>
          <line x1="1" x2="258" y1="80" y2="80" style="stroke:#bbf7d0;stroke-width:1"/>
          <text x="18" y="75" style="font:400 11px sans-serif">warehouseStep</text>
          <text x="203" y="75" text-anchor="end" style="font:400 10px monospace;fill:#6b7280">WarehouseStep</text>
          <text x="241" y="75" text-anchor="end" style="font:400 10px monospace;fill:#6b7280">0..*</text>
          <g transform="translate(243,66)" aria-label="reference">
            <path d="M3 1 L9 5 L3 9" style="fill:none;stroke:#1f2937;stroke-width:1.4;stroke-linecap:round;stroke-linejoin:round"/>
          </g>
          <rect x="1" y="80" width="257" height="18" style="fill:#f0fdf4"/>
          <line x1="1" x2="258" y1="98" y2="98" style="stroke:#bbf7d0;stroke-width:1"/>
          <text x="18" y="93" style="font:400 11px sans-serif">execution</text>
          <text x="203" y="93" text-anchor="end" style="font:400 10px monospace;fill:#6b7280">StepExecution</text>
          <text x="241" y="93" text-anchor="end" style="font:400 10px monospace;fill:#6b7280">0..*</text>
          <g transform="translate(243,84)" aria-label="reference">
            <path d="M3 1 L9 5 L3 9" style="fill:none;stroke:#1f2937;stroke-width:1.4;stroke-linecap:round;stroke-linejoin:round"/>
          </g>
        </g>
      </g>
      <g class="dv-node dv-c_4aedac7f" transform="translate(26,218)">
        <rect class="dv-frame" x="0" y="0" width="311" height="114" rx="4" ry="4"/>
        <defs>
          <clipPath id="dv-clip-c_4aedac7f">
            <rect x="0" y="0" width="311" height="114" rx="4" ry="4"/>
          </clipPath>
        </defs>
        <g clip-path="url(#dv-clip-c_4aedac7f)">
          <rect class="dv-title-bar" x="0" y="0" width="311" height="28" rx="4" ry="4" style="fill:#1e3a8a"/>
          <rect x="0" y="24" width="311" height="4" style="fill:#1e3a8a"/>
          <g transform="translate(10,8)">
            <rect x="1" y="1" width="10" height="10" style="fill:none;stroke:#f9fafb;stroke-width:1"/>
            <line x1="1" y1="5" x2="11" y2="5" style="stroke:#f9fafb;stroke-width:0.8"/>
          </g>
          <text x="28" y="12" style="font:400 10px sans-serif;fill:#e5e7eb">Class</text>
          <text class="dv-title" x="28" y="23" style="font:600 13px sans-serif;fill:#f9fafb">TransformationActivity</text>
          <rect x="1" y="28" width="309" height="16" style="fill:#dbeafe"/>
          <text x="10" y="39" style="font:600 9.0px sans-serif;fill:#374151;letter-spacing:0.5px">ATTRIBUTES</text>
          <rect x="1" y="44" width="309" height="18" style="fill:#eff6ff"/>
          <line x1="1" x2="310" y1="62" y2="62" style="stroke:#dbeafe;stroke-width:1"/>
          <text x="18" y="57" style="font:400 11px sans-serif">creationDate</text>
          <text x="255" y="57" text-anchor="end" style="font:400 10px monospace;fill:#6b7280">String</text>
          <text x="293" y="57" text-anchor="end" style="font:400 10px monospace;fill:#6b7280">0..1</text>
          <rect x="1" y="62" width="309" height="16" style="fill:#bbf7d0"/>
          <text x="10" y="73" style="font:600 9.0px sans-serif;fill:#374151;letter-spacing:0.5px">REFERENCES</text>
          <rect x="1" y="78" width="309" height="18" style="fill:#f0fdf4"/>
          <line x1="1" x2="310" y1="96" y2="96" style="stroke:#bbf7d0;stroke-width:1"/>
          <text x="18" y="91" style="font:400 11px sans-serif">warehouseActivity</text>
          <text x="255" y="91" text-anchor="end" style="font:400 10px monospace;fill:#6b7280">WarehouseActivity</text>
          <text x="293" y="91" text-anchor="end" style="font:400 10px monospace;fill:#6b7280">0..*</text>
          <g transform="translate(295,82)" aria-label="reference">
            <path d="M3 1 L9 5 L3 9" style="fill:none;stroke:#1f2937;stroke-width:1.4;stroke-linecap:round;stroke-linejoin:round"/>
          </g>
          <rect x="1" y="96" width="309" height="18" style="fill:#f0fdf4"/>
          <line x1="1" x2="310" y1="114" y2="114" style="stroke:#bbf7d0;stroke-width:1"/>
          <text x="18" y="109" style="font:400 11px sans-serif">execution</text>
          <text x="255" y="109" text-anchor="end" style="font:400 10px monospace;fill:#6b7280">ActivityExecution</text>
          <text x="293" y="109" text-anchor="end" style="font:400 10px monospace;fill:#6b7280">0..*</text>
          <g transform="translate(295,100)" aria-label="reference">
            <path d="M3 1 L9 5 L3 9" style="fill:none;stroke:#1f2937;stroke-width:1.4;stroke-linecap:round;stroke-linejoin:round"/>
          </g>
        </g>
      </g>
      <g class="dv-node dv-c_706dd38b" transform="translate(71.50,848)">
        <rect class="dv-frame" x="0" y="0" width="220" height="36" rx="4" ry="4"/>
        <defs>
          <clipPath id="dv-clip-c_706dd38b">
            <rect x="0" y="0" width="220" height="36" rx="4" ry="4"/>
          </clipPath>
        </defs>
        <g clip-path="url(#dv-clip-c_706dd38b)">
          <rect class="dv-title-bar" x="0" y="0" width="220" height="28" rx="4" ry="4" style="fill:#1e3a8a"/>
          <rect x="0" y="24" width="220" height="4" style="fill:#1e3a8a"/>
          <g transform="translate(10,8)">
            <rect x="1" y="1" width="10" height="10" style="fill:none;stroke:#f9fafb;stroke-width:1"/>
            <line x1="1" y1="5" x2="11" y2="5" style="stroke:#f9fafb;stroke-width:0.8"/>
          </g>
          <text x="28" y="12" style="font:400 10px sans-serif;fill:#e5e7eb">Class</text>
          <text class="dv-title" x="28" y="23" style="font:600 13px sans-serif;fill:#f9fafb">PrecedenceConstraint</text>
        </g>
      </g>
      <g class="dv-node dv-c_51edc97d" transform="translate(71.50,536)">
        <rect class="dv-frame" x="0" y="0" width="220" height="62" rx="4" ry="4"/>
        <defs>
          <clipPath id="dv-clip-c_51edc97d">
            <rect x="0" y="0" width="220" height="62" rx="4" ry="4"/>
          </clipPath>
        </defs>
        <g clip-path="url(#dv-clip-c_51edc97d)">
          <rect class="dv-title-bar" x="0" y="0" width="220" height="28" rx="4" ry="4" style="fill:#1e3a8a"/>
          <rect x="0" y="24" width="220" height="4" style="fill:#1e3a8a"/>
          <g transform="translate(10,8)">
            <rect x="1" y="1" width="10" height="10" style="fill:none;stroke:#f9fafb;stroke-width:1"/>
            <line x1="1" y1="5" x2="11" y2="5" style="stroke:#f9fafb;stroke-width:0.8"/>
          </g>
          <text x="28" y="12" style="font:400 10px sans-serif;fill:#e5e7eb">Class</text>
          <text class="dv-title" x="28" y="23" style="font:600 13px sans-serif;fill:#f9fafb">TransformationUse</text>
          <rect x="1" y="28" width="218" height="16" style="fill:#dbeafe"/>
          <text x="10" y="39" style="font:600 9.0px sans-serif;fill:#374151;letter-spacing:0.5px">ATTRIBUTES</text>
          <rect x="1" y="44" width="218" height="18" style="fill:#eff6ff"/>
          <line x1="1" x2="219" y1="62" y2="62" style="stroke:#dbeafe;stroke-width:1"/>
          <text x="18" y="57" style="font:400 11px sans-serif">type</text>
          <text x="178" y="57" text-anchor="end" style="font:400 10px monospace;fill:#6b7280">String</text>
          <text x="216" y="57" text-anchor="end" style="font:400 10px monospace;fill:#6b7280">0..1</text>
        </g>
      </g>
      <g class="dv-node dv-c_2f1e3e1c" transform="translate(71.50,356)">
        <rect class="dv-frame" x="0" y="0" width="220" height="36" rx="4" ry="4"/>
        <defs>
          <clipPath id="dv-clip-c_2f1e3e1c">
            <rect x="0" y="0" width="220" height="36" rx="4" ry="4"/>
          </clipPath>
        </defs>
        <g clip-path="url(#dv-clip-c_2f1e3e1c)">
          <rect class="dv-title-bar" x="0" y="0" width="220" height="28" rx="4" ry="4" style="fill:#1e3a8a"/>
          <rect x="0" y="24" width="220" height="4" style="fill:#1e3a8a"/>
          <g transform="translate(10,8)">
            <rect x="1" y="1" width="10" height="10" style="fill:none;stroke:#f9fafb;stroke-width:1"/>
            <line x1="1" y1="5" x2="11" y2="5" style="stroke:#f9fafb;stroke-width:0.8"/>
          </g>
          <text x="28" y="12" style="font:400 10px sans-serif;fill:#e5e7eb">Class</text>
          <text class="dv-title" x="28" y="23" style="font:600 13px sans-serif;fill:#f9fafb">TransformationMap</text>
        </g>
      </g>
      <g class="dv-node dv-c_31f151ff" transform="translate(71.50,416)">
        <rect class="dv-frame" x="0" y="0" width="220" height="96" rx="4" ry="4"/>
        <defs>
          <clipPath id="dv-clip-c_31f151ff">
            <rect x="0" y="0" width="220" height="96" rx="4" ry="4"/>
          </clipPath>
        </defs>
        <g clip-path="url(#dv-clip-c_31f151ff)">
          <rect class="dv-title-bar" x="0" y="0" width="220" height="28" rx="4" ry="4" style="fill:#1e3a8a"/>
          <rect x="0" y="24" width="220" height="4" style="fill:#1e3a8a"/>
          <g transform="translate(10,8)">
            <rect x="1" y="1" width="10" height="10" style="fill:none;stroke:#f9fafb;stroke-width:1"/>
            <line x1="1" y1="5" x2="11" y2="5" style="stroke:#f9fafb;stroke-width:0.8"/>
          </g>
          <text x="28" y="12" style="font:400 10px sans-serif;fill:#e5e7eb">Class</text>
          <text class="dv-title" x="28" y="23" style="font:600 13px sans-serif;fill:#f9fafb">TransformationTree</text>
          <rect x="1" y="28" width="218" height="16" style="fill:#dbeafe"/>
          <text x="10" y="39" style="font:600 9.0px sans-serif;fill:#374151;letter-spacing:0.5px">ATTRIBUTES</text>
          <rect x="1" y="44" width="218" height="18" style="fill:#eff6ff"/>
          <line x1="1" x2="219" y1="62" y2="62" style="stroke:#dbeafe;stroke-width:1"/>
          <text x="18" y="57" style="font:400 11px sans-serif">type</text>
          <text x="164" y="57" text-anchor="end" style="font:400 10px monospace;fill:#6b7280">TreeType</text>
          <text x="202" y="57" text-anchor="end" style="font:400 10px monospace;fill:#6b7280">0..1</text>
          <rect x="1" y="62" width="218" height="16" style="fill:#bbf7d0"/>
          <text x="10" y="73" style="font:600 9.0px sans-serif;fill:#374151;letter-spacing:0.5px">REFERENCES</text>
          <rect x="1" y="78" width="218" height="18" style="fill:#f0fdf4"/>
          <line x1="1" x2="219" y1="96" y2="96" style="stroke:#bbf7d0;stroke-width:1"/>
          <text x="18" y="91" style="font:400 11px sans-serif">body</text>
          <text x="164" y="91" text-anchor="end" style="font:400 10px monospace;fill:#6b7280">ExpressionNode</text>
          <text x="202" y="91" text-anchor="end" style="font:400 10px monospace;fill:#6b7280">0..1</text>
          <g transform="translate(204,82)" aria-label="containment">
            <path d="M6 1 L11 5 L6 9 L1 5 Z" style="fill:#1f2937;stroke:none"/>
          </g>
        </g>
      </g>
      <g class="dv-node dv-c_289a70a" transform="translate(365,62)">
        <rect class="dv-frame" x="0" y="0" width="265.50" height="150" rx="4" ry="4"/>
        <defs>
          <clipPath id="dv-clip-c_289a70a">
            <rect x="0" y="0" width="265.50" height="150" rx="4" ry="4"/>
          </clipPath>
        </defs>
        <g clip-path="url(#dv-clip-c_289a70a)">
          <rect class="dv-title-bar" x="0" y="0" width="265.50" height="28" rx="4" ry="4" style="fill:#1e3a8a"/>
          <rect x="0" y="24" width="265.50" height="4" style="fill:#1e3a8a"/>
          <g transform="translate(10,8)">
            <rect x="1" y="1" width="10" height="10" style="fill:none;stroke:#f9fafb;stroke-width:1"/>
            <line x1="1" y1="5" x2="11" y2="5" style="stroke:#f9fafb;stroke-width:0.8"/>
          </g>
          <text x="28" y="12" style="font:400 10px sans-serif;fill:#e5e7eb">Class</text>
          <text class="dv-title" x="28" y="23" style="font:600 13px sans-serif;fill:#f9fafb">ClassifierMap</text>
          <rect x="1" y="28" width="263.50" height="16" style="fill:#dbeafe"/>
          <text x="10" y="39" style="font:600 9.0px sans-serif;fill:#374151;letter-spacing:0.5px">ATTRIBUTES</text>
          <rect x="1" y="44" width="263.50" height="18" style="fill:#eff6ff"/>
          <line x1="1" x2="264.50" y1="62" y2="62" style="stroke:#dbeafe;stroke-width:1"/>
          <text x="18" y="57" style="font:400 11px sans-serif">functionDescription</text>
          <text x="209.50" y="57" text-anchor="end" style="font:400 10px monospace;fill:#6b7280">String</text>
          <text x="247.50" y="57" text-anchor="end" style="font:400 10px monospace;fill:#6b7280">0..1</text>
          <rect x="1" y="62" width="263.50" height="16" style="fill:#bbf7d0"/>
          <text x="10" y="73" style="font:600 9.0px sans-serif;fill:#374151;letter-spacing:0.5px">REFERENCES</text>
          <rect x="1" y="78" width="263.50" height="18" style="fill:#f0fdf4"/>
          <line x1="1" x2="264.50" y1="96" y2="96" style="stroke:#bbf7d0;stroke-width:1"/>
          <text x="18" y="91" style="font:400 11px sans-serif">function</text>
          <text x="209.50" y="91" text-anchor="end" style="font:400 10px monospace;fill:#6b7280">ProcedureExpression</text>
          <text x="247.50" y="91" text-anchor="end" style="font:400 10px monospace;fill:#6b7280">0..1</text>
          <g transform="translate(249.50,82)" aria-label="containment">
            <path d="M6 1 L11 5 L6 9 L1 5 Z" style="fill:#1f2937;stroke:none"/>
          </g>
          <rect x="1" y="96" width="263.50" height="18" style="fill:#f0fdf4"/>
          <line x1="1" x2="264.50" y1="114" y2="114" style="stroke:#bbf7d0;stroke-width:1"/>
          <text x="18" y="109" style="font:400 11px sans-serif">featureMap</text>
          <text x="209.50" y="109" text-anchor="end" style="font:400 10px monospace;fill:#6b7280">FeatureMap</text>
          <text x="247.50" y="109" text-anchor="end" style="font:400 10px monospace;fill:#6b7280">0..*</text>
          <g transform="translate(249.50,100)" aria-label="containment">
            <path d="M6 1 L11 5 L6 9 L1 5 Z" style="fill:#1f2937;stroke:none"/>
          </g>
          <rect x="1" y="114" width="263.50" height="18" style="fill:#f0fdf4"/>
          <line x1="1" x2="264.50" y1="132" y2="132" style="stroke:#bbf7d0;stroke-width:1"/>
          <text x="18" y="127" style="font:400 11px sans-serif">cfMap</text>
          <text x="209.50" y="127" text-anchor="end" style="font:400 10px monospace;fill:#6b7280">ClassifierFeatureMap</text>
          <text x="247.50" y="127" text-anchor="end" style="font:400 10px monospace;fill:#6b7280">0..*</text>
          <g transform="translate(249.50,118)" aria-label="containment">
            <path d="M6 1 L11 5 L6 9 L1 5 Z" style="fill:#1f2937;stroke:none"/>
          </g>
          <rect x="1" y="132" width="263.50" height="18" style="fill:#f0fdf4"/>
          <line x1="1" x2="264.50" y1="150" y2="150" style="stroke:#bbf7d0;stroke-width:1"/>
          <text x="18" y="145" style="font:400 11px sans-serif">source</text>
          <text x="209.50" y="145" text-anchor="end" style="font:400 10px monospace;fill:#6b7280">Classifier</text>
          <text x="247.50" y="145" text-anchor="end" style="font:400 10px monospace;fill:#6b7280">1..*</text>
          <g transform="translate(249.50,136)" aria-label="reference">
            <path d="M3 1 L9 5 L3 9" style="fill:none;stroke:#1f2937;stroke-width:1.4;stroke-linecap:round;stroke-linejoin:round"/>
          </g>
        </g>
      </g>
      <g class="dv-node dv-c_245504d" transform="translate(57.50,62)">
        <rect class="dv-frame" x="0" y="0" width="279.50" height="132" rx="4" ry="4"/>
        <defs>
          <clipPath id="dv-clip-c_245504d">
            <rect x="0" y="0" width="279.50" height="132" rx="4" ry="4"/>
          </clipPath>
        </defs>
        <g clip-path="url(#dv-clip-c_245504d)">
          <rect class="dv-title-bar" x="0" y="0" width="279.50" height="28" rx="4" ry="4" style="fill:#1e3a8a"/>
          <rect x="0" y="24" width="279.50" height="4" style="fill:#1e3a8a"/>
          <g transform="translate(10,8)">
            <rect x="1" y="1" width="10" height="10" style="fill:none;stroke:#f9fafb;stroke-width:1"/>
            <line x1="1" y1="5" x2="11" y2="5" style="stroke:#f9fafb;stroke-width:0.8"/>
          </g>
          <text x="28" y="12" style="font:400 10px sans-serif;fill:#e5e7eb">Class</text>
          <text class="dv-title" x="28" y="23" style="font:600 13px sans-serif;fill:#f9fafb">FeatureMap</text>
          <rect x="1" y="28" width="277.50" height="16" style="fill:#dbeafe"/>
          <text x="10" y="39" style="font:600 9.0px sans-serif;fill:#374151;letter-spacing:0.5px">ATTRIBUTES</text>
          <rect x="1" y="44" width="277.50" height="18" style="fill:#eff6ff"/>
          <line x1="1" x2="278.50" y1="62" y2="62" style="stroke:#dbeafe;stroke-width:1"/>
          <text x="18" y="57" style="font:400 11px sans-serif">functionDescription</text>
          <text x="209.50" y="57" text-anchor="end" style="font:400 10px monospace;fill:#6b7280">String</text>
          <text x="247.50" y="57" text-anchor="end" style="font:400 10px monospace;fill:#6b7280">0..1</text>
          <rect x="1" y="62" width="277.50" height="16" style="fill:#bbf7d0"/>
          <text x="10" y="73" style="font:600 9.0px sans-serif;fill:#374151;letter-spacing:0.5px">REFERENCES</text>
          <rect x="1" y="78" width="277.50" height="18" style="fill:#f0fdf4"/>
          <line x1="1" x2="278.50" y1="96" y2="96" style="stroke:#bbf7d0;stroke-width:1"/>
          <text x="18" y="91" style="font:400 11px sans-serif">function</text>
          <text x="209.50" y="91" text-anchor="end" style="font:400 10px monospace;fill:#6b7280">ProcedureExpression</text>
          <text x="247.50" y="91" text-anchor="end" style="font:400 10px monospace;fill:#6b7280">0..1</text>
          <g transform="translate(263.50,82)" aria-label="containment">
            <path d="M6 1 L11 5 L6 9 L1 5 Z" style="fill:#1f2937;stroke:none"/>
          </g>
          <rect x="1" y="96" width="277.50" height="18" style="fill:#f0fdf4"/>
          <line x1="1" x2="278.50" y1="114" y2="114" style="stroke:#bbf7d0;stroke-width:1"/>
          <text x="18" y="109" style="font:400 11px sans-serif">classifierMap</text>
          <text x="209.50" y="109" text-anchor="end" style="font:400 10px monospace;fill:#6b7280">ClassifierMap</text>
          <text x="247.50" y="109" text-anchor="end" style="font:400 10px monospace;fill:#6b7280">0..1</text>
          <g transform="translate(249.50,100)" aria-label="transient">
            <rect x="0.50" y="0.50" width="9" height="9" rx="1.50" ry="1.50" style="fill:#0891b2;stroke:#374151;stroke-width:0.7"/>
            <text x="5" y="7.50" text-anchor="middle" style="font:700 7px sans-serif;fill:#fff">T</text>
            <title>transient</title>
          </g>
          <g transform="translate(263.50,100)" aria-label="reference">
            <path d="M3 1 L9 5 L3 9" style="fill:none;stroke:#1f2937;stroke-width:1.4;stroke-linecap:round;stroke-linejoin:round"/>
          </g>
          <rect x="1" y="114" width="277.50" height="18" style="fill:#f0fdf4"/>
          <line x1="1" x2="278.50" y1="132" y2="132" style="stroke:#bbf7d0;stroke-width:1"/>
          <text x="18" y="127" style="font:400 11px sans-serif">target</text>
          <text x="209.50" y="127" text-anchor="end" style="font:400 10px monospace;fill:#6b7280">Feature</text>
          <text x="247.50" y="127" text-anchor="end" style="font:400 10px monospace;fill:#6b7280">1..*</text>
          <g transform="translate(263.50,118)" aria-label="reference">
            <path d="M3 1 L9 5 L3 9" style="fill:none;stroke:#1f2937;stroke-width:1.4;stroke-linecap:round;stroke-linejoin:round"/>
          </g>
        </g>
      </g>
      <g class="dv-node dv-c_5802572b" transform="translate(71.50,622)">
        <rect class="dv-frame" x="0" y="0" width="220" height="36" rx="4" ry="4"/>
        <defs>
          <clipPath id="dv-clip-c_5802572b">
            <rect x="0" y="0" width="220" height="36" rx="4" ry="4"/>
          </clipPath>
        </defs>
        <g clip-path="url(#dv-clip-c_5802572b)">
          <rect class="dv-title-bar" x="0" y="0" width="220" height="28" rx="4" ry="4" style="fill:#1e3a8a"/>
          <rect x="0" y="24" width="220" height="4" style="fill:#1e3a8a"/>
          <g transform="translate(10,8)">
            <rect x="1" y="1" width="10" height="10" style="fill:none;stroke:#f9fafb;stroke-width:1"/>
            <line x1="1" y1="5" x2="11" y2="5" style="stroke:#f9fafb;stroke-width:0.8"/>
          </g>
          <text x="28" y="12" style="font:400 10px sans-serif;fill:#e5e7eb">Class</text>
          <text class="dv-title" x="28" y="23" style="font:600 13px sans-serif;fill:#f9fafb">StepPrecedence</text>
        </g>
      </g>
      <g class="dv-node dv-c_2461b519" transform="translate(668.50,62)">
        <rect class="dv-frame" x="0" y="0" width="279.50" height="168" rx="4" ry="4"/>
        <defs>
          <clipPath id="dv-clip-c_2461b519">
            <rect x="0" y="0" width="279.50" height="168" rx="4" ry="4"/>
          </clipPath>
        </defs>
        <g clip-path="url(#dv-clip-c_2461b519)">
          <rect class="dv-title-bar" x="0" y="0" width="279.50" height="28" rx="4" ry="4" style="fill:#1e3a8a"/>
          <rect x="0" y="24" width="279.50" height="4" style="fill:#1e3a8a"/>
          <g transform="translate(10,8)">
            <rect x="1" y="1" width="10" height="10" style="fill:none;stroke:#f9fafb;stroke-width:1"/>
            <line x1="1" y1="5" x2="11" y2="5" style="stroke:#f9fafb;stroke-width:0.8"/>
          </g>
          <text x="28" y="12" style="font:400 10px sans-serif;fill:#e5e7eb">Class</text>
          <text class="dv-title" x="28" y="23" style="font:600 13px sans-serif;fill:#f9fafb">ClassifierFeatureMap</text>
          <rect x="1" y="28" width="277.50" height="16" style="fill:#dbeafe"/>
          <text x="10" y="39" style="font:600 9.0px sans-serif;fill:#374151;letter-spacing:0.5px">ATTRIBUTES</text>
          <rect x="1" y="44" width="277.50" height="18" style="fill:#eff6ff"/>
          <line x1="1" x2="278.50" y1="62" y2="62" style="stroke:#dbeafe;stroke-width:1"/>
          <text x="18" y="57" style="font:400 11px sans-serif">functionDescription</text>
          <text x="209.50" y="57" text-anchor="end" style="font:400 10px monospace;fill:#6b7280">String</text>
          <text x="247.50" y="57" text-anchor="end" style="font:400 10px monospace;fill:#6b7280">0..1</text>
          <rect x="1" y="62" width="277.50" height="18" style="fill:#eff6ff"/>
          <line x1="1" x2="278.50" y1="80" y2="80" style="stroke:#dbeafe;stroke-width:1"/>
          <text x="18" y="75" style="font:400 11px sans-serif">classifierToFeature</text>
          <text x="209.50" y="75" text-anchor="end" style="font:400 10px monospace;fill:#6b7280">Boolean</text>
          <text x="247.50" y="75" text-anchor="end" style="font:400 10px monospace;fill:#6b7280">0..1</text>
          <rect x="1" y="80" width="277.50" height="16" style="fill:#bbf7d0"/>
          <text x="10" y="91" style="font:600 9.0px sans-serif;fill:#374151;letter-spacing:0.5px">REFERENCES</text>
          <rect x="1" y="96" width="277.50" height="18" style="fill:#f0fdf4"/>
          <line x1="1" x2="278.50" y1="114" y2="114" style="stroke:#bbf7d0;stroke-width:1"/>
          <text x="18" y="109" style="font:400 11px sans-serif">function</text>
          <text x="209.50" y="109" text-anchor="end" style="font:400 10px monospace;fill:#6b7280">ProcedureExpression</text>
          <text x="247.50" y="109" text-anchor="end" style="font:400 10px monospace;fill:#6b7280">0..1</text>
          <g transform="translate(263.50,100)" aria-label="containment">
            <path d="M6 1 L11 5 L6 9 L1 5 Z" style="fill:#1f2937;stroke:none"/>
          </g>
          <rect x="1" y="114" width="277.50" height="18" style="fill:#f0fdf4"/>
          <line x1="1" x2="278.50" y1="132" y2="132" style="stroke:#bbf7d0;stroke-width:1"/>
          <text x="18" y="127" style="font:400 11px sans-serif">classifierMap</text>
          <text x="209.50" y="127" text-anchor="end" style="font:400 10px monospace;fill:#6b7280">ClassifierMap</text>
          <text x="247.50" y="127" text-anchor="end" style="font:400 10px monospace;fill:#6b7280">0..1</text>
          <g transform="translate(249.50,118)" aria-label="transient">
            <rect x="0.50" y="0.50" width="9" height="9" rx="1.50" ry="1.50" style="fill:#0891b2;stroke:#374151;stroke-width:0.7"/>
            <text x="5" y="7.50" text-anchor="middle" style="font:700 7px sans-serif;fill:#fff">T</text>
            <title>transient</title>
          </g>
          <g transform="translate(263.50,118)" aria-label="reference">
            <path d="M3 1 L9 5 L3 9" style="fill:none;stroke:#1f2937;stroke-width:1.4;stroke-linecap:round;stroke-linejoin:round"/>
          </g>
          <rect x="1" y="132" width="277.50" height="18" style="fill:#f0fdf4"/>
          <line x1="1" x2="278.50" y1="150" y2="150" style="stroke:#bbf7d0;stroke-width:1"/>
          <text x="18" y="145" style="font:400 11px sans-serif">classifier</text>
          <text x="209.50" y="145" text-anchor="end" style="font:400 10px monospace;fill:#6b7280">Classifier</text>
          <text x="247.50" y="145" text-anchor="end" style="font:400 10px monospace;fill:#6b7280">1..*</text>
          <g transform="translate(263.50,136)" aria-label="reference">
            <path d="M3 1 L9 5 L3 9" style="fill:none;stroke:#1f2937;stroke-width:1.4;stroke-linecap:round;stroke-linejoin:round"/>
          </g>
          <rect x="1" y="150" width="277.50" height="18" style="fill:#f0fdf4"/>
          <line x1="1" x2="278.50" y1="168" y2="168" style="stroke:#bbf7d0;stroke-width:1"/>
          <text x="18" y="163" style="font:400 11px sans-serif">feature</text>
          <text x="209.50" y="163" text-anchor="end" style="font:400 10px monospace;fill:#6b7280">Feature</text>
          <text x="247.50" y="163" text-anchor="end" style="font:400 10px monospace;fill:#6b7280">1..*</text>
          <g transform="translate(263.50,154)" aria-label="reference">
            <path d="M3 1 L9 5 L3 9" style="fill:none;stroke:#1f2937;stroke-width:1.4;stroke-linecap:round;stroke-linejoin:round"/>
          </g>
        </g>
      </g>
    </g>
    <path class="dv-edge" d="M654.50,499 L674.50,499" style="stroke:#374151;"/>
    <path class="dv-edge" d="M654.50,517 L674.50,517" style="stroke:#374151;"/>
    <path class="dv-edge" d="M654.50,535 L664.50,535 L664.50,675 L687.50,675" style="stroke:#374151;"/>
    <path class="dv-edge" d="M980.50,621 L1013.50,621" style="stroke:#374151;"/>
    <path class="dv-edge" d="M980.50,657 L990.50,657 L990.50,694 L677.50,694 L677.50,639 L687.50,639" style="stroke:#374151;"/>
    <path class="dv-edge" d="M201.50,372 L201.50,362 L517.75,362 L517.75,372" style="stroke:#374151;" marker-end="url(#dv-deco-triangle-hollow)"/>
    <path class="dv-edge" d="M201.50,432 L201.50,422 L371,422 L371,362 L517.75,362 L517.75,372" style="stroke:#374151;" marker-end="url(#dv-deco-triangle-hollow)"/>
    <path class="dv-edge" d="M654.50,205 L684.50,205" style="stroke:#374151;"/>
    <path class="dv-edge" d="M361,187 L381,187" style="stroke:#374151;"/>
  </g>
</svg>
