<?xml version="1.0" encoding="UTF-8"?>
<svg xmlns="http://www.w3.org/2000/svg" width="639.90" height="490" viewBox="0 0 639.90 490">
  <defs>
    <style type="text/css">
      <![CDATA[
.dv-node rect.dv-frame { fill: #fff; stroke: #374151; stroke-width: 1; }
.dv-node .dv-title { font: 600 13px sans-serif; fill: #111827; }
.dv-node .dv-sub { font: 400 10px sans-serif; fill: #6b7280; }
.dv-edge { fill: none; stroke: #374151; stroke-width: 1.2; }
.dv-edge.fk { stroke: #334155; }
.dv-edge.inherit { stroke: #16a34a; }
.dv-edge.dep { stroke: #6b7280; stroke-dasharray: 4 3; }
.dv-label { font: 400 10px sans-serif; fill: #334155; }
.dv-cardinality { font: 400 10px sans-serif; fill: #1e293b; }
.dv-cardinality-bg { fill: #ffffff; }

]]>
    </style>
    <marker id="dv-arrow" viewBox="0 0 10 10" refX="9" refY="5" markerWidth="7" markerHeight="7" orient="auto-start-reverse">
      <path d="M0,0 L10,5 L0,10 z" fill="#374151"/>
    </marker>
    <marker id="dv-arrow-fk" viewBox="0 0 10 10" refX="9" refY="5" markerWidth="7" markerHeight="7" orient="auto-start-reverse">
      <path d="M0,0 L10,5 L0,10 z" fill="#334155"/>
    </marker>
    <marker id="dv-tri" viewBox="0 0 12 12" refX="11" refY="6" markerWidth="10" markerHeight="10" orient="auto-start-reverse">
      <path d="M0,0 L12,6 L0,12 z" fill="#fff" stroke="#16a34a"/>
    </marker>
    <marker id="dv-deco-open-arrow" viewBox="0 0 12 12" refX="11" refY="6" markerWidth="10" markerHeight="10" orient="auto-start-reverse">
      <path d="M0,0 L12,6 M0,12 L12,6" fill="none" stroke="#374151" stroke-width="1.40"/>
    </marker>
    <marker id="dv-deco-closed-arrow" viewBox="0 0 12 12" refX="11" refY="6" markerWidth="10" markerHeight="10" orient="auto-start-reverse">
      <path d="M0,0 L12,6 L0,12 z" fill="#374151"/>
    </marker>
    <marker id="dv-deco-triangle-hollow" viewBox="0 0 12 12" refX="12" refY="6" markerWidth="6" markerHeight="6" orient="auto-start-reverse">
      <path d="M0,0 L12,6 L0,12 z" fill="#fff" stroke="#374151" stroke-width="1.40"/>
    </marker>
    <marker id="dv-deco-triangle-filled" viewBox="0 0 12 12" refX="12" refY="6" markerWidth="6" markerHeight="6" orient="auto-start-reverse">
      <path d="M0,0 L12,6 L0,12 z" fill="#374151"/>
    </marker>
    <marker id="dv-deco-diamond-hollow" viewBox="0 0 12 12" refX="11" refY="6" markerWidth="12" markerHeight="12" orient="auto-start-reverse">
      <path d="M0,6 L6,0 L12,6 L6,12 z" fill="#fff" stroke="#374151" stroke-width="1.20"/>
    </marker>
    <marker id="dv-deco-diamond-filled" viewBox="0 0 12 12" refX="11" refY="6" markerWidth="12" markerHeight="12" orient="auto-start-reverse">
      <path d="M0,6 L6,0 L12,6 L6,12 z" fill="#374151"/>
    </marker>
    <marker id="dv-deco-crows-foot-many" viewBox="0 0 12 12" refX="11" refY="6" markerWidth="11" markerHeight="11" orient="auto-start-reverse">
      <path d="M12,6 L0,0 M12,6 L0,12 M12,6 L0,6" fill="none" stroke="#374151" stroke-width="1.30"/>
    </marker>
    <marker id="dv-deco-crows-foot-one" viewBox="0 0 12 12" refX="11" refY="6" markerWidth="8" markerHeight="11" orient="auto-start-reverse">
      <path d="M6,0 L6,12" fill="none" stroke="#374151" stroke-width="1.40"/>
    </marker>
    <marker id="dv-deco-crows-foot-many-opt" viewBox="0 0 12 12" refX="11" refY="6" markerWidth="14" markerHeight="11" orient="auto-start-reverse">
      <g>
        <circle cx="9.50" cy="6" r="2" fill="#fff" stroke="#374151" stroke-width="1.20"/>
        <path d="M7,6 L0,0 M7,6 L0,12 M7,6 L0,6" fill="none" stroke="#374151" stroke-width="1.30"/>
      </g>
    </marker>
    <marker id="dv-deco-crows-foot-one-opt" viewBox="0 0 12 12" refX="11" refY="6" markerWidth="12" markerHeight="11" orient="auto-start-reverse">
      <g>
        <circle cx="9.50" cy="6" r="2" fill="#fff" stroke="#374151" stroke-width="1.20"/>
        <path d="M5,0 L5,12" fill="none" stroke="#374151" stroke-width="1.40"/>
      </g>
    </marker>
  </defs>
  <g class="diagramvis-body" transform="translate(-4.0,-4.0)">
    <g class="dv-node dv-sd_33e01298" transform="translate(20,96)">
      <rect x="0" y="0" width="237.50" height="154" rx="6" ry="6" style="fill:#fafafa;stroke:#9ca3af;stroke-width:1;stroke-dasharray:5 3"/>
      <rect x="0" y="0" width="150" height="32" rx="6" ry="6" style="fill:#1f2937;stroke:none"/>
      <circle cx="16" cy="16" r="10" style="fill:#ffffff;fill-opacity:0.18;stroke:#ffffff;stroke-opacity:0.6;stroke-width:1"/>
      <g transform="translate(10,10.0)">
        <path d="M6 1a5 5 0 1 0 0.001 0zM1 6h10M6 1c-2 1-3 3-3 5s1 4 3 5c2-1 3-3 3-5s-1-4-3-5" style="fill:#ffffff;stroke:none"/>
      </g>
      <text x="32" y="13" style="font:600 9px sans-serif;fill:#ffffff;letter-spacing:0.5px;opacity:0.85">SITE</text>
      <text x="32" y="25" style="font:600 13px sans-serif;fill:#f9fafb">DC Frankfurt</text>
      <g class="dv-node dv-sd_31e75d13" transform="translate(18.75,46)">
        <rect class="dv-frame" x="0" y="0" width="200" height="36" rx="4" ry="4"/>
        <rect x="0" y="0" width="200" height="28" rx="4" ry="4" style="fill:#0f766e"/>
        <rect x="0" y="24" width="200" height="4" style="fill:#0f766e"/>
        <circle cx="14" cy="14" r="9" style="fill:#ffffff;fill-opacity:0.18;stroke:#ffffff;stroke-opacity:0.6;stroke-width:1"/>
        <g transform="translate(8,8.0)">
          <path d="M1 2h10v3H1zM1 7h10v3H1zM3 3.5h.5M3 8.5h.5" style="fill:#ffffff;stroke:none"/>
        </g>
        <text x="28" y="12" style="font:600 9px sans-serif;fill:#ffffff;letter-spacing:0.5px;opacity:0.85">MACHINE</text>
        <text x="28" y="23" style="font:600 13px sans-serif;fill:#ffffff">etl-prod-01</text>
      </g>
      <g class="dv-node dv-sd_a5b0b86" transform="translate(16,102)">
        <rect class="dv-frame" x="0" y="0" width="205.50" height="36" rx="4" ry="4"/>
        <rect x="0" y="0" width="205.50" height="28" rx="4" ry="4" style="fill:#0f766e"/>
        <rect x="0" y="24" width="205.50" height="4" style="fill:#0f766e"/>
        <circle cx="14" cy="14" r="9" style="fill:#ffffff;fill-opacity:0.18;stroke:#ffffff;stroke-opacity:0.6;stroke-width:1"/>
        <g transform="translate(8,8.0)">
          <path d="M1 2h10v3H1zM1 7h10v3H1zM3 3.5h.5M3 8.5h.5" style="fill:#ffffff;stroke:none"/>
        </g>
        <text x="28" y="12" style="font:600 9px sans-serif;fill:#ffffff;letter-spacing:0.5px;opacity:0.85">MACHINE</text>
        <text x="28" y="23" style="font:600 13px sans-serif;fill:#ffffff">warehouse-prod-01</text>
      </g>
    </g>
    <g class="dv-node dv-sd_4b3c354a" transform="translate(38.75,20)">
      <rect class="dv-frame" x="0" y="0" width="200" height="36" rx="4" ry="4"/>
      <rect x="0" y="0" width="200" height="28" rx="4" ry="4" style="fill:#374151"/>
      <rect x="0" y="24" width="200" height="4" style="fill:#374151"/>
      <circle cx="14" cy="14" r="9" style="fill:#ffffff;fill-opacity:0.18;stroke:#ffffff;stroke-opacity:0.6;stroke-width:1"/>
      <g transform="translate(8,8.0)">
        <path d="M6 1l5 2.5v5L6 11L1 8.5v-5zM1 3.5l5 2.5l5-2.5M6 6v5" style="fill:#ffffff;stroke:none"/>
      </g>
      <text x="28" y="12" style="font:600 9px sans-serif;fill:#ffffff;letter-spacing:0.5px;opacity:0.85">COMPONENT</text>
      <text x="28" y="23" style="font:600 13px sans-serif;fill:#ffffff">foodmart-etl</text>
    </g>
    <g class="dv-node dv-sd_78fb9a67" transform="translate(32.25,366)">
      <rect class="dv-frame" x="0" y="0" width="213" height="36" rx="4" ry="4"/>
      <rect x="0" y="0" width="213" height="28" rx="4" ry="4" style="fill:#374151"/>
      <rect x="0" y="24" width="213" height="4" style="fill:#374151"/>
      <circle cx="14" cy="14" r="9" style="fill:#ffffff;fill-opacity:0.18;stroke:#ffffff;stroke-opacity:0.6;stroke-width:1"/>
      <g transform="translate(8,8.0)">
        <path d="M6 1l5 2.5v5L6 11L1 8.5v-5zM1 3.5l5 2.5l5-2.5M6 6v5" style="fill:#ffffff;stroke:none"/>
      </g>
      <text x="28" y="12" style="font:600 9px sans-serif;fill:#ffffff;letter-spacing:0.5px;opacity:0.85">COMPONENT</text>
      <text x="28" y="23" style="font:600 13px sans-serif;fill:#ffffff">foodmart-warehouse</text>
    </g>
    <g class="dv-node dv-sd_73ff4fae" transform="translate(427.90,296)">
      <rect class="dv-frame" x="0" y="0" width="200" height="36" rx="4" ry="4"/>
      <rect x="0" y="0" width="200" height="28" rx="4" ry="4" style="fill:#374151"/>
      <rect x="0" y="24" width="200" height="4" style="fill:#374151"/>
      <circle cx="14" cy="14" r="9" style="fill:#ffffff;fill-opacity:0.18;stroke:#ffffff;stroke-opacity:0.6;stroke-width:1"/>
      <g transform="translate(8,8.0)">
        <path d="M1 4h6v6H1zM5 1h6v6H5zM5 4h2v3" style="fill:#ffffff;stroke:none"/>
      </g>
      <text x="28" y="12" style="font:600 9px sans-serif;fill:#ffffff;letter-spacing:0.5px;opacity:0.85">SOFTWARE SYSTEM</text>
      <text x="28" y="23" style="font:600 13px sans-serif;fill:#ffffff">PostgreSQL</text>
    </g>
    <g class="dv-node dv-sd_21aa6d6c" transform="translate(57.50,442)">
      <rect class="dv-frame" x="0" y="0" width="200" height="36" rx="4" ry="4"/>
      <rect x="0" y="0" width="200" height="28" rx="4" ry="4" style="fill:#312e81"/>
      <rect x="0" y="24" width="200" height="4" style="fill:#312e81"/>
      <circle cx="14" cy="14" r="9" style="fill:#ffffff;fill-opacity:0.18;stroke:#ffffff;stroke-opacity:0.6;stroke-width:1"/>
      <g transform="translate(8,8.0)">
        <path d="M1 4h6v6H1zM5 1h6v6H5zM5 4h2v3" style="fill:#ffffff;stroke:none"/>
      </g>
      <text x="28" y="12" style="font:600 9px sans-serif;fill:#ffffff;letter-spacing:0.5px;opacity:0.85">DEPLOYED SOFTWARE SYSTEM</text>
      <text x="28" y="23" style="font:600 13px sans-serif;fill:#ffffff">etl-runtime</text>
    </g>
    <g class="dv-node dv-sd_b968a76" transform="translate(57.50,290)">
      <rect class="dv-frame" x="0" y="0" width="200" height="36" rx="4" ry="4"/>
      <rect x="0" y="0" width="200" height="28" rx="4" ry="4" style="fill:#312e81"/>
      <rect x="0" y="24" width="200" height="4" style="fill:#312e81"/>
      <circle cx="14" cy="14" r="9" style="fill:#ffffff;fill-opacity:0.18;stroke:#ffffff;stroke-opacity:0.6;stroke-width:1"/>
      <g transform="translate(8,8.0)">
        <path d="M1 4h6v6H1zM5 1h6v6H5zM5 4h2v3" style="fill:#ffffff;stroke:none"/>
      </g>
      <text x="28" y="12" style="font:600 9px sans-serif;fill:#ffffff;letter-spacing:0.5px;opacity:0.85">DEPLOYED SOFTWARE SYSTEM</text>
      <text x="28" y="23" style="font:600 13px sans-serif;fill:#ffffff">postgres-15</text>
    </g>
    <path class="dv-edge" d="M257.50,460 L377.90,460 L377.90,320 L427.90,320" marker-end="url(#dv-arrow)"/>
    <text class="dv-label" x="319.50" y="483" style="fill:#374151">based on</text>
    <path class="dv-edge" d="M257.50,308 L427.90,308" marker-end="url(#dv-arrow)"/>
    <text class="dv-label" x="319.50" y="293" style="fill:#374151">based on</text>
  </g>
</svg>
