<?xml version="1.0" encoding="UTF-8"?>
<svg xmlns="http://www.w3.org/2000/svg" width="492" height="220" viewBox="0 0 492 220">
  <defs>
    <style type="text/css">
      <![CDATA[
.dv-node rect.dv-frame { fill: #fff; stroke: #374151; stroke-width: 1; }
.dv-node .dv-title { font: 600 13px sans-serif; fill: #111827; }
.dv-node .dv-sub { font: 400 10px sans-serif; fill: #6b7280; }
.dv-edge { fill: none; stroke: #374151; stroke-width: 1.2; }
.dv-edge.fk { stroke: #334155; }
.dv-edge.inherit { stroke: #16a34a; }
.dv-edge.dep { stroke: #6b7280; stroke-dasharray: 4 3; }
.dv-label { font: 400 10px sans-serif; fill: #334155; }
.dv-cardinality { font: 400 10px sans-serif; fill: #1e293b; }
.dv-cardinality-bg { fill: #ffffff; }

]]>
    </style>
    <marker id="dv-arrow" viewBox="0 0 10 10" refX="9" refY="5" markerWidth="7" markerHeight="7" orient="auto-start-reverse">
      <path d="M0,0 L10,5 L0,10 z" fill="#374151"/>
    </marker>
    <marker id="dv-arrow-fk" viewBox="0 0 10 10" refX="9" refY="5" markerWidth="7" markerHeight="7" orient="auto-start-reverse">
      <path d="M0,0 L10,5 L0,10 z" fill="#334155"/>
    </marker>
    <marker id="dv-tri" viewBox="0 0 12 12" refX="11" refY="6" markerWidth="10" markerHeight="10" orient="auto-start-reverse">
      <path d="M0,0 L12,6 L0,12 z" fill="#fff" stroke="#16a34a"/>
    </marker>
    <marker id="dv-deco-open-arrow" viewBox="0 0 12 12" refX="11" refY="6" markerWidth="10" markerHeight="10" orient="auto-start-reverse">
      <path d="M0,0 L12,6 M0,12 L12,6" fill="none" stroke="#374151" stroke-width="1.40"/>
    </marker>
    <marker id="dv-deco-closed-arrow" viewBox="0 0 12 12" refX="11" refY="6" markerWidth="10" markerHeight="10" orient="auto-start-reverse">
      <path d="M0,0 L12,6 L0,12 z" fill="#374151"/>
    </marker>
    <marker id="dv-deco-triangle-hollow" viewBox="0 0 12 12" refX="12" refY="6" markerWidth="6" markerHeight="6" orient="auto-start-reverse">
      <path d="M0,0 L12,6 L0,12 z" fill="#fff" stroke="#374151" stroke-width="1.40"/>
    </marker>
    <marker id="dv-deco-triangle-filled" viewBox="0 0 12 12" refX="12" refY="6" markerWidth="6" markerHeight="6" orient="auto-start-reverse">
      <path d="M0,0 L12,6 L0,12 z" fill="#374151"/>
    </marker>
    <marker id="dv-deco-diamond-hollow" viewBox="0 0 12 12" refX="11" refY="6" markerWidth="12" markerHeight="12" orient="auto-start-reverse">
      <path d="M0,6 L6,0 L12,6 L6,12 z" fill="#fff" stroke="#374151" stroke-width="1.20"/>
    </marker>
    <marker id="dv-deco-diamond-filled" viewBox="0 0 12 12" refX="11" refY="6" markerWidth="12" markerHeight="12" orient="auto-start-reverse">
      <path d="M0,6 L6,0 L12,6 L6,12 z" fill="#374151"/>
    </marker>
    <marker id="dv-deco-crows-foot-many" viewBox="0 0 12 12" refX="11" refY="6" markerWidth="11" markerHeight="11" orient="auto-start-reverse">
      <path d="M12,6 L0,0 M12,6 L0,12 M12,6 L0,6" fill="none" stroke="#374151" stroke-width="1.30"/>
    </marker>
    <marker id="dv-deco-crows-foot-one" viewBox="0 0 12 12" refX="11" refY="6" markerWidth="8" markerHeight="11" orient="auto-start-reverse">
      <path d="M6,0 L6,12" fill="none" stroke="#374151" stroke-width="1.40"/>
    </marker>
    <marker id="dv-deco-crows-foot-many-opt" viewBox="0 0 12 12" refX="11" refY="6" markerWidth="14" markerHeight="11" orient="auto-start-reverse">
      <g>
        <circle cx="9.50" cy="6" r="2" fill="#fff" stroke="#374151" stroke-width="1.20"/>
        <path d="M7,6 L0,0 M7,6 L0,12 M7,6 L0,6" fill="none" stroke="#374151" stroke-width="1.30"/>
      </g>
    </marker>
    <marker id="dv-deco-crows-foot-one-opt" viewBox="0 0 12 12" refX="11" refY="6" markerWidth="12" markerHeight="11" orient="auto-start-reverse">
      <g>
        <circle cx="9.50" cy="6" r="2" fill="#fff" stroke="#374151" stroke-width="1.20"/>
        <path d="M5,0 L5,12" fill="none" stroke="#374151" stroke-width="1.40"/>
      </g>
    </marker>
  </defs>
  <g class="diagramvis-body" transform="translate(-4.0,-4.0)">
    <g class="dv-node dv-n_7b98f307" transform="translate(20,29)">
      <rect class="dv-frame" x="0" y="0" width="200" height="36" rx="4" ry="4"/>
      <rect x="0" y="0" width="200" height="28" rx="4" ry="4" style="fill:#1e3a8a"/>
      <rect x="0" y="24" width="200" height="4" style="fill:#1e3a8a"/>
      <circle cx="14" cy="14" r="9" style="fill:#ffffff;fill-opacity:0.18;stroke:#ffffff;stroke-opacity:0.6;stroke-width:1"/>
      <g transform="translate(8,8.0)">
        <path d="" style="fill:#ffffff;stroke:none"/>
      </g>
      <text x="28" y="12" style="font:600 9px sans-serif;fill:#ffffff;letter-spacing:0.5px;opacity:0.85">CLASS</text>
      <text x="28" y="23" style="font:600 13px sans-serif;fill:#ffffff">Person</text>
    </g>
    <g class="dv-node dv-n_639c2c1d" transform="translate(280,96)">
      <rect class="dv-frame" x="0" y="0" width="200" height="36" rx="4" ry="4"/>
      <rect x="0" y="0" width="200" height="28" rx="4" ry="4" style="fill:#1e3a8a"/>
      <rect x="0" y="24" width="200" height="4" style="fill:#1e3a8a"/>
      <circle cx="14" cy="14" r="9" style="fill:#ffffff;fill-opacity:0.18;stroke:#ffffff;stroke-opacity:0.6;stroke-width:1"/>
      <g transform="translate(8,8.0)">
        <path d="" style="fill:#ffffff;stroke:none"/>
      </g>
      <text x="28" y="12" style="font:600 9px sans-serif;fill:#ffffff;letter-spacing:0.5px;opacity:0.85">CLASS</text>
      <text x="28" y="23" style="font:600 13px sans-serif;fill:#ffffff">Animal</text>
    </g>
    <g class="dv-node dv-n_5fe94a96" transform="translate(280,172)">
      <rect class="dv-frame" x="0" y="0" width="200" height="36" rx="4" ry="4"/>
      <rect x="0" y="0" width="200" height="28" rx="4" ry="4" style="fill:#1e3a8a"/>
      <rect x="0" y="24" width="200" height="4" style="fill:#1e3a8a"/>
      <circle cx="14" cy="14" r="9" style="fill:#ffffff;fill-opacity:0.18;stroke:#ffffff;stroke-opacity:0.6;stroke-width:1"/>
      <g transform="translate(8,8.0)">
        <path d="" style="fill:#ffffff;stroke:none"/>
      </g>
      <text x="28" y="12" style="font:600 9px sans-serif;fill:#ffffff;letter-spacing:0.5px;opacity:0.85">CLASS</text>
      <text x="28" y="23" style="font:600 13px sans-serif;fill:#ffffff">Address</text>
    </g>
    <g class="dv-node dv-n_443118b0" transform="translate(280,20)">
      <rect class="dv-frame" x="0" y="0" width="200" height="36" rx="4" ry="4"/>
      <rect x="0" y="0" width="200" height="28" rx="4" ry="4" style="fill:#1e3a8a"/>
      <rect x="0" y="24" width="200" height="4" style="fill:#1e3a8a"/>
      <circle cx="14" cy="14" r="9" style="fill:#ffffff;fill-opacity:0.18;stroke:#ffffff;stroke-opacity:0.6;stroke-width:1"/>
      <g transform="translate(8,8.0)">
        <path d="" style="fill:#ffffff;stroke:none"/>
      </g>
      <text x="28" y="12" style="font:600 9px sans-serif;fill:#ffffff;letter-spacing:0.5px;opacity:0.85">CLASS</text>
      <text x="28" y="23" style="font:600 13px sans-serif;fill:#ffffff">Logger</text>
    </g>
    <path class="dv-edge" d="M220,47 L240,47 L240,114 L280,114" marker-end="url(#dv-deco-triangle-hollow)"/>
    <path class="dv-edge" d="M220,56 L230,56 L230,190 L280,190" marker-start="url(#dv-deco-diamond-filled)" marker-end="url(#dv-deco-open-arrow)"/>
    <rect class="dv-cardinality-bg" x="253.40" y="183.50" width="29.20" height="13" rx="6.50" ry="6.50" style="fill:#ffffff;stroke:#374151;stroke-width:1.3"/>
    <text class="dv-cardinality" x="268" y="193" text-anchor="middle">0..*</text>
    <path class="dv-edge" d="M220,38 L280,38" style="stroke-dasharray:4 3;" marker-end="url(#dv-deco-closed-arrow)"/>
  </g>
</svg>
