<?xml version="1.0" encoding="UTF-8"?>
<svg xmlns="http://www.w3.org/2000/svg" width="1156" height="320" viewBox="0 0 1156 320">
  <defs>
    <style type="text/css">
      <![CDATA[
.dv-node rect.dv-frame { fill: #fff; stroke: #374151; stroke-width: 1; }
.dv-node .dv-title { font: 600 13px sans-serif; fill: #111827; }
.dv-node .dv-sub { font: 400 10px sans-serif; fill: #6b7280; }
.dv-edge { fill: none; stroke: #374151; stroke-width: 1.2; }
.dv-edge.fk { stroke: #334155; }
.dv-edge.inherit { stroke: #16a34a; }
.dv-edge.dep { stroke: #6b7280; stroke-dasharray: 4 3; }
.dv-label { font: 400 10px sans-serif; fill: #334155; }
.dv-cardinality { font: 400 10px sans-serif; fill: #1e293b; }
.dv-cardinality-bg { fill: #ffffff; }

]]>
    </style>
    <marker id="dv-arrow" viewBox="0 0 10 10" refX="9" refY="5" markerWidth="7" markerHeight="7" orient="auto-start-reverse">
      <path d="M0,0 L10,5 L0,10 z" fill="#374151"/>
    </marker>
    <marker id="dv-arrow-fk" viewBox="0 0 10 10" refX="9" refY="5" markerWidth="7" markerHeight="7" orient="auto-start-reverse">
      <path d="M0,0 L10,5 L0,10 z" fill="#334155"/>
    </marker>
    <marker id="dv-tri" viewBox="0 0 12 12" refX="11" refY="6" markerWidth="10" markerHeight="10" orient="auto-start-reverse">
      <path d="M0,0 L12,6 L0,12 z" fill="#fff" stroke="#16a34a"/>
    </marker>
    <marker id="dv-deco-open-arrow" viewBox="0 0 12 12" refX="11" refY="6" markerWidth="10" markerHeight="10" orient="auto-start-reverse">
      <path d="M0,0 L12,6 M0,12 L12,6" fill="none" stroke="#374151" stroke-width="1.40"/>
    </marker>
    <marker id="dv-deco-closed-arrow" viewBox="0 0 12 12" refX="11" refY="6" markerWidth="10" markerHeight="10" orient="auto-start-reverse">
      <path d="M0,0 L12,6 L0,12 z" fill="#374151"/>
    </marker>
    <marker id="dv-deco-triangle-hollow" viewBox="0 0 12 12" refX="12" refY="6" markerWidth="6" markerHeight="6" orient="auto-start-reverse">
      <path d="M0,0 L12,6 L0,12 z" fill="#fff" stroke="#374151" stroke-width="1.40"/>
    </marker>
    <marker id="dv-deco-triangle-filled" viewBox="0 0 12 12" refX="12" refY="6" markerWidth="6" markerHeight="6" orient="auto-start-reverse">
      <path d="M0,0 L12,6 L0,12 z" fill="#374151"/>
    </marker>
    <marker id="dv-deco-diamond-hollow" viewBox="0 0 12 12" refX="11" refY="6" markerWidth="12" markerHeight="12" orient="auto-start-reverse">
      <path d="M0,6 L6,0 L12,6 L6,12 z" fill="#fff" stroke="#374151" stroke-width="1.20"/>
    </marker>
    <marker id="dv-deco-diamond-filled" viewBox="0 0 12 12" refX="11" refY="6" markerWidth="12" markerHeight="12" orient="auto-start-reverse">
      <path d="M0,6 L6,0 L12,6 L6,12 z" fill="#374151"/>
    </marker>
    <marker id="dv-deco-crows-foot-many" viewBox="0 0 12 12" refX="11" refY="6" markerWidth="11" markerHeight="11" orient="auto-start-reverse">
      <path d="M12,6 L0,0 M12,6 L0,12 M12,6 L0,6" fill="none" stroke="#374151" stroke-width="1.30"/>
    </marker>
    <marker id="dv-deco-crows-foot-one" viewBox="0 0 12 12" refX="11" refY="6" markerWidth="8" markerHeight="11" orient="auto-start-reverse">
      <path d="M6,0 L6,12" fill="none" stroke="#374151" stroke-width="1.40"/>
    </marker>
    <marker id="dv-deco-crows-foot-many-opt" viewBox="0 0 12 12" refX="11" refY="6" markerWidth="14" markerHeight="11" orient="auto-start-reverse">
      <g>
        <circle cx="9.50" cy="6" r="2" fill="#fff" stroke="#374151" stroke-width="1.20"/>
        <path d="M7,6 L0,0 M7,6 L0,12 M7,6 L0,6" fill="none" stroke="#374151" stroke-width="1.30"/>
      </g>
    </marker>
    <marker id="dv-deco-crows-foot-one-opt" viewBox="0 0 12 12" refX="11" refY="6" markerWidth="12" markerHeight="11" orient="auto-start-reverse">
      <g>
        <circle cx="9.50" cy="6" r="2" fill="#fff" stroke="#374151" stroke-width="1.20"/>
        <path d="M5,0 L5,12" fill="none" stroke="#374151" stroke-width="1.40"/>
      </g>
    </marker>
  </defs>
  <g class="diagramvis-body" transform="translate(-4.0,-4.0)">
    <g class="dv-node dv-bi_62ea3440" transform="translate(20,231)">
      <rect class="dv-frame" x="0" y="0" width="228" height="48" rx="4" ry="4"/>
      <rect x="0" y="0" width="228" height="28" rx="4" ry="4" style="fill:#1e3a8a"/>
      <rect x="0" y="24" width="228" height="4" style="fill:#1e3a8a"/>
      <circle cx="14" cy="14" r="9" style="fill:#ffffff;fill-opacity:0.18;stroke:#ffffff;stroke-opacity:0.6;stroke-width:1"/>
      <g transform="translate(8,8.0)">
        <path d="M6 1a2 2 0 1 1 0 4a2 2 0 1 1 0-4zM2 11c0-2 2-4 4-4s4 2 4 4z" style="fill:#ffffff;stroke:none"/>
      </g>
      <text x="28" y="12" style="font:600 9px sans-serif;fill:#ffffff;letter-spacing:0.5px;opacity:0.85">RESPONSIBLE PARTY</text>
      <text x="28" y="23" style="font:600 13px sans-serif;fill:#ffffff">Sales Operations</text>
      <text x="10" y="43" style="font:400 11px sans-serif;fill:#111827">role: Owner of the Sales catalog</text>
    </g>
    <g class="dv-node dv-bi_27953a83" transform="translate(558,249)">
      <rect class="dv-frame" x="0" y="0" width="200" height="36" rx="4" ry="4"/>
      <rect x="0" y="0" width="200" height="28" rx="4" ry="4" style="fill:#312e81"/>
      <rect x="0" y="24" width="200" height="4" style="fill:#312e81"/>
      <circle cx="14" cy="14" r="9" style="fill:#ffffff;fill-opacity:0.18;stroke:#ffffff;stroke-opacity:0.6;stroke-width:1"/>
      <g transform="translate(8,8.0)">
        <path d="M1 2h10v8H1zM3 4h6M3 6h6M3 8h4" style="fill:#ffffff;stroke:none"/>
      </g>
      <text x="28" y="12" style="font:600 9px sans-serif;fill:#ffffff;letter-spacing:0.5px;opacity:0.85">CONTACT</text>
      <text x="28" y="23" style="font:600 13px sans-serif;fill:#ffffff">Jane Doe</text>
    </g>
    <g class="dv-node dv-bi_556d0826" transform="translate(944,140)">
      <rect class="dv-frame" x="0" y="0" width="200" height="64" rx="4" ry="4"/>
      <rect x="0" y="0" width="200" height="28" rx="4" ry="4" style="fill:#0e7490"/>
      <rect x="0" y="24" width="200" height="4" style="fill:#0e7490"/>
      <circle cx="14" cy="14" r="9" style="fill:#ffffff;fill-opacity:0.18;stroke:#ffffff;stroke-opacity:0.6;stroke-width:1"/>
      <g transform="translate(8,8.0)">
        <path d="M1 3h10v6H1zM1 3l5 4l5-4" style="fill:#ffffff;stroke:none"/>
      </g>
      <text x="28" y="12" style="font:600 9px sans-serif;fill:#ffffff;letter-spacing:0.5px;opacity:0.85">EMAIL</text>
      <text x="28" y="23" style="font:600 13px sans-serif;fill:#ffffff">primary mail</text>
      <text x="10" y="43" style="font:400 11px sans-serif;fill:#111827">jane.doe@example.org</text>
      <rect x="1" y="48" width="198" height="16" style="fill:#f9fafb"/>
      <text x="10" y="59" style="font:400 11px sans-serif;fill:#111827">type: work</text>
    </g>
    <g class="dv-node dv-bi_66ce957f" transform="translate(944,244)">
      <rect class="dv-frame" x="0" y="0" width="200" height="64" rx="4" ry="4"/>
      <rect x="0" y="0" width="200" height="28" rx="4" ry="4" style="fill:#0e7490"/>
      <rect x="0" y="24" width="200" height="4" style="fill:#0e7490"/>
      <circle cx="14" cy="14" r="9" style="fill:#ffffff;fill-opacity:0.18;stroke:#ffffff;stroke-opacity:0.6;stroke-width:1"/>
      <g transform="translate(8,8.0)">
        <path d="M3 1l2 2l-1 2c1 2 2 3 4 4l2-1l2 2l-1 2c-4 0-9-5-9-9z" style="fill:#ffffff;stroke:none"/>
      </g>
      <text x="28" y="12" style="font:600 9px sans-serif;fill:#ffffff;letter-spacing:0.5px;opacity:0.85">TELEPHONE</text>
      <text x="28" y="23" style="font:600 13px sans-serif;fill:#ffffff">office line</text>
      <text x="10" y="43" style="font:400 11px sans-serif;fill:#111827">+49 30 1234567</text>
      <rect x="1" y="48" width="198" height="16" style="fill:#f9fafb"/>
      <text x="10" y="59" style="font:400 11px sans-serif;fill:#111827">type: voice</text>
    </g>
    <g class="dv-node dv-bi_55b5f5d2" transform="translate(944,20)">
      <rect class="dv-frame" x="0" y="0" width="200" height="80" rx="4" ry="4"/>
      <rect x="0" y="0" width="200" height="28" rx="4" ry="4" style="fill:#0e7490"/>
      <rect x="0" y="24" width="200" height="4" style="fill:#0e7490"/>
      <circle cx="14" cy="14" r="9" style="fill:#ffffff;fill-opacity:0.18;stroke:#ffffff;stroke-opacity:0.6;stroke-width:1"/>
      <g transform="translate(8,8.0)">
        <path d="M6 1c-2.5 0-4 1.8-4 4c0 3 4 6 4 6s4-3 4-6c0-2.2-1.5-4-4-4zM6 3a1.5 1.5 0 1 1 0 3a1.5 1.5 0 1 1 0-3" style="fill:#ffffff;stroke:none"/>
      </g>
      <text x="28" y="12" style="font:600 9px sans-serif;fill:#ffffff;letter-spacing:0.5px;opacity:0.85">LOCATION</text>
      <text x="28" y="23" style="font:600 13px sans-serif;fill:#ffffff">HQ</text>
      <text x="10" y="43" style="font:400 11px sans-serif;fill:#111827">Friedrichstraße 1</text>
      <rect x="1" y="48" width="198" height="16" style="fill:#f9fafb"/>
      <text x="10" y="59" style="font:400 11px sans-serif;fill:#111827">10117 Berlin</text>
      <text x="10" y="75" style="font:400 11px sans-serif;fill:#111827">DE</text>
    </g>
    <g class="dv-node dv-bi_5bfa8cc5" transform="translate(459,129)">
      <rect class="dv-frame" x="0" y="0" width="332" height="80" rx="4" ry="4"/>
      <rect x="0" y="0" width="332" height="28" rx="4" ry="4" style="fill:#7c2d12"/>
      <rect x="0" y="24" width="332" height="4" style="fill:#7c2d12"/>
      <circle cx="14" cy="14" r="9" style="fill:#ffffff;fill-opacity:0.18;stroke:#ffffff;stroke-opacity:0.6;stroke-width:1"/>
      <g transform="translate(8,8.0)">
        <path d="M2 1h8v10H2zM3 3h6M3 5h6M3 7h6M3 9h4" style="fill:#ffffff;stroke:none"/>
      </g>
      <text x="28" y="12" style="font:600 9px sans-serif;fill:#ffffff;letter-spacing:0.5px;opacity:0.85">DESCRIPTION</text>
      <text x="28" y="23" style="font:600 13px sans-serif;fill:#ffffff">Catalog purpose</text>
      <text x="10" y="43" style="font:400 11px sans-serif;fill:#111827">type: text/plain</text>
      <rect x="1" y="48" width="330" height="16" style="fill:#f9fafb"/>
      <text x="10" y="59" style="font:400 11px sans-serif;fill:#111827">lang: en</text>
      <text x="10" y="75" style="font:400 11px sans-serif;fill:#111827">Operational sales analytics for the EMEA region.</text>
    </g>
    <g class="dv-node dv-bi_666b83a4" transform="translate(459,25)">
      <rect class="dv-frame" x="0" y="0" width="273.50" height="64" rx="4" ry="4"/>
      <rect x="0" y="0" width="273.50" height="28" rx="4" ry="4" style="fill:#374151"/>
      <rect x="0" y="24" width="273.50" height="4" style="fill:#374151"/>
      <circle cx="14" cy="14" r="9" style="fill:#ffffff;fill-opacity:0.18;stroke:#ffffff;stroke-opacity:0.6;stroke-width:1"/>
      <g transform="translate(8,8.0)">
        <path d="M2 1h6l3 3v7H2zM8 1v3h3M3 6h6M3 8h6" style="fill:#ffffff;stroke:none"/>
      </g>
      <text x="28" y="12" style="font:600 9px sans-serif;fill:#ffffff;letter-spacing:0.5px;opacity:0.85">DOCUMENT</text>
      <text x="28" y="23" style="font:600 13px sans-serif;fill:#ffffff">Operations runbook</text>
      <text x="10" y="43" style="font:400 11px sans-serif;fill:#111827">https://wiki.example.org/runbooks/sales</text>
      <rect x="1" y="48" width="271.50" height="16" style="fill:#f9fafb"/>
      <text x="10" y="59" style="font:400 11px sans-serif;fill:#111827">type: application/pdf</text>
    </g>
    <path class="dv-edge" d="M248,267 L558,267" marker-end="url(#dv-arrow)"/>
    <text class="dv-label" x="310" y="290" style="fill:#374151">responsible for</text>
    <path class="dv-edge" d="M248,255 L268,255 L268,169 L459,169" marker-end="url(#dv-arrow)"/>
    <text class="dv-label" x="310" y="192" style="fill:#374151">responsible for</text>
    <path class="dv-edge" d="M248,243 L258,243 L258,57 L459,57" marker-end="url(#dv-arrow)"/>
    <text class="dv-label" x="310" y="80" style="fill:#374151">responsible for</text>
    <path class="dv-edge" d="M758,267 L811,267 L811,172 L944,172" marker-end="url(#dv-arrow)"/>
    <text class="dv-label" x="853" y="195" style="fill:#374151">email</text>
    <path class="dv-edge" d="M758,276 L944,276" marker-end="url(#dv-arrow)"/>
    <text class="dv-label" x="858.80" y="299" style="fill:#374151">tel</text>
    <path class="dv-edge" d="M758,258 L801,258 L801,60 L944,60" marker-end="url(#dv-arrow)"/>
    <text class="dv-label" x="858.80" y="83" style="fill:#374151">loc</text>
  </g>
</svg>
