<?xml version="1.0" encoding="UTF-8"?>
<svg xmlns="http://www.w3.org/2000/svg" width="892" height="322" viewBox="0 0 892 322">
  <defs>
    <style type="text/css">
      <![CDATA[
.dv-node rect.dv-frame { fill: #fff; stroke: #374151; stroke-width: 1; }
.dv-node .dv-title { font: 600 13px sans-serif; fill: #111827; }
.dv-node .dv-sub { font: 400 10px sans-serif; fill: #6b7280; }
.dv-edge { fill: none; stroke: #374151; stroke-width: 1.2; }
.dv-edge.fk { stroke: #334155; }
.dv-edge.inherit { stroke: #16a34a; }
.dv-edge.dep { stroke: #6b7280; stroke-dasharray: 4 3; }
.dv-label { font: 400 10px sans-serif; fill: #334155; }
.dv-cardinality { font: 400 10px sans-serif; fill: #1e293b; }
.dv-cardinality-bg { fill: #ffffff; }

]]>
    </style>
    <marker id="dv-arrow" viewBox="0 0 10 10" refX="9" refY="5" markerWidth="7" markerHeight="7" orient="auto-start-reverse">
      <path d="M0,0 L10,5 L0,10 z" fill="#374151"/>
    </marker>
    <marker id="dv-arrow-fk" viewBox="0 0 10 10" refX="9" refY="5" markerWidth="7" markerHeight="7" orient="auto-start-reverse">
      <path d="M0,0 L10,5 L0,10 z" fill="#334155"/>
    </marker>
    <marker id="dv-tri" viewBox="0 0 12 12" refX="11" refY="6" markerWidth="10" markerHeight="10" orient="auto-start-reverse">
      <path d="M0,0 L12,6 L0,12 z" fill="#fff" stroke="#16a34a"/>
    </marker>
    <marker id="dv-deco-open-arrow" viewBox="0 0 12 12" refX="11" refY="6" markerWidth="10" markerHeight="10" orient="auto-start-reverse">
      <path d="M0,0 L12,6 M0,12 L12,6" fill="none" stroke="#374151" stroke-width="1.40"/>
    </marker>
    <marker id="dv-deco-closed-arrow" viewBox="0 0 12 12" refX="11" refY="6" markerWidth="10" markerHeight="10" orient="auto-start-reverse">
      <path d="M0,0 L12,6 L0,12 z" fill="#374151"/>
    </marker>
    <marker id="dv-deco-triangle-hollow" viewBox="0 0 12 12" refX="12" refY="6" markerWidth="6" markerHeight="6" orient="auto-start-reverse">
      <path d="M0,0 L12,6 L0,12 z" fill="#fff" stroke="#374151" stroke-width="1.40"/>
    </marker>
    <marker id="dv-deco-triangle-filled" viewBox="0 0 12 12" refX="12" refY="6" markerWidth="6" markerHeight="6" orient="auto-start-reverse">
      <path d="M0,0 L12,6 L0,12 z" fill="#374151"/>
    </marker>
    <marker id="dv-deco-diamond-hollow" viewBox="0 0 12 12" refX="11" refY="6" markerWidth="12" markerHeight="12" orient="auto-start-reverse">
      <path d="M0,6 L6,0 L12,6 L6,12 z" fill="#fff" stroke="#374151" stroke-width="1.20"/>
    </marker>
    <marker id="dv-deco-diamond-filled" viewBox="0 0 12 12" refX="11" refY="6" markerWidth="12" markerHeight="12" orient="auto-start-reverse">
      <path d="M0,6 L6,0 L12,6 L6,12 z" fill="#374151"/>
    </marker>
    <marker id="dv-deco-crows-foot-many" viewBox="0 0 12 12" refX="11" refY="6" markerWidth="11" markerHeight="11" orient="auto-start-reverse">
      <path d="M12,6 L0,0 M12,6 L0,12 M12,6 L0,6" fill="none" stroke="#374151" stroke-width="1.30"/>
    </marker>
    <marker id="dv-deco-crows-foot-one" viewBox="0 0 12 12" refX="11" refY="6" markerWidth="8" markerHeight="11" orient="auto-start-reverse">
      <path d="M6,0 L6,12" fill="none" stroke="#374151" stroke-width="1.40"/>
    </marker>
    <marker id="dv-deco-crows-foot-many-opt" viewBox="0 0 12 12" refX="11" refY="6" markerWidth="14" markerHeight="11" orient="auto-start-reverse">
      <g>
        <circle cx="9.50" cy="6" r="2" fill="#fff" stroke="#374151" stroke-width="1.20"/>
        <path d="M7,6 L0,0 M7,6 L0,12 M7,6 L0,6" fill="none" stroke="#374151" stroke-width="1.30"/>
      </g>
    </marker>
    <marker id="dv-deco-crows-foot-one-opt" viewBox="0 0 12 12" refX="11" refY="6" markerWidth="12" markerHeight="11" orient="auto-start-reverse">
      <g>
        <circle cx="9.50" cy="6" r="2" fill="#fff" stroke="#374151" stroke-width="1.20"/>
        <path d="M5,0 L5,12" fill="none" stroke="#374151" stroke-width="1.40"/>
      </g>
    </marker>
  </defs>
  <g class="diagramvis-body" transform="translate(-4.0,-4.0)">
    <g class="dv-node dv-pkg_35852b6" transform="translate(20,20)">
      <rect x="0" y="0" width="860" height="290" rx="6" ry="6" style="fill:#fafafa;stroke:#9ca3af;stroke-width:1;stroke-dasharray:5 3"/>
      <rect x="0" y="0" width="437.50" height="42" rx="6" ry="6" style="fill:#ddd6fe;stroke:#7c3aed;stroke-width:1"/>
      <text x="10" y="12" style="font:400 10px sans-serif;fill:#4c1d95;letter-spacing:0.06em">Package</text>
      <text x="10" y="25" style="font:600 12px sans-serif;fill:#4c1d95">cwm.analysis.datamining.miningcore.entrypoint</text>
      <text x="10" y="38" style="font:400 9px monospace;fill:#6b21a8">http://www.omg.org/spec/CWM/1.1/analysis/datamining/miningcore/entrypoint</text>
      <g class="dv-node dv-c_2f405c13" transform="translate(444,148)">
        <rect class="dv-frame" x="0" y="0" width="390" height="80" rx="4" ry="4"/>
        <defs>
          <clipPath id="dv-clip-c_2f405c13">
            <rect x="0" y="0" width="390" height="80" rx="4" ry="4"/>
          </clipPath>
        </defs>
        <g clip-path="url(#dv-clip-c_2f405c13)">
          <rect class="dv-title-bar" x="0" y="0" width="390" height="28" rx="4" ry="4" style="fill:#1e3a8a"/>
          <rect x="0" y="24" width="390" height="4" style="fill:#1e3a8a"/>
          <g transform="translate(10,8)">
            <rect x="1" y="1" width="10" height="10" style="fill:none;stroke:#f9fafb;stroke-width:1"/>
            <line x1="1" y1="5" x2="11" y2="5" style="stroke:#f9fafb;stroke-width:0.8"/>
          </g>
          <text x="28" y="12" style="font:400 10px sans-serif;fill:#e5e7eb">Class</text>
          <text class="dv-title" x="28" y="23" style="font:600 13px sans-serif;fill:#f9fafb">AuxiliaryObject</text>
          <rect x="1" y="28" width="388" height="16" style="fill:#bbf7d0"/>
          <text x="10" y="39" style="font:600 9.0px sans-serif;fill:#374151;letter-spacing:0.5px">REFERENCES</text>
          <rect x="1" y="44" width="388" height="18" style="fill:#f0fdf4"/>
          <line x1="1" x2="389" y1="62" y2="62" style="stroke:#bbf7d0;stroke-width:1"/>
          <text x="18" y="57" style="font:400 11px sans-serif">schema</text>
          <text x="320" y="57" text-anchor="end" style="font:400 10px monospace;fill:#6b7280">Schema</text>
          <text x="358" y="57" text-anchor="end" style="font:400 10px monospace;fill:#6b7280">1..1</text>
          <g transform="translate(360,48)" aria-label="transient">
            <rect x="0.50" y="0.50" width="9" height="9" rx="1.50" ry="1.50" style="fill:#0891b2;stroke:#374151;stroke-width:0.7"/>
            <text x="5" y="7.50" text-anchor="middle" style="font:700 7px sans-serif;fill:#fff">T</text>
            <title>transient</title>
          </g>
          <g transform="translate(374,48)" aria-label="reference">
            <path d="M3 1 L9 5 L3 9" style="fill:none;stroke:#1f2937;stroke-width:1.4;stroke-linecap:round;stroke-linejoin:round"/>
          </g>
          <rect x="1" y="62" width="388" height="18" style="fill:#f0fdf4"/>
          <line x1="1" x2="389" y1="80" y2="80" style="stroke:#bbf7d0;stroke-width:1"/>
          <text x="18" y="75" style="font:400 11px sans-serif">attributeAssignmentSet</text>
          <text x="320" y="75" text-anchor="end" style="font:400 10px monospace;fill:#6b7280">AttributeAssignmentSet</text>
          <text x="358" y="75" text-anchor="end" style="font:400 10px monospace;fill:#6b7280">0..*</text>
          <g transform="translate(374,66)" aria-label="containment">
            <path d="M6 1 L11 5 L6 9 L1 5 Z" style="fill:#1f2937;stroke:none"/>
          </g>
        </g>
      </g>
      <g class="dv-node dv-c_3a9d88ca" transform="translate(444,62)">
        <rect class="dv-frame" x="0" y="0" width="220" height="62" rx="4" ry="4"/>
        <defs>
          <clipPath id="dv-clip-c_3a9d88ca">
            <rect x="0" y="0" width="220" height="62" rx="4" ry="4"/>
          </clipPath>
        </defs>
        <g clip-path="url(#dv-clip-c_3a9d88ca)">
          <rect class="dv-title-bar" x="0" y="0" width="220" height="28" rx="4" ry="4" style="fill:#1e3a8a"/>
          <rect x="0" y="24" width="220" height="4" style="fill:#1e3a8a"/>
          <g transform="translate(10,8)">
            <rect x="1" y="1" width="10" height="10" style="fill:none;stroke:#f9fafb;stroke-width:1"/>
            <line x1="1" y1="5" x2="11" y2="5" style="stroke:#f9fafb;stroke-width:0.8"/>
          </g>
          <text x="28" y="12" style="font:400 10px sans-serif;fill:#e5e7eb">Class</text>
          <text class="dv-title" x="28" y="23" style="font:600 13px sans-serif;fill:#f9fafb">Catalog</text>
          <rect x="1" y="28" width="218" height="16" style="fill:#bbf7d0"/>
          <text x="10" y="39" style="font:600 9.0px sans-serif;fill:#374151;letter-spacing:0.5px">REFERENCES</text>
          <rect x="1" y="44" width="218" height="18" style="fill:#f0fdf4"/>
          <line x1="1" x2="219" y1="62" y2="62" style="stroke:#bbf7d0;stroke-width:1"/>
          <text x="18" y="57" style="font:400 11px sans-serif">schema</text>
          <text x="164" y="57" text-anchor="end" style="font:400 10px monospace;fill:#6b7280">Schema</text>
          <text x="202" y="57" text-anchor="end" style="font:400 10px monospace;fill:#6b7280">0..*</text>
          <g transform="translate(204,48)" aria-label="containment">
            <path d="M6 1 L11 5 L6 9 L1 5 Z" style="fill:#1f2937;stroke:none"/>
          </g>
        </g>
      </g>
      <g class="dv-node dv-c_281c8eda" transform="translate(26,62)">
        <rect class="dv-frame" x="0" y="0" width="390" height="206" rx="4" ry="4"/>
        <defs>
          <clipPath id="dv-clip-c_281c8eda">
            <rect x="0" y="0" width="390" height="206" rx="4" ry="4"/>
          </clipPath>
        </defs>
        <g clip-path="url(#dv-clip-c_281c8eda)">
          <rect class="dv-title-bar" x="0" y="0" width="390" height="28" rx="4" ry="4" style="fill:#1e3a8a"/>
          <rect x="0" y="24" width="390" height="4" style="fill:#1e3a8a"/>
          <g transform="translate(10,8)">
            <rect x="1" y="1" width="10" height="10" style="fill:none;stroke:#f9fafb;stroke-width:1"/>
            <line x1="1" y1="5" x2="11" y2="5" style="stroke:#f9fafb;stroke-width:0.8"/>
          </g>
          <text x="28" y="12" style="font:400 10px sans-serif;fill:#e5e7eb">Class</text>
          <text class="dv-title" x="28" y="23" style="font:600 13px sans-serif;fill:#f9fafb">Schema</text>
          <rect x="1" y="28" width="388" height="16" style="fill:#bbf7d0"/>
          <text x="10" y="39" style="font:600 9.0px sans-serif;fill:#374151;letter-spacing:0.5px">REFERENCES</text>
          <rect x="1" y="44" width="388" height="18" style="fill:#f0fdf4"/>
          <line x1="1" x2="389" y1="62" y2="62" style="stroke:#bbf7d0;stroke-width:1"/>
          <text x="18" y="57" style="font:400 11px sans-serif">catalog</text>
          <text x="320" y="57" text-anchor="end" style="font:400 10px monospace;fill:#6b7280">Catalog</text>
          <text x="358" y="57" text-anchor="end" style="font:400 10px monospace;fill:#6b7280">1..1</text>
          <g transform="translate(360,48)" aria-label="transient">
            <rect x="0.50" y="0.50" width="9" height="9" rx="1.50" ry="1.50" style="fill:#0891b2;stroke:#374151;stroke-width:0.7"/>
            <text x="5" y="7.50" text-anchor="middle" style="font:700 7px sans-serif;fill:#fff">T</text>
            <title>transient</title>
          </g>
          <g transform="translate(374,48)" aria-label="reference">
            <path d="M3 1 L9 5 L3 9" style="fill:none;stroke:#1f2937;stroke-width:1.4;stroke-linecap:round;stroke-linejoin:round"/>
          </g>
          <rect x="1" y="62" width="388" height="18" style="fill:#f0fdf4"/>
          <line x1="1" x2="389" y1="80" y2="80" style="stroke:#bbf7d0;stroke-width:1"/>
          <text x="18" y="75" style="font:400 11px sans-serif">logicalData</text>
          <text x="320" y="75" text-anchor="end" style="font:400 10px monospace;fill:#6b7280">LogicalData</text>
          <text x="358" y="75" text-anchor="end" style="font:400 10px monospace;fill:#6b7280">0..*</text>
          <g transform="translate(374,66)" aria-label="containment">
            <path d="M6 1 L11 5 L6 9 L1 5 Z" style="fill:#1f2937;stroke:none"/>
          </g>
          <rect x="1" y="80" width="388" height="18" style="fill:#f0fdf4"/>
          <line x1="1" x2="389" y1="98" y2="98" style="stroke:#bbf7d0;stroke-width:1"/>
          <text x="18" y="93" style="font:400 11px sans-serif">categoryMatrix</text>
          <text x="320" y="93" text-anchor="end" style="font:400 10px monospace;fill:#6b7280">CategoryMatrix</text>
          <text x="358" y="93" text-anchor="end" style="font:400 10px monospace;fill:#6b7280">0..*</text>
          <g transform="translate(374,84)" aria-label="containment">
            <path d="M6 1 L11 5 L6 9 L1 5 Z" style="fill:#1f2937;stroke:none"/>
          </g>
          <rect x="1" y="98" width="388" height="18" style="fill:#f0fdf4"/>
          <line x1="1" x2="389" y1="116" y2="116" style="stroke:#bbf7d0;stroke-width:1"/>
          <text x="18" y="111" style="font:400 11px sans-serif">auxObjects</text>
          <text x="320" y="111" text-anchor="end" style="font:400 10px monospace;fill:#6b7280">AuxiliaryObject</text>
          <text x="358" y="111" text-anchor="end" style="font:400 10px monospace;fill:#6b7280">0..1</text>
          <g transform="translate(374,102)" aria-label="containment">
            <path d="M6 1 L11 5 L6 9 L1 5 Z" style="fill:#1f2937;stroke:none"/>
          </g>
          <rect x="1" y="116" width="388" height="18" style="fill:#f0fdf4"/>
          <line x1="1" x2="389" y1="134" y2="134" style="stroke:#bbf7d0;stroke-width:1"/>
          <text x="18" y="129" style="font:400 11px sans-serif">taxonomy</text>
          <text x="320" y="129" text-anchor="end" style="font:400 10px monospace;fill:#6b7280">CategoryTaxonomy</text>
          <text x="358" y="129" text-anchor="end" style="font:400 10px monospace;fill:#6b7280">0..*</text>
          <g transform="translate(374,120)" aria-label="containment">
            <path d="M6 1 L11 5 L6 9 L1 5 Z" style="fill:#1f2937;stroke:none"/>
          </g>
          <rect x="1" y="134" width="388" height="18" style="fill:#f0fdf4"/>
          <line x1="1" x2="389" y1="152" y2="152" style="stroke:#bbf7d0;stroke-width:1"/>
          <text x="18" y="147" style="font:400 11px sans-serif">miningFunctionSettings</text>
          <text x="320" y="147" text-anchor="end" style="font:400 10px monospace;fill:#6b7280">MiningFunctionSettings</text>
          <text x="358" y="147" text-anchor="end" style="font:400 10px monospace;fill:#6b7280">0..*</text>
          <g transform="translate(374,138)" aria-label="containment">
            <path d="M6 1 L11 5 L6 9 L1 5 Z" style="fill:#1f2937;stroke:none"/>
          </g>
          <rect x="1" y="152" width="388" height="18" style="fill:#f0fdf4"/>
          <line x1="1" x2="389" y1="170" y2="170" style="stroke:#bbf7d0;stroke-width:1"/>
          <text x="18" y="165" style="font:400 11px sans-serif">miningModel</text>
          <text x="320" y="165" text-anchor="end" style="font:400 10px monospace;fill:#6b7280">MiningModel</text>
          <text x="358" y="165" text-anchor="end" style="font:400 10px monospace;fill:#6b7280">0..*</text>
          <g transform="translate(374,156)" aria-label="containment">
            <path d="M6 1 L11 5 L6 9 L1 5 Z" style="fill:#1f2937;stroke:none"/>
          </g>
          <rect x="1" y="170" width="388" height="18" style="fill:#f0fdf4"/>
          <line x1="1" x2="389" y1="188" y2="188" style="stroke:#bbf7d0;stroke-width:1"/>
          <text x="18" y="183" style="font:400 11px sans-serif">miningTask</text>
          <text x="320" y="183" text-anchor="end" style="font:400 10px monospace;fill:#6b7280">MiningTask</text>
          <text x="358" y="183" text-anchor="end" style="font:400 10px monospace;fill:#6b7280">0..*</text>
          <g transform="translate(374,174)" aria-label="containment">
            <path d="M6 1 L11 5 L6 9 L1 5 Z" style="fill:#1f2937;stroke:none"/>
          </g>
          <rect x="1" y="188" width="388" height="18" style="fill:#f0fdf4"/>
          <line x1="1" x2="389" y1="206" y2="206" style="stroke:#bbf7d0;stroke-width:1"/>
          <text x="18" y="201" style="font:400 11px sans-serif">result</text>
          <text x="320" y="201" text-anchor="end" style="font:400 10px monospace;fill:#6b7280">MiningResult</text>
          <text x="358" y="201" text-anchor="end" style="font:400 10px monospace;fill:#6b7280">0..*</text>
          <g transform="translate(374,192)" aria-label="containment">
            <path d="M6 1 L11 5 L6 9 L1 5 Z" style="fill:#1f2937;stroke:none"/>
          </g>
        </g>
      </g>
    </g>
    <path class="dv-edge" d="M440,135 L460,135" style="stroke:#374151;"/>
    <path class="dv-edge" d="M440,189 L450,189 L450,221 L460,221" style="stroke:#374151;"/>
  </g>
</svg>
