<?xml version="1.0" encoding="UTF-8"?>
<svg xmlns="http://www.w3.org/2000/svg" width="245" height="68" viewBox="0 0 245 68">
  <defs>
    <style type="text/css">
      <![CDATA[
.dv-node rect.dv-frame { fill: #fff; stroke: #374151; stroke-width: 1; }
.dv-node .dv-title { font: 600 13px sans-serif; fill: #111827; }
.dv-node .dv-sub { font: 400 10px sans-serif; fill: #6b7280; }
.dv-edge { fill: none; stroke: #374151; stroke-width: 1.2; }
.dv-edge.fk { stroke: #334155; }
.dv-edge.inherit { stroke: #16a34a; }
.dv-edge.dep { stroke: #6b7280; stroke-dasharray: 4 3; }
.dv-label { font: 400 10px sans-serif; fill: #334155; }
.dv-cardinality { font: 400 10px sans-serif; fill: #1e293b; }
.dv-cardinality-bg { fill: #ffffff; }

]]>
    </style>
    <marker id="dv-arrow" viewBox="0 0 10 10" refX="9" refY="5" markerWidth="7" markerHeight="7" orient="auto-start-reverse">
      <path d="M0,0 L10,5 L0,10 z" fill="#374151"/>
    </marker>
    <marker id="dv-arrow-fk" viewBox="0 0 10 10" refX="9" refY="5" markerWidth="7" markerHeight="7" orient="auto-start-reverse">
      <path d="M0,0 L10,5 L0,10 z" fill="#334155"/>
    </marker>
    <marker id="dv-tri" viewBox="0 0 12 12" refX="11" refY="6" markerWidth="10" markerHeight="10" orient="auto-start-reverse">
      <path d="M0,0 L12,6 L0,12 z" fill="#fff" stroke="#16a34a"/>
    </marker>
    <marker id="dv-deco-open-arrow" viewBox="0 0 12 12" refX="11" refY="6" markerWidth="10" markerHeight="10" orient="auto-start-reverse">
      <path d="M0,0 L12,6 M0,12 L12,6" fill="none" stroke="#374151" stroke-width="1.40"/>
    </marker>
    <marker id="dv-deco-closed-arrow" viewBox="0 0 12 12" refX="11" refY="6" markerWidth="10" markerHeight="10" orient="auto-start-reverse">
      <path d="M0,0 L12,6 L0,12 z" fill="#374151"/>
    </marker>
    <marker id="dv-deco-triangle-hollow" viewBox="0 0 12 12" refX="12" refY="6" markerWidth="6" markerHeight="6" orient="auto-start-reverse">
      <path d="M0,0 L12,6 L0,12 z" fill="#fff" stroke="#374151" stroke-width="1.40"/>
    </marker>
    <marker id="dv-deco-triangle-filled" viewBox="0 0 12 12" refX="12" refY="6" markerWidth="6" markerHeight="6" orient="auto-start-reverse">
      <path d="M0,0 L12,6 L0,12 z" fill="#374151"/>
    </marker>
    <marker id="dv-deco-diamond-hollow" viewBox="0 0 12 12" refX="11" refY="6" markerWidth="12" markerHeight="12" orient="auto-start-reverse">
      <path d="M0,6 L6,0 L12,6 L6,12 z" fill="#fff" stroke="#374151" stroke-width="1.20"/>
    </marker>
    <marker id="dv-deco-diamond-filled" viewBox="0 0 12 12" refX="11" refY="6" markerWidth="12" markerHeight="12" orient="auto-start-reverse">
      <path d="M0,6 L6,0 L12,6 L6,12 z" fill="#374151"/>
    </marker>
    <marker id="dv-deco-crows-foot-many" viewBox="0 0 12 12" refX="11" refY="6" markerWidth="11" markerHeight="11" orient="auto-start-reverse">
      <path d="M12,6 L0,0 M12,6 L0,12 M12,6 L0,6" fill="none" stroke="#374151" stroke-width="1.30"/>
    </marker>
    <marker id="dv-deco-crows-foot-one" viewBox="0 0 12 12" refX="11" refY="6" markerWidth="8" markerHeight="11" orient="auto-start-reverse">
      <path d="M6,0 L6,12" fill="none" stroke="#374151" stroke-width="1.40"/>
    </marker>
    <marker id="dv-deco-crows-foot-many-opt" viewBox="0 0 12 12" refX="11" refY="6" markerWidth="14" markerHeight="11" orient="auto-start-reverse">
      <g>
        <circle cx="9.50" cy="6" r="2" fill="#fff" stroke="#374151" stroke-width="1.20"/>
        <path d="M7,6 L0,0 M7,6 L0,12 M7,6 L0,6" fill="none" stroke="#374151" stroke-width="1.30"/>
      </g>
    </marker>
    <marker id="dv-deco-crows-foot-one-opt" viewBox="0 0 12 12" refX="11" refY="6" markerWidth="12" markerHeight="11" orient="auto-start-reverse">
      <g>
        <circle cx="9.50" cy="6" r="2" fill="#fff" stroke="#374151" stroke-width="1.20"/>
        <path d="M5,0 L5,12" fill="none" stroke="#374151" stroke-width="1.40"/>
      </g>
    </marker>
  </defs>
  <g class="diagramvis-body" transform="translate(-4.0,-4.0)">
    <g class="dv-node dv-bi_6d304f9d" transform="translate(20,20)">
      <rect class="dv-frame" x="0" y="0" width="213" height="36" rx="4" ry="4"/>
      <rect x="0" y="0" width="213" height="28" rx="4" ry="4" style="fill:#374151"/>
      <rect x="0" y="24" width="213" height="4" style="fill:#374151"/>
      <circle cx="14" cy="14" r="9" style="fill:#ffffff;fill-opacity:0.18;stroke:#ffffff;stroke-opacity:0.6;stroke-width:1"/>
      <g transform="translate(8,8.0)">
        <path d="M2 1h6l3 3v7H2zM8 1v3h3M3 6h6M3 8h6" style="fill:#ffffff;stroke:none"/>
      </g>
      <text x="28" y="12" style="font:600 9px sans-serif;fill:#ffffff;letter-spacing:0.5px;opacity:0.85">DOCUMENT</text>
      <text x="28" y="23" style="font:600 13px sans-serif;fill:#ffffff">Operations runbook</text>
      <text x="10" y="43" style="font:400 11px sans-serif;fill:#111827">https://wiki.example.org/runbooks/sales</text>
      <rect x="1" y="48" width="211" height="16" style="fill:#f9fafb"/>
      <text x="10" y="59" style="font:400 11px sans-serif;fill:#111827">type: application/pdf</text>
    </g>
  </g>
</svg>
