<?xml version="1.0" encoding="UTF-8"?>
<svg xmlns="http://www.w3.org/2000/svg" width="336" height="990" viewBox="0 0 336 990">
  <defs>
    <style type="text/css">
      <![CDATA[
.dv-node rect.dv-frame { fill: #fff; stroke: #374151; stroke-width: 1; }
.dv-node .dv-title { font: 600 13px sans-serif; fill: #111827; }
.dv-node .dv-sub { font: 400 10px sans-serif; fill: #6b7280; }
.dv-edge { fill: none; stroke: #374151; stroke-width: 1.2; }
.dv-edge.fk { stroke: #334155; }
.dv-edge.inherit { stroke: #16a34a; }
.dv-edge.dep { stroke: #6b7280; stroke-dasharray: 4 3; }
.dv-label { font: 400 10px sans-serif; fill: #334155; }
.dv-cardinality { font: 400 10px sans-serif; fill: #1e293b; }
.dv-cardinality-bg { fill: #ffffff; }

]]>
    </style>
    <marker id="dv-arrow" viewBox="0 0 10 10" refX="9" refY="5" markerWidth="7" markerHeight="7" orient="auto-start-reverse">
      <path d="M0,0 L10,5 L0,10 z" fill="#374151"/>
    </marker>
    <marker id="dv-arrow-fk" viewBox="0 0 10 10" refX="9" refY="5" markerWidth="7" markerHeight="7" orient="auto-start-reverse">
      <path d="M0,0 L10,5 L0,10 z" fill="#334155"/>
    </marker>
    <marker id="dv-tri" viewBox="0 0 12 12" refX="11" refY="6" markerWidth="10" markerHeight="10" orient="auto-start-reverse">
      <path d="M0,0 L12,6 L0,12 z" fill="#fff" stroke="#16a34a"/>
    </marker>
    <marker id="dv-deco-open-arrow" viewBox="0 0 12 12" refX="11" refY="6" markerWidth="10" markerHeight="10" orient="auto-start-reverse">
      <path d="M0,0 L12,6 M0,12 L12,6" fill="none" stroke="#374151" stroke-width="1.40"/>
    </marker>
    <marker id="dv-deco-closed-arrow" viewBox="0 0 12 12" refX="11" refY="6" markerWidth="10" markerHeight="10" orient="auto-start-reverse">
      <path d="M0,0 L12,6 L0,12 z" fill="#374151"/>
    </marker>
    <marker id="dv-deco-triangle-hollow" viewBox="0 0 12 12" refX="12" refY="6" markerWidth="6" markerHeight="6" orient="auto-start-reverse">
      <path d="M0,0 L12,6 L0,12 z" fill="#fff" stroke="#374151" stroke-width="1.40"/>
    </marker>
    <marker id="dv-deco-triangle-filled" viewBox="0 0 12 12" refX="12" refY="6" markerWidth="6" markerHeight="6" orient="auto-start-reverse">
      <path d="M0,0 L12,6 L0,12 z" fill="#374151"/>
    </marker>
    <marker id="dv-deco-diamond-hollow" viewBox="0 0 12 12" refX="11" refY="6" markerWidth="12" markerHeight="12" orient="auto-start-reverse">
      <path d="M0,6 L6,0 L12,6 L6,12 z" fill="#fff" stroke="#374151" stroke-width="1.20"/>
    </marker>
    <marker id="dv-deco-diamond-filled" viewBox="0 0 12 12" refX="11" refY="6" markerWidth="12" markerHeight="12" orient="auto-start-reverse">
      <path d="M0,6 L6,0 L12,6 L6,12 z" fill="#374151"/>
    </marker>
    <marker id="dv-deco-crows-foot-many" viewBox="0 0 12 12" refX="11" refY="6" markerWidth="11" markerHeight="11" orient="auto-start-reverse">
      <path d="M12,6 L0,0 M12,6 L0,12 M12,6 L0,6" fill="none" stroke="#374151" stroke-width="1.30"/>
    </marker>
    <marker id="dv-deco-crows-foot-one" viewBox="0 0 12 12" refX="11" refY="6" markerWidth="8" markerHeight="11" orient="auto-start-reverse">
      <path d="M6,0 L6,12" fill="none" stroke="#374151" stroke-width="1.40"/>
    </marker>
    <marker id="dv-deco-crows-foot-many-opt" viewBox="0 0 12 12" refX="11" refY="6" markerWidth="14" markerHeight="11" orient="auto-start-reverse">
      <g>
        <circle cx="9.50" cy="6" r="2" fill="#fff" stroke="#374151" stroke-width="1.20"/>
        <path d="M7,6 L0,0 M7,6 L0,12 M7,6 L0,6" fill="none" stroke="#374151" stroke-width="1.30"/>
      </g>
    </marker>
    <marker id="dv-deco-crows-foot-one-opt" viewBox="0 0 12 12" refX="11" refY="6" markerWidth="12" markerHeight="11" orient="auto-start-reverse">
      <g>
        <circle cx="9.50" cy="6" r="2" fill="#fff" stroke="#374151" stroke-width="1.20"/>
        <path d="M5,0 L5,12" fill="none" stroke="#374151" stroke-width="1.40"/>
      </g>
    </marker>
  </defs>
  <g class="diagramvis-body" transform="translate(-4.0,-4.0)">
    <g class="dv-node dv-pkg_19f72e12" transform="translate(20,20)">
      <rect x="0" y="0" width="304" height="958" rx="6" ry="6" style="fill:#fafafa;stroke:#9ca3af;stroke-width:1;stroke-dasharray:5 3"/>
      <rect x="0" y="0" width="304" height="42" rx="6" ry="6" style="fill:#ddd6fe;stroke:#7c3aed;stroke-width:1"/>
      <text x="10" y="12" style="font:400 10px sans-serif;fill:#4c1d95;letter-spacing:0.06em">Package</text>
      <text x="10" y="25" style="font:600 12px sans-serif;fill:#4c1d95">cwm.resource.relational.enumerations</text>
      <text x="10" y="38" style="font:400 9px monospace;fill:#6b21a8">http://www.omg.org/spec/CWM/1.1/resource/relational/enumerations</text>
      <g class="dv-node dv-pkg_enum_12fb37b2" transform="translate(22,58)">
        <rect x="0" y="0" width="260" height="878" rx="6" ry="6" style="fill:#fafafa;stroke:#9ca3af;stroke-width:1;stroke-dasharray:5 3"/>
        <rect x="0" y="0" width="150" height="32" rx="6" ry="6" style="fill:#1f2937;stroke:none"/>
        <circle cx="16" cy="16" r="10" style="fill:#ffffff;fill-opacity:0.18;stroke:#ffffff;stroke-opacity:0.6;stroke-width:1"/>
        <g transform="translate(10,10.0)">
          <path d="M1 2h10v8H1zM2 4h8M2 6h8M2 8h8" style="fill:#ffffff;stroke:none"/>
        </g>
        <text x="32" y="13" style="font:600 9px sans-serif;fill:#ffffff;letter-spacing:0.5px;opacity:0.85">ENUMERATIONS</text>
        <text x="32" y="25" style="font:600 13px sans-serif;fill:#f9fafb">enumerations</text>
        <g class="dv-node dv-e_31b70b2a" transform="translate(20,172)">
          <rect class="dv-frame" x="0" y="0" width="220" height="80" rx="4" ry="4"/>
          <defs>
            <clipPath id="dv-clip-e_31b70b2a">
              <rect x="0" y="0" width="220" height="80" rx="4" ry="4"/>
            </clipPath>
          </defs>
          <g clip-path="url(#dv-clip-e_31b70b2a)">
            <rect class="dv-title-bar" x="0" y="0" width="220" height="28" rx="4" ry="4" style="fill:#7c2d12"/>
            <rect x="0" y="24" width="220" height="4" style="fill:#7c2d12"/>
            <g transform="translate(10,8)">
              <path d="M6 0 L1 3 L1 9 L6 12 L11 9 L11 3 Z" style="fill:none;stroke:#f9fafb;stroke-width:1"/>
              <circle cx="6" cy="6" r="2" style="fill:#f9fafb"/>
            </g>
            <text x="28" y="12" style="font:400 10px sans-serif;fill:#e5e7eb">Enumeration</text>
            <text class="dv-title" x="28" y="23" style="font:600 13px sans-serif;fill:#f9fafb">ActionOrientationType</text>
            <rect x="1" y="28" width="218" height="16" style="fill:#e9d5ff"/>
            <text x="10" y="39" style="font:600 9.0px sans-serif;fill:#374151;letter-spacing:0.5px">LITERALS</text>
            <rect x="1" y="44" width="218" height="18" style="fill:#faf5ff"/>
            <line x1="1" x2="219" y1="62" y2="62" style="stroke:#e9d5ff;stroke-width:1"/>
            <text x="10" y="57" style="font:400 11px sans-serif">row</text>
            <text x="210" y="57" text-anchor="end" style="font:400 10px monospace;fill:#6b7280">0</text>
            <rect x="1" y="62" width="218" height="18" style="fill:#faf5ff"/>
            <line x1="1" x2="219" y1="80" y2="80" style="stroke:#e9d5ff;stroke-width:1"/>
            <text x="10" y="75" style="font:400 11px sans-serif">statement</text>
            <text x="210" y="75" text-anchor="end" style="font:400 10px monospace;fill:#6b7280">1</text>
          </g>
        </g>
        <g class="dv-node dv-e_513babf3" transform="translate(20,538)">
          <rect class="dv-frame" x="0" y="0" width="220" height="80" rx="4" ry="4"/>
          <defs>
            <clipPath id="dv-clip-e_513babf3">
              <rect x="0" y="0" width="220" height="80" rx="4" ry="4"/>
            </clipPath>
          </defs>
          <g clip-path="url(#dv-clip-e_513babf3)">
            <rect class="dv-title-bar" x="0" y="0" width="220" height="28" rx="4" ry="4" style="fill:#7c2d12"/>
            <rect x="0" y="24" width="220" height="4" style="fill:#7c2d12"/>
            <g transform="translate(10,8)">
              <path d="M6 0 L1 3 L1 9 L6 12 L11 9 L11 3 Z" style="fill:none;stroke:#f9fafb;stroke-width:1"/>
              <circle cx="6" cy="6" r="2" style="fill:#f9fafb"/>
            </g>
            <text x="28" y="12" style="font:400 10px sans-serif;fill:#e5e7eb">Enumeration</text>
            <text class="dv-title" x="28" y="23" style="font:600 13px sans-serif;fill:#f9fafb">ConditionTimingType</text>
            <rect x="1" y="28" width="218" height="16" style="fill:#e9d5ff"/>
            <text x="10" y="39" style="font:600 9.0px sans-serif;fill:#374151;letter-spacing:0.5px">LITERALS</text>
            <rect x="1" y="44" width="218" height="18" style="fill:#faf5ff"/>
            <line x1="1" x2="219" y1="62" y2="62" style="stroke:#e9d5ff;stroke-width:1"/>
            <text x="10" y="57" style="font:400 11px sans-serif">before</text>
            <text x="210" y="57" text-anchor="end" style="font:400 10px monospace;fill:#6b7280">0</text>
            <rect x="1" y="62" width="218" height="18" style="fill:#faf5ff"/>
            <line x1="1" x2="219" y1="80" y2="80" style="stroke:#e9d5ff;stroke-width:1"/>
            <text x="10" y="75" style="font:400 11px sans-serif">after</text>
            <text x="210" y="75" text-anchor="end" style="font:400 10px monospace;fill:#6b7280">1</text>
          </g>
        </g>
        <g class="dv-node dv-e_6cf50207" transform="translate(20,50)">
          <rect class="dv-frame" x="0" y="0" width="220" height="98" rx="4" ry="4"/>
          <defs>
            <clipPath id="dv-clip-e_6cf50207">
              <rect x="0" y="0" width="220" height="98" rx="4" ry="4"/>
            </clipPath>
          </defs>
          <g clip-path="url(#dv-clip-e_6cf50207)">
            <rect class="dv-title-bar" x="0" y="0" width="220" height="28" rx="4" ry="4" style="fill:#7c2d12"/>
            <rect x="0" y="24" width="220" height="4" style="fill:#7c2d12"/>
            <g transform="translate(10,8)">
              <path d="M6 0 L1 3 L1 9 L6 12 L11 9 L11 3 Z" style="fill:none;stroke:#f9fafb;stroke-width:1"/>
              <circle cx="6" cy="6" r="2" style="fill:#f9fafb"/>
            </g>
            <text x="28" y="12" style="font:400 10px sans-serif;fill:#e5e7eb">Enumeration</text>
            <text class="dv-title" x="28" y="23" style="font:600 13px sans-serif;fill:#f9fafb">DeferrabilityType</text>
            <rect x="1" y="28" width="218" height="16" style="fill:#e9d5ff"/>
            <text x="10" y="39" style="font:600 9.0px sans-serif;fill:#374151;letter-spacing:0.5px">LITERALS</text>
            <rect x="1" y="44" width="218" height="18" style="fill:#faf5ff"/>
            <line x1="1" x2="219" y1="62" y2="62" style="stroke:#e9d5ff;stroke-width:1"/>
            <text x="10" y="57" style="font:400 11px sans-serif">initiallyDeferred</text>
            <text x="210" y="57" text-anchor="end" style="font:400 10px monospace;fill:#6b7280">0</text>
            <rect x="1" y="62" width="218" height="18" style="fill:#faf5ff"/>
            <line x1="1" x2="219" y1="80" y2="80" style="stroke:#e9d5ff;stroke-width:1"/>
            <text x="10" y="75" style="font:400 11px sans-serif">initiallyImmediate</text>
            <text x="210" y="75" text-anchor="end" style="font:400 10px monospace;fill:#6b7280">1</text>
            <rect x="1" y="80" width="218" height="18" style="fill:#faf5ff"/>
            <line x1="1" x2="219" y1="98" y2="98" style="stroke:#e9d5ff;stroke-width:1"/>
            <text x="10" y="93" style="font:400 11px sans-serif">notDeferrable</text>
            <text x="210" y="93" text-anchor="end" style="font:400 10px monospace;fill:#6b7280">2</text>
          </g>
        </g>
        <g class="dv-node dv-e_3f707d71" transform="translate(20,642)">
          <rect class="dv-frame" x="0" y="0" width="220" height="98" rx="4" ry="4"/>
          <defs>
            <clipPath id="dv-clip-e_3f707d71">
              <rect x="0" y="0" width="220" height="98" rx="4" ry="4"/>
            </clipPath>
          </defs>
          <g clip-path="url(#dv-clip-e_3f707d71)">
            <rect class="dv-title-bar" x="0" y="0" width="220" height="28" rx="4" ry="4" style="fill:#7c2d12"/>
            <rect x="0" y="24" width="220" height="4" style="fill:#7c2d12"/>
            <g transform="translate(10,8)">
              <path d="M6 0 L1 3 L1 9 L6 12 L11 9 L11 3 Z" style="fill:none;stroke:#f9fafb;stroke-width:1"/>
              <circle cx="6" cy="6" r="2" style="fill:#f9fafb"/>
            </g>
            <text x="28" y="12" style="font:400 10px sans-serif;fill:#e5e7eb">Enumeration</text>
            <text class="dv-title" x="28" y="23" style="font:600 13px sans-serif;fill:#f9fafb">EventManipulationType</text>
            <rect x="1" y="28" width="218" height="16" style="fill:#e9d5ff"/>
            <text x="10" y="39" style="font:600 9.0px sans-serif;fill:#374151;letter-spacing:0.5px">LITERALS</text>
            <rect x="1" y="44" width="218" height="18" style="fill:#faf5ff"/>
            <line x1="1" x2="219" y1="62" y2="62" style="stroke:#e9d5ff;stroke-width:1"/>
            <text x="10" y="57" style="font:400 11px sans-serif">insert</text>
            <text x="210" y="57" text-anchor="end" style="font:400 10px monospace;fill:#6b7280">0</text>
            <rect x="1" y="62" width="218" height="18" style="fill:#faf5ff"/>
            <line x1="1" x2="219" y1="80" y2="80" style="stroke:#e9d5ff;stroke-width:1"/>
            <text x="10" y="75" style="font:400 11px sans-serif">delete</text>
            <text x="210" y="75" text-anchor="end" style="font:400 10px monospace;fill:#6b7280">1</text>
            <rect x="1" y="80" width="218" height="18" style="fill:#faf5ff"/>
            <line x1="1" x2="219" y1="98" y2="98" style="stroke:#e9d5ff;stroke-width:1"/>
            <text x="10" y="93" style="font:400 11px sans-serif">update</text>
            <text x="210" y="93" text-anchor="end" style="font:400 10px monospace;fill:#6b7280">2</text>
          </g>
        </g>
        <g class="dv-node dv-e_3697cfee" transform="translate(20,764)">
          <rect class="dv-frame" x="0" y="0" width="220" height="98" rx="4" ry="4"/>
          <defs>
            <clipPath id="dv-clip-e_3697cfee">
              <rect x="0" y="0" width="220" height="98" rx="4" ry="4"/>
            </clipPath>
          </defs>
          <g clip-path="url(#dv-clip-e_3697cfee)">
            <rect class="dv-title-bar" x="0" y="0" width="220" height="28" rx="4" ry="4" style="fill:#7c2d12"/>
            <rect x="0" y="24" width="220" height="4" style="fill:#7c2d12"/>
            <g transform="translate(10,8)">
              <path d="M6 0 L1 3 L1 9 L6 12 L11 9 L11 3 Z" style="fill:none;stroke:#f9fafb;stroke-width:1"/>
              <circle cx="6" cy="6" r="2" style="fill:#f9fafb"/>
            </g>
            <text x="28" y="12" style="font:400 10px sans-serif;fill:#e5e7eb">Enumeration</text>
            <text class="dv-title" x="28" y="23" style="font:600 13px sans-serif;fill:#f9fafb">NullableType</text>
            <rect x="1" y="28" width="218" height="16" style="fill:#e9d5ff"/>
            <text x="10" y="39" style="font:600 9.0px sans-serif;fill:#374151;letter-spacing:0.5px">LITERALS</text>
            <rect x="1" y="44" width="218" height="18" style="fill:#faf5ff"/>
            <line x1="1" x2="219" y1="62" y2="62" style="stroke:#e9d5ff;stroke-width:1"/>
            <text x="10" y="57" style="font:400 11px sans-serif">columnNoNulls</text>
            <text x="210" y="57" text-anchor="end" style="font:400 10px monospace;fill:#6b7280">0</text>
            <rect x="1" y="62" width="218" height="18" style="fill:#faf5ff"/>
            <line x1="1" x2="219" y1="80" y2="80" style="stroke:#e9d5ff;stroke-width:1"/>
            <text x="10" y="75" style="font:400 11px sans-serif">columnNullable</text>
            <text x="210" y="75" text-anchor="end" style="font:400 10px monospace;fill:#6b7280">1</text>
            <rect x="1" y="80" width="218" height="18" style="fill:#faf5ff"/>
            <line x1="1" x2="219" y1="98" y2="98" style="stroke:#e9d5ff;stroke-width:1"/>
            <text x="10" y="93" style="font:400 11px sans-serif">columnNullableUnknown</text>
            <text x="210" y="93" text-anchor="end" style="font:400 10px monospace;fill:#6b7280">2</text>
          </g>
        </g>
        <g class="dv-node dv-e_3a7f9efc" transform="translate(20,276)">
          <rect class="dv-frame" x="0" y="0" width="220" height="80" rx="4" ry="4"/>
          <defs>
            <clipPath id="dv-clip-e_3a7f9efc">
              <rect x="0" y="0" width="220" height="80" rx="4" ry="4"/>
            </clipPath>
          </defs>
          <g clip-path="url(#dv-clip-e_3a7f9efc)">
            <rect class="dv-title-bar" x="0" y="0" width="220" height="28" rx="4" ry="4" style="fill:#7c2d12"/>
            <rect x="0" y="24" width="220" height="4" style="fill:#7c2d12"/>
            <g transform="translate(10,8)">
              <path d="M6 0 L1 3 L1 9 L6 12 L11 9 L11 3 Z" style="fill:none;stroke:#f9fafb;stroke-width:1"/>
              <circle cx="6" cy="6" r="2" style="fill:#f9fafb"/>
            </g>
            <text x="28" y="12" style="font:400 10px sans-serif;fill:#e5e7eb">Enumeration</text>
            <text class="dv-title" x="28" y="23" style="font:600 13px sans-serif;fill:#f9fafb">ProcedureType</text>
            <rect x="1" y="28" width="218" height="16" style="fill:#e9d5ff"/>
            <text x="10" y="39" style="font:600 9.0px sans-serif;fill:#374151;letter-spacing:0.5px">LITERALS</text>
            <rect x="1" y="44" width="218" height="18" style="fill:#faf5ff"/>
            <line x1="1" x2="219" y1="62" y2="62" style="stroke:#e9d5ff;stroke-width:1"/>
            <text x="10" y="57" style="font:400 11px sans-serif">procedure</text>
            <text x="210" y="57" text-anchor="end" style="font:400 10px monospace;fill:#6b7280">0</text>
            <rect x="1" y="62" width="218" height="18" style="fill:#faf5ff"/>
            <line x1="1" x2="219" y1="80" y2="80" style="stroke:#e9d5ff;stroke-width:1"/>
            <text x="10" y="75" style="font:400 11px sans-serif">function</text>
            <text x="210" y="75" text-anchor="end" style="font:400 10px monospace;fill:#6b7280">1</text>
          </g>
        </g>
        <g class="dv-node dv-e_7e5e568e" transform="translate(20,380)">
          <rect class="dv-frame" x="0" y="0" width="220" height="134" rx="4" ry="4"/>
          <defs>
            <clipPath id="dv-clip-e_7e5e568e">
              <rect x="0" y="0" width="220" height="134" rx="4" ry="4"/>
            </clipPath>
          </defs>
          <g clip-path="url(#dv-clip-e_7e5e568e)">
            <rect class="dv-title-bar" x="0" y="0" width="220" height="28" rx="4" ry="4" style="fill:#7c2d12"/>
            <rect x="0" y="24" width="220" height="4" style="fill:#7c2d12"/>
            <g transform="translate(10,8)">
              <path d="M6 0 L1 3 L1 9 L6 12 L11 9 L11 3 Z" style="fill:none;stroke:#f9fafb;stroke-width:1"/>
              <circle cx="6" cy="6" r="2" style="fill:#f9fafb"/>
            </g>
            <text x="28" y="12" style="font:400 10px sans-serif;fill:#e5e7eb">Enumeration</text>
            <text class="dv-title" x="28" y="23" style="font:600 13px sans-serif;fill:#f9fafb">ReferentialRuleType</text>
            <rect x="1" y="28" width="218" height="16" style="fill:#e9d5ff"/>
            <text x="10" y="39" style="font:600 9.0px sans-serif;fill:#374151;letter-spacing:0.5px">LITERALS</text>
            <rect x="1" y="44" width="218" height="18" style="fill:#faf5ff"/>
            <line x1="1" x2="219" y1="62" y2="62" style="stroke:#e9d5ff;stroke-width:1"/>
            <text x="10" y="57" style="font:400 11px sans-serif">importedKeyNoAction</text>
            <text x="210" y="57" text-anchor="end" style="font:400 10px monospace;fill:#6b7280">0</text>
            <rect x="1" y="62" width="218" height="18" style="fill:#faf5ff"/>
            <line x1="1" x2="219" y1="80" y2="80" style="stroke:#e9d5ff;stroke-width:1"/>
            <text x="10" y="75" style="font:400 11px sans-serif">importedKeyCascade</text>
            <text x="210" y="75" text-anchor="end" style="font:400 10px monospace;fill:#6b7280">1</text>
            <rect x="1" y="80" width="218" height="18" style="fill:#faf5ff"/>
            <line x1="1" x2="219" y1="98" y2="98" style="stroke:#e9d5ff;stroke-width:1"/>
            <text x="10" y="93" style="font:400 11px sans-serif">importedKeySetNull</text>
            <text x="210" y="93" text-anchor="end" style="font:400 10px monospace;fill:#6b7280">2</text>
            <rect x="1" y="98" width="218" height="18" style="fill:#faf5ff"/>
            <line x1="1" x2="219" y1="116" y2="116" style="stroke:#e9d5ff;stroke-width:1"/>
            <text x="10" y="111" style="font:400 11px sans-serif">importedKeyRestrict</text>
            <text x="210" y="111" text-anchor="end" style="font:400 10px monospace;fill:#6b7280">3</text>
            <rect x="1" y="116" width="218" height="18" style="fill:#faf5ff"/>
            <line x1="1" x2="219" y1="134" y2="134" style="stroke:#e9d5ff;stroke-width:1"/>
            <text x="10" y="129" style="font:400 11px sans-serif">importedKeySetDefault</text>
            <text x="210" y="129" text-anchor="end" style="font:400 10px monospace;fill:#6b7280">4</text>
          </g>
        </g>
      </g>
    </g>
  </g>
</svg>
