<?xml version="1.0" encoding="UTF-8"?>
<svg xmlns="http://www.w3.org/2000/svg" width="588" height="1112" viewBox="0 0 588 1112">
  <defs>
    <style type="text/css">
      <![CDATA[
.dv-node rect.dv-frame { fill: #fff; stroke: #374151; stroke-width: 1; }
.dv-node .dv-title { font: 600 13px sans-serif; fill: #111827; }
.dv-node .dv-sub { font: 400 10px sans-serif; fill: #6b7280; }
.dv-edge { fill: none; stroke: #374151; stroke-width: 1.2; }
.dv-edge.fk { stroke: #334155; }
.dv-edge.inherit { stroke: #16a34a; }
.dv-edge.dep { stroke: #6b7280; stroke-dasharray: 4 3; }
.dv-label { font: 400 10px sans-serif; fill: #334155; }
.dv-cardinality { font: 400 10px sans-serif; fill: #1e293b; }
.dv-cardinality-bg { fill: #ffffff; }

]]>
    </style>
    <marker id="dv-arrow" viewBox="0 0 10 10" refX="9" refY="5" markerWidth="7" markerHeight="7" orient="auto-start-reverse">
      <path d="M0,0 L10,5 L0,10 z" fill="#374151"/>
    </marker>
    <marker id="dv-arrow-fk" viewBox="0 0 10 10" refX="9" refY="5" markerWidth="7" markerHeight="7" orient="auto-start-reverse">
      <path d="M0,0 L10,5 L0,10 z" fill="#334155"/>
    </marker>
    <marker id="dv-tri" viewBox="0 0 12 12" refX="11" refY="6" markerWidth="10" markerHeight="10" orient="auto-start-reverse">
      <path d="M0,0 L12,6 L0,12 z" fill="#fff" stroke="#16a34a"/>
    </marker>
    <marker id="dv-deco-open-arrow" viewBox="0 0 12 12" refX="11" refY="6" markerWidth="10" markerHeight="10" orient="auto-start-reverse">
      <path d="M0,0 L12,6 M0,12 L12,6" fill="none" stroke="#374151" stroke-width="1.40"/>
    </marker>
    <marker id="dv-deco-closed-arrow" viewBox="0 0 12 12" refX="11" refY="6" markerWidth="10" markerHeight="10" orient="auto-start-reverse">
      <path d="M0,0 L12,6 L0,12 z" fill="#374151"/>
    </marker>
    <marker id="dv-deco-triangle-hollow" viewBox="0 0 12 12" refX="12" refY="6" markerWidth="6" markerHeight="6" orient="auto-start-reverse">
      <path d="M0,0 L12,6 L0,12 z" fill="#fff" stroke="#374151" stroke-width="1.40"/>
    </marker>
    <marker id="dv-deco-triangle-filled" viewBox="0 0 12 12" refX="12" refY="6" markerWidth="6" markerHeight="6" orient="auto-start-reverse">
      <path d="M0,0 L12,6 L0,12 z" fill="#374151"/>
    </marker>
    <marker id="dv-deco-diamond-hollow" viewBox="0 0 12 12" refX="11" refY="6" markerWidth="12" markerHeight="12" orient="auto-start-reverse">
      <path d="M0,6 L6,0 L12,6 L6,12 z" fill="#fff" stroke="#374151" stroke-width="1.20"/>
    </marker>
    <marker id="dv-deco-diamond-filled" viewBox="0 0 12 12" refX="11" refY="6" markerWidth="12" markerHeight="12" orient="auto-start-reverse">
      <path d="M0,6 L6,0 L12,6 L6,12 z" fill="#374151"/>
    </marker>
    <marker id="dv-deco-crows-foot-many" viewBox="0 0 12 12" refX="11" refY="6" markerWidth="11" markerHeight="11" orient="auto-start-reverse">
      <path d="M12,6 L0,0 M12,6 L0,12 M12,6 L0,6" fill="none" stroke="#374151" stroke-width="1.30"/>
    </marker>
    <marker id="dv-deco-crows-foot-one" viewBox="0 0 12 12" refX="11" refY="6" markerWidth="8" markerHeight="11" orient="auto-start-reverse">
      <path d="M6,0 L6,12" fill="none" stroke="#374151" stroke-width="1.40"/>
    </marker>
    <marker id="dv-deco-crows-foot-many-opt" viewBox="0 0 12 12" refX="11" refY="6" markerWidth="14" markerHeight="11" orient="auto-start-reverse">
      <g>
        <circle cx="9.50" cy="6" r="2" fill="#fff" stroke="#374151" stroke-width="1.20"/>
        <path d="M7,6 L0,0 M7,6 L0,12 M7,6 L0,6" fill="none" stroke="#374151" stroke-width="1.30"/>
      </g>
    </marker>
    <marker id="dv-deco-crows-foot-one-opt" viewBox="0 0 12 12" refX="11" refY="6" markerWidth="12" markerHeight="11" orient="auto-start-reverse">
      <g>
        <circle cx="9.50" cy="6" r="2" fill="#fff" stroke="#374151" stroke-width="1.20"/>
        <path d="M5,0 L5,12" fill="none" stroke="#374151" stroke-width="1.40"/>
      </g>
    </marker>
  </defs>
  <g class="diagramvis-body" transform="translate(-4.0,-4.0)">
    <g class="dv-node dv-pkg_64a9719a" transform="translate(20,20)">
      <rect x="0" y="0" width="556" height="1080" rx="6" ry="6" style="fill:#fafafa;stroke:#9ca3af;stroke-width:1;stroke-dasharray:5 3"/>
      <rect x="0" y="0" width="377" height="42" rx="6" ry="6" style="fill:#ddd6fe;stroke:#7c3aed;stroke-width:1"/>
      <text x="10" y="12" style="font:400 10px sans-serif;fill:#4c1d95;letter-spacing:0.06em">Package</text>
      <text x="10" y="25" style="font:600 12px sans-serif;fill:#4c1d95">cwm.foundation.businessinformation</text>
      <text x="10" y="38" style="font:400 9px monospace;fill:#6b21a8">http://www.omg.org/spec/CWM/1.1/foundation/businessinformation</text>
      <g class="dv-node dv-c_318ff889" transform="translate(26,668)">
        <rect class="dv-frame" x="0" y="0" width="246" height="96" rx="4" ry="4"/>
        <defs>
          <clipPath id="dv-clip-c_318ff889">
            <rect x="0" y="0" width="246" height="96" rx="4" ry="4"/>
          </clipPath>
        </defs>
        <g clip-path="url(#dv-clip-c_318ff889)">
          <rect class="dv-title-bar" x="0" y="0" width="246" height="28" rx="4" ry="4" style="fill:#1e3a8a"/>
          <rect x="0" y="24" width="246" height="4" style="fill:#1e3a8a"/>
          <g transform="translate(10,8)">
            <rect x="1" y="1" width="10" height="10" style="fill:none;stroke:#f9fafb;stroke-width:1"/>
            <line x1="1" y1="5" x2="11" y2="5" style="stroke:#f9fafb;stroke-width:0.8"/>
          </g>
          <text x="28" y="12" style="font:400 10px sans-serif;fill:#e5e7eb">Class</text>
          <text class="dv-title" x="28" y="23" style="font:600 13px sans-serif;fill:#f9fafb">ResponsibleParty</text>
          <rect x="1" y="28" width="244" height="16" style="fill:#dbeafe"/>
          <text x="10" y="39" style="font:600 9.0px sans-serif;fill:#374151;letter-spacing:0.5px">ATTRIBUTES</text>
          <rect x="1" y="44" width="244" height="18" style="fill:#eff6ff"/>
          <line x1="1" x2="245" y1="62" y2="62" style="stroke:#dbeafe;stroke-width:1"/>
          <text x="18" y="57" style="font:400 11px sans-serif">responsibility</text>
          <text x="190" y="57" text-anchor="end" style="font:400 10px monospace;fill:#6b7280">String</text>
          <text x="228" y="57" text-anchor="end" style="font:400 10px monospace;fill:#6b7280">0..1</text>
          <rect x="1" y="62" width="244" height="16" style="fill:#bbf7d0"/>
          <text x="10" y="73" style="font:600 9.0px sans-serif;fill:#374151;letter-spacing:0.5px">REFERENCES</text>
          <rect x="1" y="78" width="244" height="18" style="fill:#f0fdf4"/>
          <line x1="1" x2="245" y1="96" y2="96" style="stroke:#bbf7d0;stroke-width:1"/>
          <text x="18" y="91" style="font:400 11px sans-serif">modelElement</text>
          <text x="190" y="91" text-anchor="end" style="font:400 10px monospace;fill:#6b7280">ModelElement</text>
          <text x="228" y="91" text-anchor="end" style="font:400 10px monospace;fill:#6b7280">0..*</text>
          <g transform="translate(230,82)" aria-label="reference">
            <path d="M3 1 L9 5 L3 9" style="fill:none;stroke:#1f2937;stroke-width:1.4;stroke-linecap:round;stroke-linejoin:round"/>
          </g>
        </g>
      </g>
      <g class="dv-node dv-c_1dde749e" transform="translate(52,530)">
        <rect class="dv-frame" x="0" y="0" width="220" height="114" rx="4" ry="4"/>
        <defs>
          <clipPath id="dv-clip-c_1dde749e">
            <rect x="0" y="0" width="220" height="114" rx="4" ry="4"/>
          </clipPath>
        </defs>
        <g clip-path="url(#dv-clip-c_1dde749e)">
          <rect class="dv-title-bar" x="0" y="0" width="220" height="28" rx="4" ry="4" style="fill:#1e3a8a"/>
          <rect x="0" y="24" width="220" height="4" style="fill:#1e3a8a"/>
          <g transform="translate(10,8)">
            <rect x="1" y="1" width="10" height="10" style="fill:none;stroke:#f9fafb;stroke-width:1"/>
            <line x1="1" y1="5" x2="11" y2="5" style="stroke:#f9fafb;stroke-width:0.8"/>
          </g>
          <text x="28" y="12" style="font:400 10px sans-serif;fill:#e5e7eb">Class</text>
          <text class="dv-title" x="28" y="23" style="font:600 13px sans-serif;fill:#f9fafb">Telephone</text>
          <rect x="1" y="28" width="218" height="16" style="fill:#dbeafe"/>
          <text x="10" y="39" style="font:600 9.0px sans-serif;fill:#374151;letter-spacing:0.5px">ATTRIBUTES</text>
          <rect x="1" y="44" width="218" height="18" style="fill:#eff6ff"/>
          <line x1="1" x2="219" y1="62" y2="62" style="stroke:#dbeafe;stroke-width:1"/>
          <text x="18" y="57" style="font:400 11px sans-serif">phoneNumber</text>
          <text x="164" y="57" text-anchor="end" style="font:400 10px monospace;fill:#6b7280">String</text>
          <text x="202" y="57" text-anchor="end" style="font:400 10px monospace;fill:#6b7280">0..1</text>
          <rect x="1" y="62" width="218" height="18" style="fill:#eff6ff"/>
          <line x1="1" x2="219" y1="80" y2="80" style="stroke:#dbeafe;stroke-width:1"/>
          <text x="18" y="75" style="font:400 11px sans-serif">phoneType</text>
          <text x="164" y="75" text-anchor="end" style="font:400 10px monospace;fill:#6b7280">String</text>
          <text x="202" y="75" text-anchor="end" style="font:400 10px monospace;fill:#6b7280">0..1</text>
          <rect x="1" y="80" width="218" height="16" style="fill:#bbf7d0"/>
          <text x="10" y="91" style="font:600 9.0px sans-serif;fill:#374151;letter-spacing:0.5px">REFERENCES</text>
          <rect x="1" y="96" width="218" height="18" style="fill:#f0fdf4"/>
          <line x1="1" x2="219" y1="114" y2="114" style="stroke:#bbf7d0;stroke-width:1"/>
          <text x="18" y="109" style="font:400 11px sans-serif">contact</text>
          <text x="164" y="109" text-anchor="end" style="font:400 10px monospace;fill:#6b7280">Contact</text>
          <text x="202" y="109" text-anchor="end" style="font:400 10px monospace;fill:#6b7280">0..*</text>
          <g transform="translate(204,100)" aria-label="reference">
            <path d="M3 1 L9 5 L3 9" style="fill:none;stroke:#1f2937;stroke-width:1.4;stroke-linecap:round;stroke-linejoin:round"/>
          </g>
        </g>
      </g>
      <g class="dv-node dv-c_26a9754a" transform="translate(52,62)">
        <rect class="dv-frame" x="0" y="0" width="220" height="114" rx="4" ry="4"/>
        <defs>
          <clipPath id="dv-clip-c_26a9754a">
            <rect x="0" y="0" width="220" height="114" rx="4" ry="4"/>
          </clipPath>
        </defs>
        <g clip-path="url(#dv-clip-c_26a9754a)">
          <rect class="dv-title-bar" x="0" y="0" width="220" height="28" rx="4" ry="4" style="fill:#1e3a8a"/>
          <rect x="0" y="24" width="220" height="4" style="fill:#1e3a8a"/>
          <g transform="translate(10,8)">
            <rect x="1" y="1" width="10" height="10" style="fill:none;stroke:#f9fafb;stroke-width:1"/>
            <line x1="1" y1="5" x2="11" y2="5" style="stroke:#f9fafb;stroke-width:0.8"/>
          </g>
          <text x="28" y="12" style="font:400 10px sans-serif;fill:#e5e7eb">Class</text>
          <text class="dv-title" x="28" y="23" style="font:600 13px sans-serif;fill:#f9fafb">Email</text>
          <rect x="1" y="28" width="218" height="16" style="fill:#dbeafe"/>
          <text x="10" y="39" style="font:600 9.0px sans-serif;fill:#374151;letter-spacing:0.5px">ATTRIBUTES</text>
          <rect x="1" y="44" width="218" height="18" style="fill:#eff6ff"/>
          <line x1="1" x2="219" y1="62" y2="62" style="stroke:#dbeafe;stroke-width:1"/>
          <text x="18" y="57" style="font:400 11px sans-serif">emailAddress</text>
          <text x="164" y="57" text-anchor="end" style="font:400 10px monospace;fill:#6b7280">String</text>
          <text x="202" y="57" text-anchor="end" style="font:400 10px monospace;fill:#6b7280">0..1</text>
          <rect x="1" y="62" width="218" height="18" style="fill:#eff6ff"/>
          <line x1="1" x2="219" y1="80" y2="80" style="stroke:#dbeafe;stroke-width:1"/>
          <text x="18" y="75" style="font:400 11px sans-serif">emailType</text>
          <text x="164" y="75" text-anchor="end" style="font:400 10px monospace;fill:#6b7280">String</text>
          <text x="202" y="75" text-anchor="end" style="font:400 10px monospace;fill:#6b7280">0..1</text>
          <rect x="1" y="80" width="218" height="16" style="fill:#bbf7d0"/>
          <text x="10" y="91" style="font:600 9.0px sans-serif;fill:#374151;letter-spacing:0.5px">REFERENCES</text>
          <rect x="1" y="96" width="218" height="18" style="fill:#f0fdf4"/>
          <line x1="1" x2="219" y1="114" y2="114" style="stroke:#bbf7d0;stroke-width:1"/>
          <text x="18" y="109" style="font:400 11px sans-serif">contact</text>
          <text x="164" y="109" text-anchor="end" style="font:400 10px monospace;fill:#6b7280">Contact</text>
          <text x="202" y="109" text-anchor="end" style="font:400 10px monospace;fill:#6b7280">0..*</text>
          <g transform="translate(204,100)" aria-label="reference">
            <path d="M3 1 L9 5 L3 9" style="fill:none;stroke:#1f2937;stroke-width:1.4;stroke-linecap:round;stroke-linejoin:round"/>
          </g>
        </g>
      </g>
      <g class="dv-node dv-c_4bcb45e4" transform="translate(52,200)">
        <rect class="dv-frame" x="0" y="0" width="220" height="186" rx="4" ry="4"/>
        <defs>
          <clipPath id="dv-clip-c_4bcb45e4">
            <rect x="0" y="0" width="220" height="186" rx="4" ry="4"/>
          </clipPath>
        </defs>
        <g clip-path="url(#dv-clip-c_4bcb45e4)">
          <rect class="dv-title-bar" x="0" y="0" width="220" height="28" rx="4" ry="4" style="fill:#1e3a8a"/>
          <rect x="0" y="24" width="220" height="4" style="fill:#1e3a8a"/>
          <g transform="translate(10,8)">
            <rect x="1" y="1" width="10" height="10" style="fill:none;stroke:#f9fafb;stroke-width:1"/>
            <line x1="1" y1="5" x2="11" y2="5" style="stroke:#f9fafb;stroke-width:0.8"/>
          </g>
          <text x="28" y="12" style="font:400 10px sans-serif;fill:#e5e7eb">Class</text>
          <text class="dv-title" x="28" y="23" style="font:600 13px sans-serif;fill:#f9fafb">Location</text>
          <rect x="1" y="28" width="218" height="16" style="fill:#dbeafe"/>
          <text x="10" y="39" style="font:600 9.0px sans-serif;fill:#374151;letter-spacing:0.5px">ATTRIBUTES</text>
          <rect x="1" y="44" width="218" height="18" style="fill:#eff6ff"/>
          <line x1="1" x2="219" y1="62" y2="62" style="stroke:#dbeafe;stroke-width:1"/>
          <text x="18" y="57" style="font:400 11px sans-serif">locationType</text>
          <text x="164" y="57" text-anchor="end" style="font:400 10px monospace;fill:#6b7280">String</text>
          <text x="202" y="57" text-anchor="end" style="font:400 10px monospace;fill:#6b7280">0..1</text>
          <rect x="1" y="62" width="218" height="18" style="fill:#eff6ff"/>
          <line x1="1" x2="219" y1="80" y2="80" style="stroke:#dbeafe;stroke-width:1"/>
          <text x="18" y="75" style="font:400 11px sans-serif">address</text>
          <text x="164" y="75" text-anchor="end" style="font:400 10px monospace;fill:#6b7280">String</text>
          <text x="202" y="75" text-anchor="end" style="font:400 10px monospace;fill:#6b7280">0..1</text>
          <rect x="1" y="80" width="218" height="18" style="fill:#eff6ff"/>
          <line x1="1" x2="219" y1="98" y2="98" style="stroke:#dbeafe;stroke-width:1"/>
          <text x="18" y="93" style="font:400 11px sans-serif">city</text>
          <text x="164" y="93" text-anchor="end" style="font:400 10px monospace;fill:#6b7280">String</text>
          <text x="202" y="93" text-anchor="end" style="font:400 10px monospace;fill:#6b7280">0..1</text>
          <rect x="1" y="98" width="218" height="18" style="fill:#eff6ff"/>
          <line x1="1" x2="219" y1="116" y2="116" style="stroke:#dbeafe;stroke-width:1"/>
          <text x="18" y="111" style="font:400 11px sans-serif">postCode</text>
          <text x="164" y="111" text-anchor="end" style="font:400 10px monospace;fill:#6b7280">String</text>
          <text x="202" y="111" text-anchor="end" style="font:400 10px monospace;fill:#6b7280">0..1</text>
          <rect x="1" y="116" width="218" height="18" style="fill:#eff6ff"/>
          <line x1="1" x2="219" y1="134" y2="134" style="stroke:#dbeafe;stroke-width:1"/>
          <text x="18" y="129" style="font:400 11px sans-serif">area</text>
          <text x="164" y="129" text-anchor="end" style="font:400 10px monospace;fill:#6b7280">String</text>
          <text x="202" y="129" text-anchor="end" style="font:400 10px monospace;fill:#6b7280">0..1</text>
          <rect x="1" y="134" width="218" height="18" style="fill:#eff6ff"/>
          <line x1="1" x2="219" y1="152" y2="152" style="stroke:#dbeafe;stroke-width:1"/>
          <text x="18" y="147" style="font:400 11px sans-serif">country</text>
          <text x="164" y="147" text-anchor="end" style="font:400 10px monospace;fill:#6b7280">String</text>
          <text x="202" y="147" text-anchor="end" style="font:400 10px monospace;fill:#6b7280">0..1</text>
          <rect x="1" y="152" width="218" height="16" style="fill:#bbf7d0"/>
          <text x="10" y="163" style="font:600 9.0px sans-serif;fill:#374151;letter-spacing:0.5px">REFERENCES</text>
          <rect x="1" y="168" width="218" height="18" style="fill:#f0fdf4"/>
          <line x1="1" x2="219" y1="186" y2="186" style="stroke:#bbf7d0;stroke-width:1"/>
          <text x="18" y="181" style="font:400 11px sans-serif">contact</text>
          <text x="164" y="181" text-anchor="end" style="font:400 10px monospace;fill:#6b7280">Contact</text>
          <text x="202" y="181" text-anchor="end" style="font:400 10px monospace;fill:#6b7280">0..*</text>
          <g transform="translate(204,172)" aria-label="reference">
            <path d="M3 1 L9 5 L3 9" style="fill:none;stroke:#1f2937;stroke-width:1.4;stroke-linecap:round;stroke-linejoin:round"/>
          </g>
        </g>
      </g>
      <g class="dv-node dv-c_3d3362f5" transform="translate(310,306)">
        <rect class="dv-frame" x="0" y="0" width="220" height="116" rx="4" ry="4"/>
        <defs>
          <clipPath id="dv-clip-c_3d3362f5">
            <rect x="0" y="0" width="220" height="116" rx="4" ry="4"/>
          </clipPath>
        </defs>
        <g clip-path="url(#dv-clip-c_3d3362f5)">
          <rect class="dv-title-bar" x="0" y="0" width="220" height="28" rx="4" ry="4" style="fill:#1e3a8a"/>
          <rect x="0" y="24" width="220" height="4" style="fill:#1e3a8a"/>
          <g transform="translate(10,8)">
            <rect x="1" y="1" width="10" height="10" style="fill:none;stroke:#f9fafb;stroke-width:1"/>
            <line x1="1" y1="5" x2="11" y2="5" style="stroke:#f9fafb;stroke-width:0.8"/>
          </g>
          <text x="28" y="12" style="font:400 10px sans-serif;fill:#e5e7eb">Class</text>
          <text class="dv-title" x="28" y="23" style="font:600 13px sans-serif;fill:#f9fafb">Contact</text>
          <rect x="1" y="28" width="218" height="16" style="fill:#bbf7d0"/>
          <text x="10" y="39" style="font:600 9.0px sans-serif;fill:#374151;letter-spacing:0.5px">REFERENCES</text>
          <rect x="1" y="44" width="218" height="18" style="fill:#f0fdf4"/>
          <line x1="1" x2="219" y1="62" y2="62" style="stroke:#bbf7d0;stroke-width:1"/>
          <text x="18" y="57" style="font:400 11px sans-serif">email</text>
          <text x="164" y="57" text-anchor="end" style="font:400 10px monospace;fill:#6b7280">Email</text>
          <text x="202" y="57" text-anchor="end" style="font:400 10px monospace;fill:#6b7280">0..*</text>
          <g transform="translate(204,48)" aria-label="reference">
            <path d="M3 1 L9 5 L3 9" style="fill:none;stroke:#1f2937;stroke-width:1.4;stroke-linecap:round;stroke-linejoin:round"/>
          </g>
          <rect x="1" y="62" width="218" height="18" style="fill:#f0fdf4"/>
          <line x1="1" x2="219" y1="80" y2="80" style="stroke:#bbf7d0;stroke-width:1"/>
          <text x="18" y="75" style="font:400 11px sans-serif">location</text>
          <text x="164" y="75" text-anchor="end" style="font:400 10px monospace;fill:#6b7280">Location</text>
          <text x="202" y="75" text-anchor="end" style="font:400 10px monospace;fill:#6b7280">0..*</text>
          <g transform="translate(204,66)" aria-label="reference">
            <path d="M3 1 L9 5 L3 9" style="fill:none;stroke:#1f2937;stroke-width:1.4;stroke-linecap:round;stroke-linejoin:round"/>
          </g>
          <rect x="1" y="80" width="218" height="18" style="fill:#f0fdf4"/>
          <line x1="1" x2="219" y1="98" y2="98" style="stroke:#bbf7d0;stroke-width:1"/>
          <text x="18" y="93" style="font:400 11px sans-serif">url</text>
          <text x="164" y="93" text-anchor="end" style="font:400 10px monospace;fill:#6b7280">ResourceLocator</text>
          <text x="202" y="93" text-anchor="end" style="font:400 10px monospace;fill:#6b7280">0..*</text>
          <g transform="translate(204,84)" aria-label="reference">
            <path d="M3 1 L9 5 L3 9" style="fill:none;stroke:#1f2937;stroke-width:1.4;stroke-linecap:round;stroke-linejoin:round"/>
          </g>
          <rect x="1" y="98" width="218" height="18" style="fill:#f0fdf4"/>
          <line x1="1" x2="219" y1="116" y2="116" style="stroke:#bbf7d0;stroke-width:1"/>
          <text x="18" y="111" style="font:400 11px sans-serif">telephone</text>
          <text x="164" y="111" text-anchor="end" style="font:400 10px monospace;fill:#6b7280">Telephone</text>
          <text x="202" y="111" text-anchor="end" style="font:400 10px monospace;fill:#6b7280">0..*</text>
          <g transform="translate(204,102)" aria-label="reference">
            <path d="M3 1 L9 5 L3 9" style="fill:none;stroke:#1f2937;stroke-width:1.4;stroke-linecap:round;stroke-linejoin:round"/>
          </g>
        </g>
      </g>
      <g class="dv-node dv-c_38a2fbc3" transform="translate(26,926)">
        <rect class="dv-frame" x="0" y="0" width="246" height="132" rx="4" ry="4"/>
        <defs>
          <clipPath id="dv-clip-c_38a2fbc3">
            <rect x="0" y="0" width="246" height="132" rx="4" ry="4"/>
          </clipPath>
        </defs>
        <g clip-path="url(#dv-clip-c_38a2fbc3)">
          <rect class="dv-title-bar" x="0" y="0" width="246" height="28" rx="4" ry="4" style="fill:#1e3a8a"/>
          <rect x="0" y="24" width="246" height="4" style="fill:#1e3a8a"/>
          <g transform="translate(10,8)">
            <rect x="1" y="1" width="10" height="10" style="fill:none;stroke:#f9fafb;stroke-width:1"/>
            <line x1="1" y1="5" x2="11" y2="5" style="stroke:#f9fafb;stroke-width:0.8"/>
          </g>
          <text x="28" y="12" style="font:400 10px sans-serif;fill:#e5e7eb">Class</text>
          <text class="dv-title" x="28" y="23" style="font:600 13px sans-serif;fill:#f9fafb">Description</text>
          <rect x="1" y="28" width="244" height="16" style="fill:#dbeafe"/>
          <text x="10" y="39" style="font:600 9.0px sans-serif;fill:#374151;letter-spacing:0.5px">ATTRIBUTES</text>
          <rect x="1" y="44" width="244" height="18" style="fill:#eff6ff"/>
          <line x1="1" x2="245" y1="62" y2="62" style="stroke:#dbeafe;stroke-width:1"/>
          <text x="18" y="57" style="font:400 11px sans-serif">body</text>
          <text x="190" y="57" text-anchor="end" style="font:400 10px monospace;fill:#6b7280">String</text>
          <text x="228" y="57" text-anchor="end" style="font:400 10px monospace;fill:#6b7280">0..1</text>
          <rect x="1" y="62" width="244" height="18" style="fill:#eff6ff"/>
          <line x1="1" x2="245" y1="80" y2="80" style="stroke:#dbeafe;stroke-width:1"/>
          <text x="18" y="75" style="font:400 11px sans-serif">language</text>
          <text x="190" y="75" text-anchor="end" style="font:400 10px monospace;fill:#6b7280">Name</text>
          <text x="228" y="75" text-anchor="end" style="font:400 10px monospace;fill:#6b7280">0..1</text>
          <rect x="1" y="80" width="244" height="18" style="fill:#eff6ff"/>
          <line x1="1" x2="245" y1="98" y2="98" style="stroke:#dbeafe;stroke-width:1"/>
          <text x="18" y="93" style="font:400 11px sans-serif">type</text>
          <text x="190" y="93" text-anchor="end" style="font:400 10px monospace;fill:#6b7280">String</text>
          <text x="228" y="93" text-anchor="end" style="font:400 10px monospace;fill:#6b7280">0..1</text>
          <rect x="1" y="98" width="244" height="16" style="fill:#bbf7d0"/>
          <text x="10" y="109" style="font:600 9.0px sans-serif;fill:#374151;letter-spacing:0.5px">REFERENCES</text>
          <rect x="1" y="114" width="244" height="18" style="fill:#f0fdf4"/>
          <line x1="1" x2="245" y1="132" y2="132" style="stroke:#bbf7d0;stroke-width:1"/>
          <text x="18" y="127" style="font:400 11px sans-serif">modelElement</text>
          <text x="190" y="127" text-anchor="end" style="font:400 10px monospace;fill:#6b7280">ModelElement</text>
          <text x="228" y="127" text-anchor="end" style="font:400 10px monospace;fill:#6b7280">0..*</text>
          <g transform="translate(230,118)" aria-label="reference">
            <path d="M3 1 L9 5 L3 9" style="fill:none;stroke:#1f2937;stroke-width:1.4;stroke-linecap:round;stroke-linejoin:round"/>
          </g>
        </g>
      </g>
      <g class="dv-node dv-c_6e089bcb" transform="translate(26,788)">
        <rect class="dv-frame" x="0" y="0" width="246" height="114" rx="4" ry="4"/>
        <defs>
          <clipPath id="dv-clip-c_6e089bcb">
            <rect x="0" y="0" width="246" height="114" rx="4" ry="4"/>
          </clipPath>
        </defs>
        <g clip-path="url(#dv-clip-c_6e089bcb)">
          <rect class="dv-title-bar" x="0" y="0" width="246" height="28" rx="4" ry="4" style="fill:#1e3a8a"/>
          <rect x="0" y="24" width="246" height="4" style="fill:#1e3a8a"/>
          <g transform="translate(10,8)">
            <rect x="1" y="1" width="10" height="10" style="fill:none;stroke:#f9fafb;stroke-width:1"/>
            <line x1="1" y1="5" x2="11" y2="5" style="stroke:#f9fafb;stroke-width:0.8"/>
          </g>
          <text x="28" y="12" style="font:400 10px sans-serif;fill:#e5e7eb">Class</text>
          <text class="dv-title" x="28" y="23" style="font:600 13px sans-serif;fill:#f9fafb">Document</text>
          <rect x="1" y="28" width="244" height="16" style="fill:#dbeafe"/>
          <text x="10" y="39" style="font:600 9.0px sans-serif;fill:#374151;letter-spacing:0.5px">ATTRIBUTES</text>
          <rect x="1" y="44" width="244" height="18" style="fill:#eff6ff"/>
          <line x1="1" x2="245" y1="62" y2="62" style="stroke:#dbeafe;stroke-width:1"/>
          <text x="18" y="57" style="font:400 11px sans-serif">reference</text>
          <text x="190" y="57" text-anchor="end" style="font:400 10px monospace;fill:#6b7280">String</text>
          <text x="228" y="57" text-anchor="end" style="font:400 10px monospace;fill:#6b7280">0..1</text>
          <rect x="1" y="62" width="244" height="18" style="fill:#eff6ff"/>
          <line x1="1" x2="245" y1="80" y2="80" style="stroke:#dbeafe;stroke-width:1"/>
          <text x="18" y="75" style="font:400 11px sans-serif">type</text>
          <text x="190" y="75" text-anchor="end" style="font:400 10px monospace;fill:#6b7280">String</text>
          <text x="228" y="75" text-anchor="end" style="font:400 10px monospace;fill:#6b7280">0..1</text>
          <rect x="1" y="80" width="244" height="16" style="fill:#bbf7d0"/>
          <text x="10" y="91" style="font:600 9.0px sans-serif;fill:#374151;letter-spacing:0.5px">REFERENCES</text>
          <rect x="1" y="96" width="244" height="18" style="fill:#f0fdf4"/>
          <line x1="1" x2="245" y1="114" y2="114" style="stroke:#bbf7d0;stroke-width:1"/>
          <text x="18" y="109" style="font:400 11px sans-serif">modelElement</text>
          <text x="190" y="109" text-anchor="end" style="font:400 10px monospace;fill:#6b7280">ModelElement</text>
          <text x="228" y="109" text-anchor="end" style="font:400 10px monospace;fill:#6b7280">0..*</text>
          <g transform="translate(230,100)" aria-label="reference">
            <path d="M3 1 L9 5 L3 9" style="fill:none;stroke:#1f2937;stroke-width:1.4;stroke-linecap:round;stroke-linejoin:round"/>
          </g>
        </g>
      </g>
      <g class="dv-node dv-c_5c936b5f" transform="translate(52,410)">
        <rect class="dv-frame" x="0" y="0" width="220" height="96" rx="4" ry="4"/>
        <defs>
          <clipPath id="dv-clip-c_5c936b5f">
            <rect x="0" y="0" width="220" height="96" rx="4" ry="4"/>
          </clipPath>
        </defs>
        <g clip-path="url(#dv-clip-c_5c936b5f)">
          <rect class="dv-title-bar" x="0" y="0" width="220" height="28" rx="4" ry="4" style="fill:#1e3a8a"/>
          <rect x="0" y="24" width="220" height="4" style="fill:#1e3a8a"/>
          <g transform="translate(10,8)">
            <rect x="1" y="1" width="10" height="10" style="fill:none;stroke:#f9fafb;stroke-width:1"/>
            <line x1="1" y1="5" x2="11" y2="5" style="stroke:#f9fafb;stroke-width:0.8"/>
          </g>
          <text x="28" y="12" style="font:400 10px sans-serif;fill:#e5e7eb">Class</text>
          <text class="dv-title" x="28" y="23" style="font:600 13px sans-serif;fill:#f9fafb">ResourceLocator</text>
          <rect x="1" y="28" width="218" height="16" style="fill:#dbeafe"/>
          <text x="10" y="39" style="font:600 9.0px sans-serif;fill:#374151;letter-spacing:0.5px">ATTRIBUTES</text>
          <rect x="1" y="44" width="218" height="18" style="fill:#eff6ff"/>
          <line x1="1" x2="219" y1="62" y2="62" style="stroke:#dbeafe;stroke-width:1"/>
          <text x="18" y="57" style="font:400 11px sans-serif">url</text>
          <text x="164" y="57" text-anchor="end" style="font:400 10px monospace;fill:#6b7280">String</text>
          <text x="202" y="57" text-anchor="end" style="font:400 10px monospace;fill:#6b7280">0..1</text>
          <rect x="1" y="62" width="218" height="16" style="fill:#bbf7d0"/>
          <text x="10" y="73" style="font:600 9.0px sans-serif;fill:#374151;letter-spacing:0.5px">REFERENCES</text>
          <rect x="1" y="78" width="218" height="18" style="fill:#f0fdf4"/>
          <line x1="1" x2="219" y1="96" y2="96" style="stroke:#bbf7d0;stroke-width:1"/>
          <text x="18" y="91" style="font:400 11px sans-serif">contact</text>
          <text x="164" y="91" text-anchor="end" style="font:400 10px monospace;fill:#6b7280">Contact</text>
          <text x="202" y="91" text-anchor="end" style="font:400 10px monospace;fill:#6b7280">0..*</text>
          <g transform="translate(204,82)" aria-label="reference">
            <path d="M3 1 L9 5 L3 9" style="fill:none;stroke:#1f2937;stroke-width:1.4;stroke-linecap:round;stroke-linejoin:round"/>
          </g>
        </g>
      </g>
    </g>
    <path class="dv-edge" d="M296,655 L316,655 L316,433 L326,433" style="stroke:#374151;"/>
    <path class="dv-edge" d="M296,187 L306,187 L306,379 L326,379" style="stroke:#374151;"/>
    <path class="dv-edge" d="M296,397 L326,397" style="stroke:#374151;"/>
    <path class="dv-edge" d="M296,517 L306,517 L306,415 L326,415" style="stroke:#374151;"/>
  </g>
</svg>
