<?xml version="1.0" encoding="UTF-8"?>
<svg xmlns="http://www.w3.org/2000/svg" width="369" height="368" viewBox="0 0 369 368">
  <defs>
    <style type="text/css">
      <![CDATA[
.dv-node rect.dv-frame { fill: #fff; stroke: #374151; stroke-width: 1; }
.dv-node .dv-title { font: 600 13px sans-serif; fill: #111827; }
.dv-node .dv-sub { font: 400 10px sans-serif; fill: #6b7280; }
.dv-edge { fill: none; stroke: #374151; stroke-width: 1.2; }
.dv-edge.fk { stroke: #334155; }
.dv-edge.inherit { stroke: #16a34a; }
.dv-edge.dep { stroke: #6b7280; stroke-dasharray: 4 3; }
.dv-label { font: 400 10px sans-serif; fill: #334155; }
.dv-cardinality { font: 400 10px sans-serif; fill: #1e293b; }
.dv-cardinality-bg { fill: #ffffff; }

]]>
    </style>
    <marker id="dv-arrow" viewBox="0 0 10 10" refX="9" refY="5" markerWidth="7" markerHeight="7" orient="auto-start-reverse">
      <path d="M0,0 L10,5 L0,10 z" fill="#374151"/>
    </marker>
    <marker id="dv-arrow-fk" viewBox="0 0 10 10" refX="9" refY="5" markerWidth="7" markerHeight="7" orient="auto-start-reverse">
      <path d="M0,0 L10,5 L0,10 z" fill="#334155"/>
    </marker>
    <marker id="dv-tri" viewBox="0 0 12 12" refX="11" refY="6" markerWidth="10" markerHeight="10" orient="auto-start-reverse">
      <path d="M0,0 L12,6 L0,12 z" fill="#fff" stroke="#16a34a"/>
    </marker>
    <marker id="dv-deco-open-arrow" viewBox="0 0 12 12" refX="11" refY="6" markerWidth="10" markerHeight="10" orient="auto-start-reverse">
      <path d="M0,0 L12,6 M0,12 L12,6" fill="none" stroke="#374151" stroke-width="1.40"/>
    </marker>
    <marker id="dv-deco-closed-arrow" viewBox="0 0 12 12" refX="11" refY="6" markerWidth="10" markerHeight="10" orient="auto-start-reverse">
      <path d="M0,0 L12,6 L0,12 z" fill="#374151"/>
    </marker>
    <marker id="dv-deco-triangle-hollow" viewBox="0 0 12 12" refX="12" refY="6" markerWidth="6" markerHeight="6" orient="auto-start-reverse">
      <path d="M0,0 L12,6 L0,12 z" fill="#fff" stroke="#374151" stroke-width="1.40"/>
    </marker>
    <marker id="dv-deco-triangle-filled" viewBox="0 0 12 12" refX="12" refY="6" markerWidth="6" markerHeight="6" orient="auto-start-reverse">
      <path d="M0,0 L12,6 L0,12 z" fill="#374151"/>
    </marker>
    <marker id="dv-deco-diamond-hollow" viewBox="0 0 12 12" refX="11" refY="6" markerWidth="12" markerHeight="12" orient="auto-start-reverse">
      <path d="M0,6 L6,0 L12,6 L6,12 z" fill="#fff" stroke="#374151" stroke-width="1.20"/>
    </marker>
    <marker id="dv-deco-diamond-filled" viewBox="0 0 12 12" refX="11" refY="6" markerWidth="12" markerHeight="12" orient="auto-start-reverse">
      <path d="M0,6 L6,0 L12,6 L6,12 z" fill="#374151"/>
    </marker>
    <marker id="dv-deco-crows-foot-many" viewBox="0 0 12 12" refX="11" refY="6" markerWidth="11" markerHeight="11" orient="auto-start-reverse">
      <path d="M12,6 L0,0 M12,6 L0,12 M12,6 L0,6" fill="none" stroke="#374151" stroke-width="1.30"/>
    </marker>
    <marker id="dv-deco-crows-foot-one" viewBox="0 0 12 12" refX="11" refY="6" markerWidth="8" markerHeight="11" orient="auto-start-reverse">
      <path d="M6,0 L6,12" fill="none" stroke="#374151" stroke-width="1.40"/>
    </marker>
    <marker id="dv-deco-crows-foot-many-opt" viewBox="0 0 12 12" refX="11" refY="6" markerWidth="14" markerHeight="11" orient="auto-start-reverse">
      <g>
        <circle cx="9.50" cy="6" r="2" fill="#fff" stroke="#374151" stroke-width="1.20"/>
        <path d="M7,6 L0,0 M7,6 L0,12 M7,6 L0,6" fill="none" stroke="#374151" stroke-width="1.30"/>
      </g>
    </marker>
    <marker id="dv-deco-crows-foot-one-opt" viewBox="0 0 12 12" refX="11" refY="6" markerWidth="12" markerHeight="11" orient="auto-start-reverse">
      <g>
        <circle cx="9.50" cy="6" r="2" fill="#fff" stroke="#374151" stroke-width="1.20"/>
        <path d="M5,0 L5,12" fill="none" stroke="#374151" stroke-width="1.40"/>
      </g>
    </marker>
  </defs>
  <g class="diagramvis-body" transform="translate(-4.0,-4.0)">
    <g class="dv-node dv-pkg_57be28d1" transform="translate(20,20)">
      <rect x="0" y="0" width="337" height="336" rx="6" ry="6" style="fill:#fafafa;stroke:#9ca3af;stroke-width:1;stroke-dasharray:5 3"/>
      <rect x="0" y="0" width="333" height="42" rx="6" ry="6" style="fill:#ddd6fe;stroke:#7c3aed;stroke-width:1"/>
      <text x="10" y="12" style="font:400 10px sans-serif;fill:#4c1d95;letter-spacing:0.06em">Package</text>
      <text x="10" y="25" style="font:600 12px sans-serif;fill:#4c1d95">cwm.foundation.typemapping</text>
      <text x="10" y="38" style="font:400 9px monospace;fill:#6b21a8">http://www.omg.org/spec/CWM/1.1/foundation/typemapping</text>
      <g class="dv-node dv-c_361d56a3" transform="translate(58.50,62)">
        <rect class="dv-frame" x="0" y="0" width="220" height="132" rx="4" ry="4"/>
        <defs>
          <clipPath id="dv-clip-c_361d56a3">
            <rect x="0" y="0" width="220" height="132" rx="4" ry="4"/>
          </clipPath>
        </defs>
        <g clip-path="url(#dv-clip-c_361d56a3)">
          <rect class="dv-title-bar" x="0" y="0" width="220" height="28" rx="4" ry="4" style="fill:#1e3a8a"/>
          <rect x="0" y="24" width="220" height="4" style="fill:#1e3a8a"/>
          <g transform="translate(10,8)">
            <rect x="1" y="1" width="10" height="10" style="fill:none;stroke:#f9fafb;stroke-width:1"/>
            <line x1="1" y1="5" x2="11" y2="5" style="stroke:#f9fafb;stroke-width:0.8"/>
          </g>
          <text x="28" y="12" style="font:400 10px sans-serif;fill:#e5e7eb">Class</text>
          <text class="dv-title" x="28" y="23" style="font:600 13px sans-serif;fill:#f9fafb">TypeMapping</text>
          <rect x="1" y="28" width="218" height="16" style="fill:#dbeafe"/>
          <text x="10" y="39" style="font:600 9.0px sans-serif;fill:#374151;letter-spacing:0.5px">ATTRIBUTES</text>
          <rect x="1" y="44" width="218" height="18" style="fill:#eff6ff"/>
          <line x1="1" x2="219" y1="62" y2="62" style="stroke:#dbeafe;stroke-width:1"/>
          <text x="18" y="57" style="font:400 11px sans-serif">isBestMatch</text>
          <text x="164" y="57" text-anchor="end" style="font:400 10px monospace;fill:#6b7280">Boolean</text>
          <text x="202" y="57" text-anchor="end" style="font:400 10px monospace;fill:#6b7280">0..1</text>
          <rect x="1" y="62" width="218" height="18" style="fill:#eff6ff"/>
          <line x1="1" x2="219" y1="80" y2="80" style="stroke:#dbeafe;stroke-width:1"/>
          <text x="18" y="75" style="font:400 11px sans-serif">isLossy</text>
          <text x="164" y="75" text-anchor="end" style="font:400 10px monospace;fill:#6b7280">Boolean</text>
          <text x="202" y="75" text-anchor="end" style="font:400 10px monospace;fill:#6b7280">0..1</text>
          <rect x="1" y="80" width="218" height="16" style="fill:#bbf7d0"/>
          <text x="10" y="91" style="font:600 9.0px sans-serif;fill:#374151;letter-spacing:0.5px">REFERENCES</text>
          <rect x="1" y="96" width="218" height="18" style="fill:#f0fdf4"/>
          <line x1="1" x2="219" y1="114" y2="114" style="stroke:#bbf7d0;stroke-width:1"/>
          <text x="18" y="109" style="font:400 11px sans-serif">sourceType</text>
          <text x="164" y="109" text-anchor="end" style="font:400 10px monospace;fill:#6b7280">Classifier</text>
          <text x="202" y="109" text-anchor="end" style="font:400 10px monospace;fill:#6b7280">1..1</text>
          <g transform="translate(204,100)" aria-label="reference">
            <path d="M3 1 L9 5 L3 9" style="fill:none;stroke:#1f2937;stroke-width:1.4;stroke-linecap:round;stroke-linejoin:round"/>
          </g>
          <rect x="1" y="114" width="218" height="18" style="fill:#f0fdf4"/>
          <line x1="1" x2="219" y1="132" y2="132" style="stroke:#bbf7d0;stroke-width:1"/>
          <text x="18" y="127" style="font:400 11px sans-serif">targetType</text>
          <text x="164" y="127" text-anchor="end" style="font:400 10px monospace;fill:#6b7280">Classifier</text>
          <text x="202" y="127" text-anchor="end" style="font:400 10px monospace;fill:#6b7280">1..1</text>
          <g transform="translate(204,118)" aria-label="reference">
            <path d="M3 1 L9 5 L3 9" style="fill:none;stroke:#1f2937;stroke-width:1.4;stroke-linecap:round;stroke-linejoin:round"/>
          </g>
        </g>
      </g>
      <g class="dv-node dv-c_65b869b4" transform="translate(26,218)">
        <rect class="dv-frame" x="0" y="0" width="285" height="96" rx="4" ry="4"/>
        <defs>
          <clipPath id="dv-clip-c_65b869b4">
            <rect x="0" y="0" width="285" height="96" rx="4" ry="4"/>
          </clipPath>
        </defs>
        <g clip-path="url(#dv-clip-c_65b869b4)">
          <rect class="dv-title-bar" x="0" y="0" width="285" height="28" rx="4" ry="4" style="fill:#1e3a8a"/>
          <rect x="0" y="24" width="285" height="4" style="fill:#1e3a8a"/>
          <g transform="translate(10,8)">
            <rect x="1" y="1" width="10" height="10" style="fill:none;stroke:#f9fafb;stroke-width:1"/>
            <line x1="1" y1="5" x2="11" y2="5" style="stroke:#f9fafb;stroke-width:0.8"/>
          </g>
          <text x="28" y="12" style="font:400 10px sans-serif;fill:#e5e7eb">Class</text>
          <text class="dv-title" x="28" y="23" style="font:600 13px sans-serif;fill:#f9fafb">TypeSystem</text>
          <rect x="1" y="28" width="283" height="16" style="fill:#dbeafe"/>
          <text x="10" y="39" style="font:600 9.0px sans-serif;fill:#374151;letter-spacing:0.5px">ATTRIBUTES</text>
          <rect x="1" y="44" width="283" height="18" style="fill:#eff6ff"/>
          <line x1="1" x2="284" y1="62" y2="62" style="stroke:#dbeafe;stroke-width:1"/>
          <text x="18" y="57" style="font:400 11px sans-serif">version</text>
          <text x="229" y="57" text-anchor="end" style="font:400 10px monospace;fill:#6b7280">String</text>
          <text x="267" y="57" text-anchor="end" style="font:400 10px monospace;fill:#6b7280">0..1</text>
          <rect x="1" y="62" width="283" height="16" style="fill:#bbf7d0"/>
          <text x="10" y="73" style="font:600 9.0px sans-serif;fill:#374151;letter-spacing:0.5px">REFERENCES</text>
          <rect x="1" y="78" width="283" height="18" style="fill:#f0fdf4"/>
          <line x1="1" x2="284" y1="96" y2="96" style="stroke:#bbf7d0;stroke-width:1"/>
          <text x="18" y="91" style="font:400 11px sans-serif">supportingSystem</text>
          <text x="229" y="91" text-anchor="end" style="font:400 10px monospace;fill:#6b7280">SoftwareSystem</text>
          <text x="267" y="91" text-anchor="end" style="font:400 10px monospace;fill:#6b7280">0..*</text>
          <g transform="translate(269,82)" aria-label="reference">
            <path d="M3 1 L9 5 L3 9" style="fill:none;stroke:#1f2937;stroke-width:1.4;stroke-linecap:round;stroke-linejoin:round"/>
          </g>
        </g>
      </g>
    </g>
  </g>
</svg>
