<?xml version="1.0" encoding="UTF-8"?>
<svg xmlns="http://www.w3.org/2000/svg" width="798.50" height="600" viewBox="0 0 798.50 600">
  <defs>
    <style type="text/css">
      <![CDATA[
.dv-node rect.dv-frame { fill: #fff; stroke: #374151; stroke-width: 1; }
.dv-node .dv-title { font: 600 13px sans-serif; fill: #111827; }
.dv-node .dv-sub { font: 400 10px sans-serif; fill: #6b7280; }
.dv-edge { fill: none; stroke: #374151; stroke-width: 1.2; }
.dv-edge.fk { stroke: #334155; }
.dv-edge.inherit { stroke: #16a34a; }
.dv-edge.dep { stroke: #6b7280; stroke-dasharray: 4 3; }
.dv-label { font: 400 10px sans-serif; fill: #334155; }
.dv-cardinality { font: 400 10px sans-serif; fill: #1e293b; }
.dv-cardinality-bg { fill: #ffffff; }

]]>
    </style>
    <marker id="dv-arrow" viewBox="0 0 10 10" refX="9" refY="5" markerWidth="7" markerHeight="7" orient="auto-start-reverse">
      <path d="M0,0 L10,5 L0,10 z" fill="#374151"/>
    </marker>
    <marker id="dv-arrow-fk" viewBox="0 0 10 10" refX="9" refY="5" markerWidth="7" markerHeight="7" orient="auto-start-reverse">
      <path d="M0,0 L10,5 L0,10 z" fill="#334155"/>
    </marker>
    <marker id="dv-tri" viewBox="0 0 12 12" refX="11" refY="6" markerWidth="10" markerHeight="10" orient="auto-start-reverse">
      <path d="M0,0 L12,6 L0,12 z" fill="#fff" stroke="#16a34a"/>
    </marker>
    <marker id="dv-deco-open-arrow" viewBox="0 0 12 12" refX="11" refY="6" markerWidth="10" markerHeight="10" orient="auto-start-reverse">
      <path d="M0,0 L12,6 M0,12 L12,6" fill="none" stroke="#374151" stroke-width="1.40"/>
    </marker>
    <marker id="dv-deco-closed-arrow" viewBox="0 0 12 12" refX="11" refY="6" markerWidth="10" markerHeight="10" orient="auto-start-reverse">
      <path d="M0,0 L12,6 L0,12 z" fill="#374151"/>
    </marker>
    <marker id="dv-deco-triangle-hollow" viewBox="0 0 12 12" refX="12" refY="6" markerWidth="6" markerHeight="6" orient="auto-start-reverse">
      <path d="M0,0 L12,6 L0,12 z" fill="#fff" stroke="#374151" stroke-width="1.40"/>
    </marker>
    <marker id="dv-deco-triangle-filled" viewBox="0 0 12 12" refX="12" refY="6" markerWidth="6" markerHeight="6" orient="auto-start-reverse">
      <path d="M0,0 L12,6 L0,12 z" fill="#374151"/>
    </marker>
    <marker id="dv-deco-diamond-hollow" viewBox="0 0 12 12" refX="11" refY="6" markerWidth="12" markerHeight="12" orient="auto-start-reverse">
      <path d="M0,6 L6,0 L12,6 L6,12 z" fill="#fff" stroke="#374151" stroke-width="1.20"/>
    </marker>
    <marker id="dv-deco-diamond-filled" viewBox="0 0 12 12" refX="11" refY="6" markerWidth="12" markerHeight="12" orient="auto-start-reverse">
      <path d="M0,6 L6,0 L12,6 L6,12 z" fill="#374151"/>
    </marker>
    <marker id="dv-deco-crows-foot-many" viewBox="0 0 12 12" refX="11" refY="6" markerWidth="11" markerHeight="11" orient="auto-start-reverse">
      <path d="M12,6 L0,0 M12,6 L0,12 M12,6 L0,6" fill="none" stroke="#374151" stroke-width="1.30"/>
    </marker>
    <marker id="dv-deco-crows-foot-one" viewBox="0 0 12 12" refX="11" refY="6" markerWidth="8" markerHeight="11" orient="auto-start-reverse">
      <path d="M6,0 L6,12" fill="none" stroke="#374151" stroke-width="1.40"/>
    </marker>
    <marker id="dv-deco-crows-foot-many-opt" viewBox="0 0 12 12" refX="11" refY="6" markerWidth="14" markerHeight="11" orient="auto-start-reverse">
      <g>
        <circle cx="9.50" cy="6" r="2" fill="#fff" stroke="#374151" stroke-width="1.20"/>
        <path d="M7,6 L0,0 M7,6 L0,12 M7,6 L0,6" fill="none" stroke="#374151" stroke-width="1.30"/>
      </g>
    </marker>
    <marker id="dv-deco-crows-foot-one-opt" viewBox="0 0 12 12" refX="11" refY="6" markerWidth="12" markerHeight="11" orient="auto-start-reverse">
      <g>
        <circle cx="9.50" cy="6" r="2" fill="#fff" stroke="#374151" stroke-width="1.20"/>
        <path d="M5,0 L5,12" fill="none" stroke="#374151" stroke-width="1.40"/>
      </g>
    </marker>
  </defs>
  <g class="diagramvis-body" transform="translate(-4.0,-4.0)">
    <g class="dv-node dv-schema_7d0614f" transform="translate(20,20)">
      <rect x="0" y="0" width="766.50" height="382" rx="6" ry="6" style="fill:#fafafa;stroke:#9ca3af;stroke-width:1;stroke-dasharray:5 3"/>
      <rect x="0" y="0" width="97.50" height="32" rx="6" ry="6" style="fill:#1f2937;stroke:none"/>
      <circle cx="16" cy="16" r="10" style="fill:#ffffff;fill-opacity:0.18;stroke:#ffffff;stroke-opacity:0.6;stroke-width:1"/>
      <g transform="translate(10,10.0)">
        <path d="M1 3h4l1 1h5v6H1zM1 5h10" style="fill:#ffffff;stroke:none"/>
      </g>
      <text x="32" y="13" style="font:600 9px sans-serif;fill:#ffffff;letter-spacing:0.5px;opacity:0.85">SCHEMA</text>
      <text x="32" y="25" style="font:600 13px sans-serif;fill:#f9fafb">sales</text>
      <g class="dv-node dv-t_8bffb8b" transform="translate(526.50,159)">
        <rect class="dv-frame" x="0" y="0" width="200" height="92" rx="4" ry="4"/>
        <defs>
          <clipPath id="dv-clip-t_8bffb8b">
            <rect x="0" y="0" width="200" height="92" rx="4" ry="4"/>
          </clipPath>
        </defs>
        <g clip-path="url(#dv-clip-t_8bffb8b)">
          <rect class="dv-title-bar" x="0" y="0" width="200" height="32" rx="4" ry="4" style="fill:#1e3a8a"/>
          <rect x="0" y="28" width="200" height="4" style="fill:#1e3a8a"/>
          <circle cx="14" cy="16" r="10" style="fill:#ffffff;fill-opacity:0.18;stroke:#ffffff;stroke-opacity:0.6;stroke-width:1"/>
          <g class="dv-header-icon" transform="translate(8,10)" aria-label="TABLE">
            <rect x="0.50" y="0.50" width="11" height="11" style="fill:none;stroke:#f9fafb;stroke-width:1"/>
            <line x1="0.50" y1="4.50" x2="11.50" y2="4.50" style="stroke:#f9fafb;stroke-width:0.8"/>
            <line x1="0.50" y1="8" x2="11.50" y2="8" style="stroke:#f9fafb;stroke-width:0.8"/>
            <line x1="4" y1="0.50" x2="4" y2="11.50" style="stroke:#f9fafb;stroke-width:0.8"/>
            <line x1="8" y1="0.50" x2="8" y2="11.50" style="stroke:#f9fafb;stroke-width:0.8"/>
          </g>
          <text class="dv-kind" x="28" y="13" style="font:600 9px sans-serif;fill:#ffffff;letter-spacing:0.5px;opacity:0.85">COLUMN SET ▸ TABLE</text>
          <text class="dv-title" x="28" y="25" style="fill:#f9fafb">customer</text>
          <g class="dv-pk-icon" transform="translate(3,37)" aria-label="PK">
            <circle cx="2.60" cy="5" r="2.40" style="fill:#f59e0b;stroke:#b45309;stroke-width:0.6"/>
            <circle cx="2.60" cy="5" r="0.90" style="fill:#b45309"/>
            <path d="M5 4.2 L10 4.2 L10 6 L9 6 L9 5 L8 5 L8 6 L5 6 Z" style="fill:#f59e0b;stroke:#b45309;stroke-width:0.6;stroke-linejoin:round"/>
          </g>
          <text class="dv-col-name" x="18" y="46" style="font:600 11px sans-serif">id</text>
          <text class="dv-col-type" x="172" y="46" text-anchor="end" style="font:400 10px monospace;fill:#6b7280">BIGINT</text>
          <line x1="0" x2="200" y1="52" y2="52" style="stroke:#e5e7eb;stroke-width:1"/>
          <text class="dv-col-name" x="18" y="66" style="font:11px sans-serif">email</text>
          <text class="dv-col-type" x="172" y="66" text-anchor="end" style="font:400 10px monospace;fill:#6b7280">VARCHAR(255)</text>
          <line x1="0" x2="200" y1="72" y2="72" style="stroke:#e5e7eb;stroke-width:1"/>
          <text class="dv-col-name" x="18" y="86" style="font:11px sans-serif">name</text>
          <text class="dv-col-type" x="172" y="86" text-anchor="end" style="font:400 10px monospace;fill:#6b7280">VARCHAR(100)</text>
          <line x1="0" x2="200" y1="92" y2="92" style="stroke:#e5e7eb;stroke-width:1"/>
        </g>
      </g>
      <g class="dv-node dv-t_21422231" transform="translate(296.50,212)">
        <rect class="dv-frame" x="0" y="0" width="202" height="92" rx="4" ry="4"/>
        <defs>
          <clipPath id="dv-clip-t_21422231">
            <rect x="0" y="0" width="202" height="92" rx="4" ry="4"/>
          </clipPath>
        </defs>
        <g clip-path="url(#dv-clip-t_21422231)">
          <rect class="dv-title-bar" x="0" y="0" width="202" height="32" rx="4" ry="4" style="fill:#1e3a8a"/>
          <rect x="0" y="28" width="202" height="4" style="fill:#1e3a8a"/>
          <circle cx="14" cy="16" r="10" style="fill:#ffffff;fill-opacity:0.18;stroke:#ffffff;stroke-opacity:0.6;stroke-width:1"/>
          <g class="dv-header-icon" transform="translate(8,10)" aria-label="TABLE">
            <rect x="0.50" y="0.50" width="11" height="11" style="fill:none;stroke:#f9fafb;stroke-width:1"/>
            <line x1="0.50" y1="4.50" x2="11.50" y2="4.50" style="stroke:#f9fafb;stroke-width:0.8"/>
            <line x1="0.50" y1="8" x2="11.50" y2="8" style="stroke:#f9fafb;stroke-width:0.8"/>
            <line x1="4" y1="0.50" x2="4" y2="11.50" style="stroke:#f9fafb;stroke-width:0.8"/>
            <line x1="8" y1="0.50" x2="8" y2="11.50" style="stroke:#f9fafb;stroke-width:0.8"/>
          </g>
          <text class="dv-kind" x="28" y="13" style="font:600 9px sans-serif;fill:#ffffff;letter-spacing:0.5px;opacity:0.85">COLUMN SET ▸ TABLE</text>
          <text class="dv-title" x="28" y="25" style="fill:#f9fafb">order_version</text>
          <g class="dv-pk-icon" transform="translate(3,37)" aria-label="PK">
            <circle cx="2.60" cy="5" r="2.40" style="fill:#f59e0b;stroke:#b45309;stroke-width:0.6"/>
            <circle cx="2.60" cy="5" r="0.90" style="fill:#b45309"/>
            <path d="M5 4.2 L10 4.2 L10 6 L9 6 L9 5 L8 5 L8 6 L5 6 Z" style="fill:#f59e0b;stroke:#b45309;stroke-width:0.6;stroke-linejoin:round"/>
          </g>
          <text class="dv-col-name" x="30" y="46" style="font:600 11px sans-serif">id</text>
          <text class="dv-col-type" x="174" y="46" text-anchor="end" style="font:400 10px monospace;fill:#6b7280">BIGINT</text>
          <line x1="0" x2="202" y1="52" y2="52" style="stroke:#e5e7eb;stroke-width:1"/>
          <g class="dv-fk-icon" transform="translate(15,57)" aria-label="FK">
            <circle cx="2.60" cy="5" r="2.40" style="fill:#d1d5db;stroke:#6b7280;stroke-width:0.6"/>
            <circle cx="2.60" cy="5" r="0.90" style="fill:#6b7280"/>
            <path d="M5 4.2 L10 4.2 L10 6 L9 6 L9 5 L8 5 L8 6 L5 6 Z" style="fill:#d1d5db;stroke:#6b7280;stroke-width:0.6;stroke-linejoin:round"/>
          </g>
          <text class="dv-col-name" x="30" y="66" style="font:11px sans-serif">customer_id</text>
          <text class="dv-col-type" x="174" y="66" text-anchor="end" style="font:400 10px monospace;fill:#6b7280">BIGINT</text>
          <line x1="0" x2="202" y1="72" y2="72" style="stroke:#e5e7eb;stroke-width:1"/>
          <text class="dv-col-name" x="30" y="86" style="font:11px sans-serif">total</text>
          <text class="dv-col-type" x="174" y="86" text-anchor="end" style="font:400 10px monospace;fill:#6b7280">DECIMAL(12,2)</text>
          <line x1="0" x2="202" y1="92" y2="92" style="stroke:#e5e7eb;stroke-width:1"/>
        </g>
      </g>
      <g class="dv-node dv-t_6f38a289" transform="translate(54.25,56)">
        <rect class="dv-frame" x="0" y="0" width="200" height="32" rx="4" ry="4"/>
        <defs>
          <clipPath id="dv-clip-t_6f38a289">
            <rect x="0" y="0" width="200" height="32" rx="4" ry="4"/>
          </clipPath>
        </defs>
        <g clip-path="url(#dv-clip-t_6f38a289)">
          <rect class="dv-title-bar" x="0" y="0" width="200" height="32" rx="4" ry="4" style="fill:#1e3a8a"/>
          <rect x="0" y="28" width="200" height="4" style="fill:#1e3a8a"/>
          <circle cx="14" cy="16" r="10" style="fill:#ffffff;fill-opacity:0.18;stroke:#ffffff;stroke-opacity:0.6;stroke-width:1"/>
          <g class="dv-header-icon" transform="translate(8,10)" aria-label="TABLE">
            <rect x="0.50" y="0.50" width="11" height="11" style="fill:none;stroke:#f9fafb;stroke-width:1"/>
            <line x1="0.50" y1="4.50" x2="11.50" y2="4.50" style="stroke:#f9fafb;stroke-width:0.8"/>
            <line x1="0.50" y1="8" x2="11.50" y2="8" style="stroke:#f9fafb;stroke-width:0.8"/>
            <line x1="4" y1="0.50" x2="4" y2="11.50" style="stroke:#f9fafb;stroke-width:0.8"/>
            <line x1="8" y1="0.50" x2="8" y2="11.50" style="stroke:#f9fafb;stroke-width:0.8"/>
          </g>
          <text class="dv-kind" x="28" y="13" style="font:600 9px sans-serif;fill:#ffffff;letter-spacing:0.5px;opacity:0.85">COLUMN SET ▸ TABLE</text>
          <text class="dv-title" x="28" y="25" style="fill:#f9fafb">product</text>
        </g>
      </g>
      <g class="dv-node dv-t_64b70919" transform="translate(54.25,282)">
        <rect class="dv-frame" x="0" y="0" width="200" height="32" rx="4" ry="4"/>
        <defs>
          <clipPath id="dv-clip-t_64b70919">
            <rect x="0" y="0" width="200" height="32" rx="4" ry="4"/>
          </clipPath>
        </defs>
        <g clip-path="url(#dv-clip-t_64b70919)">
          <rect class="dv-title-bar" x="0" y="0" width="200" height="32" rx="4" ry="4" style="fill:#1e3a8a"/>
          <rect x="0" y="28" width="200" height="4" style="fill:#1e3a8a"/>
          <circle cx="14" cy="16" r="10" style="fill:#ffffff;fill-opacity:0.18;stroke:#ffffff;stroke-opacity:0.6;stroke-width:1"/>
          <g class="dv-header-icon" transform="translate(8,10)" aria-label="TABLE">
            <rect x="0.50" y="0.50" width="11" height="11" style="fill:none;stroke:#f9fafb;stroke-width:1"/>
            <line x1="0.50" y1="4.50" x2="11.50" y2="4.50" style="stroke:#f9fafb;stroke-width:0.8"/>
            <line x1="0.50" y1="8" x2="11.50" y2="8" style="stroke:#f9fafb;stroke-width:0.8"/>
            <line x1="4" y1="0.50" x2="4" y2="11.50" style="stroke:#f9fafb;stroke-width:0.8"/>
            <line x1="8" y1="0.50" x2="8" y2="11.50" style="stroke:#f9fafb;stroke-width:0.8"/>
          </g>
          <text class="dv-kind" x="28" y="13" style="font:600 9px sans-serif;fill:#ffffff;letter-spacing:0.5px;opacity:0.85">COLUMN SET ▸ TABLE</text>
          <text class="dv-title" x="28" y="25" style="fill:#f9fafb">order_line</text>
        </g>
      </g>
      <g class="dv-node dv-t_3157e4c0" transform="translate(54.25,334)">
        <rect class="dv-frame" x="0" y="0" width="200" height="32" rx="4" ry="4"/>
        <defs>
          <clipPath id="dv-clip-t_3157e4c0">
            <rect x="0" y="0" width="200" height="32" rx="4" ry="4"/>
          </clipPath>
        </defs>
        <g clip-path="url(#dv-clip-t_3157e4c0)">
          <rect class="dv-title-bar" x="0" y="0" width="200" height="32" rx="4" ry="4" style="fill:#14532d"/>
          <rect x="0" y="28" width="200" height="4" style="fill:#14532d"/>
          <circle cx="14" cy="16" r="10" style="fill:#ffffff;fill-opacity:0.18;stroke:#ffffff;stroke-opacity:0.6;stroke-width:1"/>
          <g class="dv-header-icon" transform="translate(8,10)" aria-label="VIEW">
            <path d="M0 6 Q6 0 12 6 Q6 12 0 6 Z" style="fill:none;stroke:#f9fafb;stroke-width:1"/>
            <circle cx="6" cy="6" r="2" style="fill:#f9fafb"/>
          </g>
          <text class="dv-kind" x="28" y="13" style="font:600 9px sans-serif;fill:#ffffff;letter-spacing:0.5px;opacity:0.85">COLUMN SET ▸ VIEW</text>
          <text class="dv-title" x="28" y="25" style="fill:#f9fafb">v_customer_summary</text>
        </g>
      </g>
      <g class="dv-node dv-t_36f1046f" transform="translate(40,108)">
        <rect class="dv-frame" x="0" y="0" width="228.50" height="132" rx="4" ry="4"/>
        <defs>
          <clipPath id="dv-clip-t_36f1046f">
            <rect x="0" y="0" width="228.50" height="132" rx="4" ry="4"/>
          </clipPath>
        </defs>
        <g clip-path="url(#dv-clip-t_36f1046f)">
          <rect class="dv-title-bar" x="0" y="0" width="228.50" height="32" rx="4" ry="4" style="fill:#14532d"/>
          <rect x="0" y="28" width="228.50" height="4" style="fill:#14532d"/>
          <circle cx="14" cy="16" r="10" style="fill:#ffffff;fill-opacity:0.18;stroke:#ffffff;stroke-opacity:0.6;stroke-width:1"/>
          <g class="dv-header-icon" transform="translate(8,10)" aria-label="VIEW">
            <path d="M0 6 Q6 0 12 6 Q6 12 0 6 Z" style="fill:none;stroke:#f9fafb;stroke-width:1"/>
            <circle cx="6" cy="6" r="2" style="fill:#f9fafb"/>
          </g>
          <text class="dv-kind" x="28" y="13" style="font:600 9px sans-serif;fill:#ffffff;letter-spacing:0.5px;opacity:0.85">COLUMN SET ▸ VIEW</text>
          <text class="dv-title" x="28" y="25" style="fill:#f9fafb">v_customer_lifetime</text>
          <text class="dv-col-name" x="12" y="46" style="font:11px sans-serif">id</text>
          <text class="dv-col-type" x="214.50" y="46" text-anchor="end" style="font:400 10px monospace;fill:#6b7280">BIGINT</text>
          <line x1="0" x2="228.50" y1="52" y2="52" style="stroke:#e5e7eb;stroke-width:1"/>
          <text class="dv-col-name" x="12" y="66" style="font:11px sans-serif">email</text>
          <text class="dv-col-type" x="214.50" y="66" text-anchor="end" style="font:400 10px monospace;fill:#6b7280">VARCHAR(255)</text>
          <line x1="0" x2="228.50" y1="72" y2="72" style="stroke:#e5e7eb;stroke-width:1"/>
          <text class="dv-col-name" x="12" y="86" style="font:11px sans-serif">name</text>
          <text class="dv-col-type" x="214.50" y="86" text-anchor="end" style="font:400 10px monospace;fill:#6b7280">VARCHAR(100)</text>
          <line x1="0" x2="228.50" y1="92" y2="92" style="stroke:#e5e7eb;stroke-width:1"/>
          <text class="dv-col-name" x="12" y="106" style="font:11px sans-serif">order_count</text>
          <text class="dv-col-type" x="214.50" y="106" text-anchor="end" style="font:400 10px monospace;fill:#6b7280">INT</text>
          <line x1="0" x2="228.50" y1="112" y2="112" style="stroke:#e5e7eb;stroke-width:1"/>
          <text class="dv-col-name" x="12" y="126" style="font:11px sans-serif">lifetime_total</text>
          <text class="dv-col-type" x="214.50" y="126" text-anchor="end" style="font:400 10px monospace;fill:#6b7280">DECIMAL(12,2)</text>
          <line x1="0" x2="228.50" y1="132" y2="132" style="stroke:#e5e7eb;stroke-width:1"/>
        </g>
      </g>
    </g>
    <g class="dv-node dv-schema_6eaa21d8" transform="translate(287.25,442)">
      <rect x="0" y="0" width="232" height="146" rx="6" ry="6" style="fill:#fafafa;stroke:#9ca3af;stroke-width:1;stroke-dasharray:5 3"/>
      <rect x="0" y="0" width="127.50" height="32" rx="6" ry="6" style="fill:#1f2937;stroke:none"/>
      <circle cx="16" cy="16" r="10" style="fill:#ffffff;fill-opacity:0.18;stroke:#ffffff;stroke-opacity:0.6;stroke-width:1"/>
      <g transform="translate(10,10.0)">
        <path d="M1 3h4l1 1h5v6H1zM1 5h10" style="fill:#ffffff;stroke:none"/>
      </g>
      <text x="32" y="13" style="font:600 9px sans-serif;fill:#ffffff;letter-spacing:0.5px;opacity:0.85">SCHEMA</text>
      <text x="32" y="25" style="font:600 13px sans-serif;fill:#f9fafb">warehouse</text>
      <g class="dv-node dv-t_328902d5" transform="translate(16,46)">
        <rect class="dv-frame" x="0" y="0" width="200" height="32" rx="4" ry="4"/>
        <defs>
          <clipPath id="dv-clip-t_328902d5">
            <rect x="0" y="0" width="200" height="32" rx="4" ry="4"/>
          </clipPath>
        </defs>
        <g clip-path="url(#dv-clip-t_328902d5)">
          <rect class="dv-title-bar" x="0" y="0" width="200" height="32" rx="4" ry="4" style="fill:#1e3a8a"/>
          <rect x="0" y="28" width="200" height="4" style="fill:#1e3a8a"/>
          <circle cx="14" cy="16" r="10" style="fill:#ffffff;fill-opacity:0.18;stroke:#ffffff;stroke-opacity:0.6;stroke-width:1"/>
          <g class="dv-header-icon" transform="translate(8,10)" aria-label="TABLE">
            <rect x="0.50" y="0.50" width="11" height="11" style="fill:none;stroke:#f9fafb;stroke-width:1"/>
            <line x1="0.50" y1="4.50" x2="11.50" y2="4.50" style="stroke:#f9fafb;stroke-width:0.8"/>
            <line x1="0.50" y1="8" x2="11.50" y2="8" style="stroke:#f9fafb;stroke-width:0.8"/>
            <line x1="4" y1="0.50" x2="4" y2="11.50" style="stroke:#f9fafb;stroke-width:0.8"/>
            <line x1="8" y1="0.50" x2="8" y2="11.50" style="stroke:#f9fafb;stroke-width:0.8"/>
          </g>
          <text class="dv-kind" x="28" y="13" style="font:600 9px sans-serif;fill:#ffffff;letter-spacing:0.5px;opacity:0.85">COLUMN SET ▸ TABLE</text>
          <text class="dv-title" x="28" y="25" style="fill:#f9fafb">inventory</text>
        </g>
      </g>
      <g class="dv-node dv-t_7c1812b3" transform="translate(16,98)">
        <rect class="dv-frame" x="0" y="0" width="200" height="32" rx="4" ry="4"/>
        <defs>
          <clipPath id="dv-clip-t_7c1812b3">
            <rect x="0" y="0" width="200" height="32" rx="4" ry="4"/>
          </clipPath>
        </defs>
        <g clip-path="url(#dv-clip-t_7c1812b3)">
          <rect class="dv-title-bar" x="0" y="0" width="200" height="32" rx="4" ry="4" style="fill:#1e3a8a"/>
          <rect x="0" y="28" width="200" height="4" style="fill:#1e3a8a"/>
          <circle cx="14" cy="16" r="10" style="fill:#ffffff;fill-opacity:0.18;stroke:#ffffff;stroke-opacity:0.6;stroke-width:1"/>
          <g class="dv-header-icon" transform="translate(8,10)" aria-label="TABLE">
            <rect x="0.50" y="0.50" width="11" height="11" style="fill:none;stroke:#f9fafb;stroke-width:1"/>
            <line x1="0.50" y1="4.50" x2="11.50" y2="4.50" style="stroke:#f9fafb;stroke-width:0.8"/>
            <line x1="0.50" y1="8" x2="11.50" y2="8" style="stroke:#f9fafb;stroke-width:0.8"/>
            <line x1="4" y1="0.50" x2="4" y2="11.50" style="stroke:#f9fafb;stroke-width:0.8"/>
            <line x1="8" y1="0.50" x2="8" y2="11.50" style="stroke:#f9fafb;stroke-width:0.8"/>
          </g>
          <text class="dv-kind" x="28" y="13" style="font:600 9px sans-serif;fill:#ffffff;letter-spacing:0.5px;opacity:0.85">COLUMN SET ▸ TABLE</text>
          <text class="dv-title" x="28" y="25" style="fill:#f9fafb">pg_stat_inventory</text>
          <rect class="dv-sys-pill" x="158" y="8" width="34" height="16" rx="8" ry="8" style="fill:#fde68a;stroke:#b45309;stroke-width:1.2"/>
          <text class="dv-sys-label" x="175" y="20" text-anchor="middle" style="font:700 10px sans-serif;fill:#7c2d12;letter-spacing:0.6px">SYS</text>
        </g>
      </g>
    </g>
    <path class="dv-edge dep" d="M750.50,221 L760.50,221 L760.50,118 L46,118 L46,170 L56,170" marker-end="url(#dv-arrow)"/>
    <text class="dv-label" x="411.70" y="131" style="fill:#6b7280">id</text>
    <path class="dv-edge dep" d="M750.50,241 L770.50,241 L770.50,66 L36,66 L36,190 L56,190" marker-end="url(#dv-arrow)"/>
    <text class="dv-label" x="403" y="79" style="fill:#6b7280">email</text>
    <path class="dv-edge dep" d="M750.50,261 L760.50,261 L760.50,344 L46,344 L46,210 L56,210" marker-end="url(#dv-arrow)"/>
    <text class="dv-label" x="405.90" y="357" style="fill:#6b7280">name</text>
    <path class="dv-edge dep" d="M174.25,264 L174.25,274 L302.50,274 L302.50,221 L542.50,221" marker-end="url(#dv-arrow)"/>
    <path class="dv-edge dep" d="M174.25,264 L174.25,274 L312.50,274" marker-end="url(#dv-arrow)"/>
    <path class="dv-edge dep" d="M174.25,264 L174.25,274 L302.50,274 L302.50,221 L532.50,221 L532.50,241 L542.50,241" marker-end="url(#dv-arrow)"/>
    <path class="dv-edge dep" d="M174.25,264 L174.25,274 L302.50,274 L302.50,294 L312.50,294" marker-end="url(#dv-arrow)"/>
    <path class="dv-edge dep" d="M174.25,264 L174.25,274 L302.50,274 L302.50,221 L532.50,221 L532.50,261 L542.50,261" marker-end="url(#dv-arrow)"/>
    <path class="dv-edge dep" d="M174.25,264 L174.25,274 L302.50,274 L302.50,314 L312.50,314" marker-end="url(#dv-arrow)"/>
  </g>
</svg>
